<svg class="plot-1bfe7dfa83af" fill="currentColor" font-family="system-ui, sans-serif" font-size="10" text-anchor="middle" width="150" height="150" viewBox="0 0 150 150" xmlns="http://www.w3.org/2000/svg" xmlns:xlink="http://www.w3.org/1999/xlink"><style>
        .plot-1bfe7dfa83af {
          display: block;
          background: white;
          height: auto;
          height: intrinsic;
          max-width: 100%;
        }
        .plot-1bfe7dfa83af text,
        .plot-1bfe7dfa83af tspan {
          white-space: pre;
        }
      </style><g aria-label="dot" fill-opacity="0.3" transform="translate(0.5,0.5)"><circle cx="123.7808874246629" cy="118.62682499181409" r="3" fill="hsl(262, 48%, 85%)"/><circle cx="102.75428612578301" cy="95.00360832871588" r="3" fill="hsl(262, 48%, 85%)"/><circle cx="51.52402918198633" cy="41.596879321732025" r="3" fill="hsl(51, 90%, 71%)"/><circle cx="133.88984526709743" cy="134.20477136898424" r="3" fill="hsl(262, 48%, 85%)"/><circle cx="46.74454819955072" cy="79.84062670724298" r="3" fill="hsl(180, 50%, 82%)"/><circle cx="53.51888694513481" cy="47.38582093388466" r="3" fill="hsl(51, 90%, 71%)"/><circle cx="121.44980714132822" cy="113.89813776506615" r="3" fill="hsl(262, 48%, 85%)"/><circle cx="77.53045418312853" cy="85.2692287629819" r="3" fill="hsl(51, 90%, 71%)"/><circle cx="60.642681840353625" cy="85.71594737812616" r="3" fill="hsl(180, 50%, 82%)"/><circle cx="42.06091428956289" cy="57.01533328706954" r="3" fill="hsl(180, 50%, 82%)"/><circle cx="73.37462027953683" cy="79.15071336256707" r="3" fill="hsl(51, 90%, 71%)"/><circle cx="35.68274406758493" cy="53.70562235822121" r="3" fill="hsl(180, 50%, 82%)"/><circle cx="121.42080985181757" cy="106.42835008767396" r="3" fill="hsl(262, 48%, 85%)"/><circle cx="42.67895658649123" cy="61.83397906628477" r="3" fill="hsl(180, 50%, 82%)"/><circle cx="34.713928973794935" cy="24.67991551818825" r="3" fill="hsl(51, 90%, 71%)"/><circle cx="114.53614335466455" cy="107.91230588857321" r="3" fill="hsl(262, 48%, 85%)"/><circle cx="51.33431214136911" cy="37.1852603916621" r="3" fill="hsl(51, 90%, 71%)"/><circle cx="124.79047248450239" cy="112.45174388835437" r="3" fill="hsl(262, 48%, 85%)"/><circle cx="122.12594354344365" cy="116.52220452523204" r="3" fill="hsl(262, 48%, 85%)"/><circle cx="56.20012126935611" cy="50.13060580075869" r="3" fill="hsl(51, 90%, 71%)"/><circle cx="94.49524659505894" cy="79.76186075935541" r="3" fill="hsl(262, 48%, 85%)"/><circle cx="65.62381691446008" cy="55.15254350903018" r="3" fill="hsl(51, 90%, 71%)"/><circle cx="60.50442715915753" cy="96.98393812569677" r="3" fill="hsl(180, 50%, 82%)"/><circle cx="60.35981665633363" cy="55.31385800847914" r="3" fill="hsl(51, 90%, 71%)"/><circle cx="59.39291848754198" cy="53.500618242825254" r="3" fill="hsl(51, 90%, 71%)"/><circle cx="53.96142439700174" cy="40.921052672632264" r="3" fill="hsl(51, 90%, 71%)"/><circle cx="104.54364396160646" cy="95.10602635803" r="3" fill="hsl(262, 48%, 85%)"/><circle cx="71.94838382137726" cy="72.80083621006617" r="3" fill="hsl(51, 90%, 71%)"/><circle cx="45.236067408862134" cy="35.375761640203" r="3" fill="hsl(51, 90%, 71%)"/><circle cx="93.86148855197021" cy="83.94917743893969" r="3" fill="hsl(262, 48%, 85%)"/><circle cx="35.33199331272082" cy="52.94717688486951" r="3" fill="hsl(180, 50%, 82%)"/><circle cx="104.3230775714613" cy="89.42866719082565" r="3" fill="hsl(262, 48%, 85%)"/><circle cx="109.16788562006394" cy="97.47432021154899" r="3" fill="hsl(262, 48%, 85%)"/><circle cx="57.00763925322805" cy="39.093350984530325" r="3" fill="hsl(51, 90%, 71%)"/><circle cx="61.17725479405381" cy="53.76860619483277" r="3" fill="hsl(51, 90%, 71%)"/><circle cx="37.73587950532884" cy="59.1996727484982" r="3" fill="hsl(180, 50%, 82%)"/><circle cx="67.5796992761039" cy="67.77649291456801" r="3" fill="hsl(51, 90%, 71%)"/><circle cx="64.74283158297266" cy="66.92622684573111" r="3" fill="hsl(51, 90%, 71%)"/><circle cx="53.84599059810925" cy="49.87608594002277" r="3" fill="hsl(51, 90%, 71%)"/><circle cx="59.29901429062099" cy="82.31054207743064" r="3" fill="hsl(180, 50%, 82%)"/><circle cx="40.68312309375539" cy="29.903005531322037" r="3" fill="hsl(51, 90%, 71%)"/><circle cx="43.05405330217962" cy="25.660223660099675" r="3" fill="hsl(51, 90%, 71%)"/><circle cx="99.98458624148454" cy="82.67363635422888" r="3" fill="hsl(262, 48%, 85%)"/><circle cx="37.57769045162971" cy="60.741125289408764" r="3" fill="hsl(180, 50%, 82%)"/><circle cx="58.754602504707535" cy="86.0177368637955" r="3" fill="hsl(180, 50%, 82%)"/><circle cx="139" cy="139" r="3" fill="hsl(262, 48%, 85%)"/><circle cx="46.6376740984693" cy="77.1139400988944" r="3" fill="hsl(180, 50%, 82%)"/><circle cx="104.99942737482834" cy="92.34679474796239" r="3" fill="hsl(262, 48%, 85%)"/><circle cx="123.61272748483793" cy="121.12041103510751" r="3" fill="hsl(262, 48%, 85%)"/><circle cx="112.34480335110443" cy="102.98088948106802" r="3" fill="hsl(262, 48%, 85%)"/><circle cx="110.54654892780962" cy="105.21114745184644" r="3" fill="hsl(262, 48%, 85%)"/><circle cx="50.54631498777397" cy="36.0396417670295" r="3" fill="hsl(51, 90%, 71%)"/><circle cx="73.38842123262482" cy="109.37337273840309" r="3" fill="hsl(180, 50%, 82%)"/><circle cx="55.761350929131595" cy="45.124094790448275" r="3" fill="hsl(51, 90%, 71%)"/><circle cx="93.2377789487278" cy="73.23377653157178" r="3" fill="hsl(262, 48%, 85%)"/><circle cx="51.67200050126264" cy="75.72290382675106" r="3" fill="hsl(180, 50%, 82%)"/><circle cx="126.35754029677781" cy="122.25145892245608" r="3" fill="hsl(262, 48%, 85%)"/><circle cx="109.20491366597332" cy="99.78688315918913" r="3" fill="hsl(262, 48%, 85%)"/><circle cx="48.60635731766572" cy="82.85950188232304" r="3" fill="hsl(180, 50%, 82%)"/><circle cx="110.79756950366777" cy="104.47742428642616" r="3" fill="hsl(262, 48%, 85%)"/><circle cx="17.103513231978447" cy="34.09599315593975" r="3" fill="hsl(180, 50%, 82%)"/><circle cx="127.0103586197059" cy="122.22696904216633" r="3" fill="hsl(262, 48%, 85%)"/><circle cx="125.67285871965187" cy="118.07019174917846" r="3" fill="hsl(262, 48%, 85%)"/><circle cx="52.12252431254838" cy="34.70516575395054" r="3" fill="hsl(51, 90%, 71%)"/><circle cx="40.08268362102247" cy="36.405547802347684" r="3" fill="hsl(51, 90%, 71%)"/><circle cx="62.48812663507398" cy="96.72997571796567" r="3" fill="hsl(180, 50%, 82%)"/><circle cx="116.1244706281895" cy="113.45940754799459" r="3" fill="hsl(262, 48%, 85%)"/><circle cx="107.3642433935072" cy="92.18156796092103" r="3" fill="hsl(262, 48%, 85%)"/><circle cx="61.621253703839834" cy="56.51694460599942" r="3" fill="hsl(51, 90%, 71%)"/><circle cx="62.9718686831395" cy="57.04424845516165" r="3" fill="hsl(51, 90%, 71%)"/><circle cx="73.41402684718891" cy="74.12322498472228" r="3" fill="hsl(51, 90%, 71%)"/><circle cx="31.582071995548002" cy="47.24447375515131" r="3" fill="hsl(180, 50%, 82%)"/><circle cx="107.7743839489428" cy="94.8833376559646" r="3" fill="hsl(262, 48%, 85%)"/><circle cx="49.56951021873991" cy="71.13313829256865" r="3" fill="hsl(180, 50%, 82%)"/><circle cx="117.87687347965951" cy="124.23678228490307" r="3" fill="hsl(262, 48%, 85%)"/><circle cx="54.89008086433656" cy="38.75636923575079" r="3" fill="hsl(51, 90%, 71%)"/><circle cx="97.05882870023589" cy="85.87459873324565" r="3" fill="hsl(262, 48%, 85%)"/><circle cx="106.35695831132722" cy="84.8178998103344" r="3" fill="hsl(262, 48%, 85%)"/><circle cx="58.691454324317995" cy="51.981360312870585" r="3" fill="hsl(51, 90%, 71%)"/><circle cx="112.71571052385134" cy="106.37318314608326" r="3" fill="hsl(262, 48%, 85%)"/><circle cx="49.50654580583127" cy="76.9241969786466" r="3" fill="hsl(180, 50%, 82%)"/><circle cx="40.88761809317953" cy="32.040031724700405" r="3" fill="hsl(51, 90%, 71%)"/><circle cx="105.93513508442796" cy="89.50698636133164" r="3" fill="hsl(262, 48%, 85%)"/><circle cx="72.37068909638995" cy="66.8473532945803" r="3" fill="hsl(51, 90%, 71%)"/><circle cx="115.94116339984677" cy="105.48817397197112" r="3" fill="hsl(262, 48%, 85%)"/><circle cx="118.47936379106858" cy="114.39687429411431" r="3" fill="hsl(262, 48%, 85%)"/><circle cx="112.69523470112505" cy="107.30459728409353" r="3" fill="hsl(262, 48%, 85%)"/><circle cx="129.81617288205157" cy="123.36971748191377" r="3" fill="hsl(262, 48%, 85%)"/><circle cx="107.12334759707639" cy="97.92361988292176" r="3" fill="hsl(262, 48%, 85%)"/><circle cx="66.1558321542614" cy="65.404378280321" r="3" fill="hsl(51, 90%, 71%)"/><circle cx="50.04627089425564" cy="71.57839476908049" r="3" fill="hsl(180, 50%, 82%)"/><circle cx="67.30898923613826" cy="63.04229357216934" r="3" fill="hsl(51, 90%, 71%)"/><circle cx="53.26748331056747" cy="79.60605948555214" r="3" fill="hsl(180, 50%, 82%)"/><circle cx="51.64293576275574" cy="82.85618250279943" r="3" fill="hsl(180, 50%, 82%)"/><circle cx="73.21163642155886" cy="111.6708020650232" r="3" fill="hsl(180, 50%, 82%)"/><circle cx="66.74587743109498" cy="59.458439879757066" r="3" fill="hsl(51, 90%, 71%)"/><circle cx="42.86737711826576" cy="71.03744645133328" r="3" fill="hsl(180, 50%, 82%)"/><circle cx="34.022059233350035" cy="57.73292663308918" r="3" fill="hsl(180, 50%, 82%)"/><circle cx="41.08903860892645" cy="62.74047183628877" r="3" fill="hsl(180, 50%, 82%)"/><circle cx="68.94072454356385" cy="55.076083239991384" r="3" fill="hsl(51, 90%, 71%)"/><circle cx="34.439189923399894" cy="63.214908810904454" r="3" fill="hsl(180, 50%, 82%)"/><circle cx="121.92875009858295" cy="110.7943570819315" r="3" fill="hsl(262, 48%, 85%)"/><circle cx="113.17861246806183" cy="112.0677742413689" r="3" fill="hsl(262, 48%, 85%)"/><circle cx="120.50548488596445" cy="124.7327655215443" r="3" fill="hsl(262, 48%, 85%)"/><circle cx="105.78202170188757" cy="96.71460948675833" r="3" fill="hsl(262, 48%, 85%)"/><circle cx="50.045206644381196" cy="77.33282787353659" r="3" fill="hsl(180, 50%, 82%)"/><circle cx="115.30124481349927" cy="102.39956041286042" r="3" fill="hsl(262, 48%, 85%)"/><circle cx="66.39430358649354" cy="64.66578099755111" r="3" fill="hsl(51, 90%, 71%)"/><circle cx="52.143680543221755" cy="41.787295945397716" r="3" fill="hsl(51, 90%, 71%)"/><circle cx="59.56110088214164" cy="58.791756384146936" r="3" fill="hsl(51, 90%, 71%)"/><circle cx="44.17790113783512" cy="33.67801817050447" r="3" fill="hsl(51, 90%, 71%)"/><circle cx="129.86313701833367" cy="129.83710427129301" r="3" fill="hsl(262, 48%, 85%)"/><circle cx="95.15754199109458" cy="81.30556874080247" r="3" fill="hsl(262, 48%, 85%)"/><circle cx="123.28550429280983" cy="116.15095582220486" r="3" fill="hsl(262, 48%, 85%)"/><circle cx="51.077847994997335" cy="42.368473706867384" r="3" fill="hsl(51, 90%, 71%)"/><circle cx="29.194924138722534" cy="43.54793433286877" r="3" fill="hsl(180, 50%, 82%)"/><circle cx="119.90242094434635" cy="101.40420108545534" r="3" fill="hsl(262, 48%, 85%)"/><circle cx="75.9836962541402" cy="85.53129764486593" r="3" fill="hsl(51, 90%, 71%)"/><circle cx="57.405113725119215" cy="86.39892102410425" r="3" fill="hsl(180, 50%, 82%)"/><circle cx="48.75801187317434" cy="74.71175118212629" r="3" fill="hsl(180, 50%, 82%)"/><circle cx="42.036872804052436" cy="70.35366053490351" r="3" fill="hsl(180, 50%, 82%)"/><circle cx="31.111157216724813" cy="11.358710482648743" r="3" fill="hsl(51, 90%, 71%)"/><circle cx="42.23009852152678" cy="29.977466692105118" r="3" fill="hsl(51, 90%, 71%)"/><circle cx="54.90638008234148" cy="42.89101877363211" r="3" fill="hsl(51, 90%, 71%)"/><circle cx="30.9035217558073" cy="43.930472249783655" r="3" fill="hsl(180, 50%, 82%)"/><circle cx="56.4309553369355" cy="88.0238663306842" r="3" fill="hsl(180, 50%, 82%)"/><circle cx="44.12940233390161" cy="34.89328260352834" r="3" fill="hsl(51, 90%, 71%)"/><circle cx="114.56647135757737" cy="105.13804124452079" r="3" fill="hsl(262, 48%, 85%)"/><circle cx="121.05747268695941" cy="111.34676549537434" r="3" fill="hsl(262, 48%, 85%)"/><circle cx="38.74141151991981" cy="23.44406438285334" r="3" fill="hsl(51, 90%, 71%)"/><circle cx="71.38316570071102" cy="101.94150631735485" r="3" fill="hsl(180, 50%, 82%)"/><circle cx="62.56375246699404" cy="53.1194342753671" r="3" fill="hsl(51, 90%, 71%)"/><circle cx="109.77926815227619" cy="95.4863404412936" r="3" fill="hsl(262, 48%, 85%)"/><circle cx="60.80493235662875" cy="65.05567138112465" r="3" fill="hsl(51, 90%, 71%)"/><circle cx="108.63714966737726" cy="101.02842264763468" r="3" fill="hsl(262, 48%, 85%)"/><circle cx="46.31201118744412" cy="76.1244740055236" r="3" fill="hsl(180, 50%, 82%)"/><circle cx="53.074259002281075" cy="84.20863708632827" r="3" fill="hsl(180, 50%, 82%)"/><circle cx="94.44391676129571" cy="80.35116074542348" r="3" fill="hsl(262, 48%, 85%)"/><circle cx="21.18208401929624" cy="37.75338379701823" r="3" fill="hsl(180, 50%, 82%)"/><circle cx="101.78228362276859" cy="94.3239354337786" r="3" fill="hsl(262, 48%, 85%)"/><circle cx="50.7568380894712" cy="33.10825395854987" r="3" fill="hsl(51, 90%, 71%)"/><circle cx="113.85672123129832" cy="110.2435639481477" r="3" fill="hsl(262, 48%, 85%)"/><circle cx="39.65971024275303" cy="61.69129141996964" r="3" fill="hsl(180, 50%, 82%)"/><circle cx="55.590664307782376" cy="43.38378142177191" r="3" fill="hsl(51, 90%, 71%)"/><circle cx="54.687405711679816" cy="48.90080128486025" r="3" fill="hsl(51, 90%, 71%)"/><circle cx="69.36534776943019" cy="66.39894618280282" r="3" fill="hsl(51, 90%, 71%)"/><circle cx="112.86350230169855" cy="104.29142285166982" r="3" fill="hsl(262, 48%, 85%)"/><circle cx="58.96058218945961" cy="99.23772310914775" r="3" fill="hsl(180, 50%, 82%)"/><circle cx="24.92190166764459" cy="45.75992758857221" r="3" fill="hsl(180, 50%, 82%)"/><circle cx="48.419534371062234" cy="29.577688174721448" r="3" fill="hsl(51, 90%, 71%)"/><circle cx="106.72941704383668" cy="95.58761775353526" r="3" fill="hsl(262, 48%, 85%)"/><circle cx="56.76737837609738" cy="50.54255853070489" r="3" fill="hsl(51, 90%, 71%)"/><circle cx="45.97510142353973" cy="68.78131488115616" r="3" fill="hsl(180, 50%, 82%)"/><circle cx="66.61931530835813" cy="99.56151033182881" r="3" fill="hsl(180, 50%, 82%)"/><circle cx="111.20800534596759" cy="107.96457886282737" r="3" fill="hsl(262, 48%, 85%)"/><circle cx="34.385719121900976" cy="53.728318451349324" r="3" fill="hsl(180, 50%, 82%)"/><circle cx="48.12611611881146" cy="80.48031524504712" r="3" fill="hsl(180, 50%, 82%)"/><circle cx="50.98064043778429" cy="83.92601318556981" r="3" fill="hsl(180, 50%, 82%)"/><circle cx="99.96845631352014" cy="95.53653699040282" r="3" fill="hsl(262, 48%, 85%)"/><circle cx="115.89673931725423" cy="112.67932751060572" r="3" fill="hsl(262, 48%, 85%)"/><circle cx="56.03464960650641" cy="42.41399159931498" r="3" fill="hsl(51, 90%, 71%)"/><circle cx="50.80327029510863" cy="77.3327987972632" r="3" fill="hsl(180, 50%, 82%)"/><circle cx="52.67157315987639" cy="45.13109455842158" r="3" fill="hsl(51, 90%, 71%)"/><circle cx="44.531991401988186" cy="62.14931670860375" r="3" fill="hsl(180, 50%, 82%)"/><circle cx="131.1619953432228" cy="128.17404903131066" r="3" fill="hsl(262, 48%, 85%)"/><circle cx="113.0262375907187" cy="106.63359005344134" r="3" fill="hsl(262, 48%, 85%)"/><circle cx="51.49416409277357" cy="82.42474182568377" r="3" fill="hsl(180, 50%, 82%)"/><circle cx="71.34099224244824" cy="70.77318462575015" r="3" fill="hsl(51, 90%, 71%)"/><circle cx="123.07771724590924" cy="133.83908390698087" r="3" fill="hsl(262, 48%, 85%)"/><circle cx="32.900107199993926" cy="47.57565711410649" r="3" fill="hsl(180, 50%, 82%)"/><circle cx="49.513639006213175" cy="47.18715875841037" r="3" fill="hsl(51, 90%, 71%)"/><circle cx="117.89235979429954" cy="106.51231650909055" r="3" fill="hsl(262, 48%, 85%)"/><circle cx="45.49985439579277" cy="31.71052133569852" r="3" fill="hsl(51, 90%, 71%)"/><circle cx="100.58119581659979" cy="88.3823730395969" r="3" fill="hsl(262, 48%, 85%)"/><circle cx="104.16855090194429" cy="97.4031671522109" r="3" fill="hsl(262, 48%, 85%)"/><circle cx="55.492147380618746" cy="85.31833947499422" r="3" fill="hsl(180, 50%, 82%)"/><circle cx="69.72837451528595" cy="97.74580077295425" r="3" fill="hsl(180, 50%, 82%)"/><circle cx="44.187570450183244" cy="66.35921973461438" r="3" fill="hsl(180, 50%, 82%)"/><circle cx="111.44809643560833" cy="96.7047974774026" r="3" fill="hsl(262, 48%, 85%)"/><circle cx="52.16392404952362" cy="41.095872680781845" r="3" fill="hsl(51, 90%, 71%)"/><circle cx="59.23867071627541" cy="82.409166760852" r="3" fill="hsl(180, 50%, 82%)"/><circle cx="27.616742601003452" cy="48.10254083754294" r="3" fill="hsl(180, 50%, 82%)"/><circle cx="107.4459559602" cy="90.11818602062732" r="3" fill="hsl(262, 48%, 85%)"/><circle cx="45.01289627846285" cy="30.157657652224813" r="3" fill="hsl(51, 90%, 71%)"/><circle cx="64.17710631492292" cy="59.243805209735925" r="3" fill="hsl(51, 90%, 71%)"/><circle cx="45.96389212430934" cy="33.8150144531789" r="3" fill="hsl(51, 90%, 71%)"/><circle cx="75.05416794400396" cy="68.20448938778163" r="3" fill="hsl(51, 90%, 71%)"/><circle cx="51.836575910002786" cy="48.184873792460266" r="3" fill="hsl(51, 90%, 71%)"/><circle cx="110.58607468524237" cy="111.02790775140879" r="3" fill="hsl(262, 48%, 85%)"/><circle cx="34.67456926617765" cy="60.16331016487843" r="3" fill="hsl(180, 50%, 82%)"/><circle cx="56.15552141173698" cy="55.31311424414782" r="3" fill="hsl(51, 90%, 71%)"/><circle cx="54.62458323060733" cy="71.22704858308529" r="3" fill="hsl(180, 50%, 82%)"/><circle cx="45.01690971222478" cy="68.47744491753541" r="3" fill="hsl(180, 50%, 82%)"/><circle cx="45.430330182815" cy="28.287124880684757" r="3" fill="hsl(51, 90%, 71%)"/><circle cx="23.708329233557826" cy="42.515762691482756" r="3" fill="hsl(180, 50%, 82%)"/><circle cx="59.005181218500425" cy="53.97617689235872" r="3" fill="hsl(51, 90%, 71%)"/><circle cx="43.7803821132276" cy="68.0965992276612" r="3" fill="hsl(180, 50%, 82%)"/><circle cx="28.383638137517647" cy="49.83666084074034" r="3" fill="hsl(180, 50%, 82%)"/><circle cx="58.78615066024992" cy="53.171204233477255" r="3" fill="hsl(51, 90%, 71%)"/><circle cx="68.10490380024777" cy="60.43570538272794" r="3" fill="hsl(51, 90%, 71%)"/><circle cx="59.44798504166282" cy="90.78274758718834" r="3" fill="hsl(180, 50%, 82%)"/><circle cx="30.0700336554899" cy="53.32602508289977" r="3" fill="hsl(180, 50%, 82%)"/><circle cx="20.853654240340436" cy="38.97829085623033" r="3" fill="hsl(180, 50%, 82%)"/><circle cx="58.49107702949082" cy="86.34588772097884" r="3" fill="hsl(180, 50%, 82%)"/><circle cx="88.22111575504239" cy="70.88078809213657" r="3" fill="hsl(262, 48%, 85%)"/><circle cx="62.04648937306358" cy="93.04605712074732" r="3" fill="hsl(180, 50%, 82%)"/><circle cx="41.0775968738233" cy="65.44142281731587" r="3" fill="hsl(180, 50%, 82%)"/><circle cx="97.53773651700055" cy="84.99641617083972" r="3" fill="hsl(262, 48%, 85%)"/><circle cx="59.259780493643134" cy="48.1215489283038" r="3" fill="hsl(51, 90%, 71%)"/><circle cx="54.05409367203592" cy="41.031587012951" r="3" fill="hsl(51, 90%, 71%)"/><circle cx="49.76843721726314" cy="81.47347794692637" r="3" fill="hsl(180, 50%, 82%)"/><circle cx="57.08386742982931" cy="55.579803507958864" r="3" fill="hsl(51, 90%, 71%)"/><circle cx="52.710328891359914" cy="46.69301298149053" r="3" fill="hsl(51, 90%, 71%)"/><circle cx="125.9535631982331" cy="119.76863704924811" r="3" fill="hsl(262, 48%, 85%)"/><circle cx="112.789738998913" cy="106.464418797787" r="3" fill="hsl(262, 48%, 85%)"/><circle cx="45.028779869187694" cy="61.994094039539206" r="3" fill="hsl(180, 50%, 82%)"/><circle cx="54.024514581445416" cy="83.94734473423644" r="3" fill="hsl(180, 50%, 82%)"/><circle cx="66.00397337234277" cy="97.33192828466947" r="3" fill="hsl(180, 50%, 82%)"/><circle cx="47.69296439080513" cy="63.43484604749094" r="3" fill="hsl(180, 50%, 82%)"/><circle cx="62.621245654831874" cy="47.346289460577424" r="3" fill="hsl(51, 90%, 71%)"/><circle cx="47.00072631101214" cy="31.12623608302401" r="3" fill="hsl(51, 90%, 71%)"/><circle cx="51.33342361208912" cy="40.23226490110571" r="3" fill="hsl(51, 90%, 71%)"/><circle cx="57.93317508295683" cy="79.65679507853254" r="3" fill="hsl(180, 50%, 82%)"/><circle cx="101.17500954622354" cy="90.1905735400857" r="3" fill="hsl(262, 48%, 85%)"/><circle cx="64.98121330950642" cy="52.96244773895156" r="3" fill="hsl(51, 90%, 71%)"/><circle cx="48.15706102398211" cy="33.01240363241298" r="3" fill="hsl(51, 90%, 71%)"/><circle cx="36.50645813716593" cy="60.13864316826009" r="3" fill="hsl(180, 50%, 82%)"/><circle cx="79.82163528783619" cy="76.38132197318919" r="3" fill="hsl(51, 90%, 71%)"/><circle cx="121.48817626089267" cy="120.68039263062718" r="3" fill="hsl(262, 48%, 85%)"/><circle cx="53.255300339587464" cy="46.006059534023265" r="3" fill="hsl(51, 90%, 71%)"/><circle cx="103.16573883779299" cy="89.31587906318566" r="3" fill="hsl(262, 48%, 85%)"/><circle cx="39.21488444205106" cy="59.55573824435184" r="3" fill="hsl(180, 50%, 82%)"/><circle cx="44.84631277994188" cy="63.58957131663259" r="3" fill="hsl(180, 50%, 82%)"/><circle cx="45.02193198393049" cy="75.61346968280071" r="3" fill="hsl(180, 50%, 82%)"/><circle cx="56.418214332069944" cy="88.71157442161096" r="3" fill="hsl(180, 50%, 82%)"/><circle cx="123.48609955362939" cy="117.13421443814504" r="3" fill="hsl(262, 48%, 85%)"/><circle cx="95.75321209599569" cy="87.04124146297164" r="3" fill="hsl(262, 48%, 85%)"/><circle cx="53.46163634174204" cy="81.44808778712955" r="3" fill="hsl(180, 50%, 82%)"/><circle cx="43.16509999965922" cy="69.90160612106412" r="3" fill="hsl(180, 50%, 82%)"/><circle cx="64.89461492797675" cy="52.004597822962495" r="3" fill="hsl(51, 90%, 71%)"/><circle cx="68.71770403751296" cy="71.11335989770345" r="3" fill="hsl(51, 90%, 71%)"/><circle cx="96.07118487946886" cy="74.67504203290098" r="3" fill="hsl(262, 48%, 85%)"/><circle cx="64.10922820733161" cy="59.62925345831597" r="3" fill="hsl(51, 90%, 71%)"/><circle cx="59.866890458762136" cy="87.73088890938912" r="3" fill="hsl(180, 50%, 82%)"/><circle cx="118.84220652147472" cy="104.3445103531691" r="3" fill="hsl(262, 48%, 85%)"/><circle cx="53.5042760219701" cy="80.33255519712628" r="3" fill="hsl(180, 50%, 82%)"/><circle cx="100.69255071950764" cy="84.79839107505002" r="3" fill="hsl(262, 48%, 85%)"/><circle cx="114.72868596072824" cy="101.53164027927076" r="3" fill="hsl(262, 48%, 85%)"/><circle cx="119.20235742774369" cy="105.74688888635906" r="3" fill="hsl(262, 48%, 85%)"/><circle cx="46.8984940507906" cy="29.712553409900238" r="3" fill="hsl(51, 90%, 71%)"/><circle cx="46.51885937951628" cy="34.45372270351147" r="3" fill="hsl(51, 90%, 71%)"/><circle cx="63.07199726164942" cy="95.98242359956193" r="3" fill="hsl(180, 50%, 82%)"/><circle cx="37.128258116878385" cy="18.39064162676202" r="3" fill="hsl(51, 90%, 71%)"/><circle cx="114.0428077970705" cy="101.20347613306308" r="3" fill="hsl(262, 48%, 85%)"/><circle cx="36.76494122194878" cy="60.24475744540787" r="3" fill="hsl(180, 50%, 82%)"/><circle cx="38.598900838660754" cy="54.635195288436975" r="3" fill="hsl(180, 50%, 82%)"/><circle cx="76.27876829578288" cy="67.24471222466849" r="3" fill="hsl(51, 90%, 71%)"/><circle cx="96.87165919168112" cy="74.96116295948268" r="3" fill="hsl(262, 48%, 85%)"/><circle cx="63.10662702996894" cy="93.90848427800225" r="3" fill="hsl(180, 50%, 82%)"/><circle cx="65.7614280216439" cy="83.1203114234176" r="3" fill="hsl(180, 50%, 82%)"/><circle cx="55.43858846404989" cy="43.91026495375519" r="3" fill="hsl(51, 90%, 71%)"/><circle cx="107.14362681389395" cy="96.09708928953906" r="3" fill="hsl(262, 48%, 85%)"/><circle cx="52.07963468139068" cy="77.9730307997804" r="3" fill="hsl(180, 50%, 82%)"/><circle cx="120.69859063497594" cy="111.5149339854234" r="3" fill="hsl(262, 48%, 85%)"/><circle cx="45.0262844120626" cy="23.38565974058452" r="3" fill="hsl(51, 90%, 71%)"/><circle cx="117.31437398340528" cy="106.8918219315943" r="3" fill="hsl(262, 48%, 85%)"/><circle cx="120.57759749745472" cy="110.54911526262525" r="3" fill="hsl(262, 48%, 85%)"/><circle cx="115.60454053269514" cy="108.53895559694377" r="3" fill="hsl(262, 48%, 85%)"/><circle cx="54.31478106543525" cy="80.63341307611032" r="3" fill="hsl(180, 50%, 82%)"/><circle cx="112.05172596659706" cy="93.20071987391377" r="3" fill="hsl(262, 48%, 85%)"/><circle cx="64.26322180161675" cy="95.71420700037301" r="3" fill="hsl(180, 50%, 82%)"/><circle cx="103.58404539991683" cy="91.94656199974301" r="3" fill="hsl(262, 48%, 85%)"/><circle cx="52.53496437692218" cy="42.83960782969582" r="3" fill="hsl(51, 90%, 71%)"/><circle cx="48.599258785956934" cy="39.293753640910396" r="3" fill="hsl(51, 90%, 71%)"/><circle cx="69.93296082313294" cy="62.42233354128785" r="3" fill="hsl(51, 90%, 71%)"/><circle cx="49.51538260563176" cy="82.51795749638" r="3" fill="hsl(180, 50%, 82%)"/><circle cx="42.97456352684288" cy="24.31889854687574" r="3" fill="hsl(51, 90%, 71%)"/><circle cx="49.91890187988265" cy="48.13750996811502" r="3" fill="hsl(51, 90%, 71%)"/><circle cx="54.4659289846178" cy="78.95000900985553" r="3" fill="hsl(180, 50%, 82%)"/><circle cx="74.39622464799552" cy="69.34299719047725" r="3" fill="hsl(51, 90%, 71%)"/><circle cx="63.27515827569426" cy="55.20138135808099" r="3" fill="hsl(51, 90%, 71%)"/><circle cx="62.77858660570786" cy="54.8764365505263" r="3" fill="hsl(51, 90%, 71%)"/><circle cx="10" cy="20.038872542724057" r="3" fill="hsl(180, 50%, 82%)"/><circle cx="94.8829951103879" cy="86.05789387666746" r="3" fill="hsl(262, 48%, 85%)"/><circle cx="58.427337699299294" cy="51.21757075708162" r="3" fill="hsl(51, 90%, 71%)"/><circle cx="113.34783049332005" cy="98.79971823402454" r="3" fill="hsl(262, 48%, 85%)"/><circle cx="61.11930797168582" cy="53.85513684295243" r="3" fill="hsl(51, 90%, 71%)"/><circle cx="63.930495134979864" cy="101.90355222488724" r="3" fill="hsl(180, 50%, 82%)"/><circle cx="46.09490502198082" cy="70.5422695126643" r="3" fill="hsl(180, 50%, 82%)"/><circle cx="60.27066914606508" cy="54.103587514845394" r="3" fill="hsl(51, 90%, 71%)"/><circle cx="63.55146451997553" cy="54.87522777486465" r="3" fill="hsl(51, 90%, 71%)"/><circle cx="57.038675782830424" cy="76.27736428078147" r="3" fill="hsl(180, 50%, 82%)"/><circle cx="97.62483945433847" cy="88.61305459590831" r="3" fill="hsl(262, 48%, 85%)"/><circle cx="114.81899910831422" cy="100.07046891620335" r="3" fill="hsl(262, 48%, 85%)"/><circle cx="58.43201909570159" cy="92.9771084524833" r="3" fill="hsl(180, 50%, 82%)"/><circle cx="40.34687625600531" cy="70.54608978108696" r="3" fill="hsl(180, 50%, 82%)"/><circle cx="75.89371781892845" cy="65.6473229488961" r="3" fill="hsl(51, 90%, 71%)"/><circle cx="104.40059941736132" cy="94.64071750339156" r="3" fill="hsl(262, 48%, 85%)"/><circle cx="43.0737555260907" cy="72.36877855536265" r="3" fill="hsl(180, 50%, 82%)"/><circle cx="46.27416934759937" cy="69.96351061714066" r="3" fill="hsl(180, 50%, 82%)"/><circle cx="23.309904237189627" cy="39.78270519207116" r="3" fill="hsl(180, 50%, 82%)"/><circle cx="44.000154043435344" cy="34.96875060038886" r="3" fill="hsl(51, 90%, 71%)"/><circle cx="48.33484444428329" cy="71.85658008123508" r="3" fill="hsl(180, 50%, 82%)"/><circle cx="103.96699679004048" cy="97.47821274888653" r="3" fill="hsl(262, 48%, 85%)"/><circle cx="55.4447846376881" cy="81.51765665697201" r="3" fill="hsl(180, 50%, 82%)"/><circle cx="101.5076534366774" cy="83.84209366511998" r="3" fill="hsl(262, 48%, 85%)"/><circle cx="64.08835610493128" cy="60.18913821768087" r="3" fill="hsl(51, 90%, 71%)"/><circle cx="101.359679938603" cy="82.33076048076926" r="3" fill="hsl(262, 48%, 85%)"/><circle cx="122.3220794063685" cy="115.562791132783" r="3" fill="hsl(262, 48%, 85%)"/><circle cx="58.31902516509904" cy="80.08588330243686" r="3" fill="hsl(180, 50%, 82%)"/><circle cx="34.8369614209601" cy="13.852763576188973" r="3" fill="hsl(51, 90%, 71%)"/><circle cx="56.95691135590488" cy="46.21870364451636" r="3" fill="hsl(51, 90%, 71%)"/><circle cx="72.78919016424868" cy="110.25057656791921" r="3" fill="hsl(180, 50%, 82%)"/><circle cx="45.59902474011615" cy="41.37711365002725" r="3" fill="hsl(51, 90%, 71%)"/><circle cx="52.65622554138349" cy="77.57314498975542" r="3" fill="hsl(180, 50%, 82%)"/><circle cx="29.746640512279896" cy="45.136574663820234" r="3" fill="hsl(180, 50%, 82%)"/><circle cx="110.87631981519661" cy="92.06861210038453" r="3" fill="hsl(262, 48%, 85%)"/><circle cx="60.487982581602886" cy="85.67017500093576" r="3" fill="hsl(180, 50%, 82%)"/><circle cx="112.15659591666869" cy="109.40777734527312" r="3" fill="hsl(262, 48%, 85%)"/><circle cx="59.75277907841666" cy="60.4412543343117" r="3" fill="hsl(51, 90%, 71%)"/><circle cx="29.631522772165567" cy="46.880554890490664" r="3" fill="hsl(180, 50%, 82%)"/><circle cx="118.50274459121496" cy="108.35014912399494" r="3" fill="hsl(262, 48%, 85%)"/><circle cx="101.513438807841" cy="90.53261651102581" r="3" fill="hsl(262, 48%, 85%)"/><circle cx="65.56561067450404" cy="105.33406728210761" r="3" fill="hsl(180, 50%, 82%)"/><circle cx="36.14822115305492" cy="24.940309751877226" r="3" fill="hsl(51, 90%, 71%)"/><circle cx="55.686448071101445" cy="92.28338177906132" r="3" fill="hsl(180, 50%, 82%)"/><circle cx="60.48172857833927" cy="48.710684184644684" r="3" fill="hsl(51, 90%, 71%)"/><circle cx="111.33280725387148" cy="95.25614097463" r="3" fill="hsl(262, 48%, 85%)"/><circle cx="70.62318820644984" cy="104.4763565345917" r="3" fill="hsl(180, 50%, 82%)"/><circle cx="110.75960865245884" cy="95.01102433448835" r="3" fill="hsl(262, 48%, 85%)"/><circle cx="45.063119790834214" cy="68.7549060522058" r="3" fill="hsl(180, 50%, 82%)"/><circle cx="107.96884664916568" cy="97.34464348580252" r="3" fill="hsl(262, 48%, 85%)"/><circle cx="71.19649563739026" cy="66.28419228355904" r="3" fill="hsl(51, 90%, 71%)"/><circle cx="118.07075001818237" cy="115.2314449888" r="3" fill="hsl(262, 48%, 85%)"/><circle cx="116.42003282531225" cy="106.25344557858297" r="3" fill="hsl(262, 48%, 85%)"/><circle cx="98.89554603271695" cy="83.62401671675832" r="3" fill="hsl(262, 48%, 85%)"/><circle cx="105.35406001152721" cy="97.92324723524233" r="3" fill="hsl(262, 48%, 85%)"/><circle cx="124.45482843293873" cy="116.42706930818564" r="3" fill="hsl(262, 48%, 85%)"/><circle cx="59.577787833972764" cy="81.80464851002469" r="3" fill="hsl(180, 50%, 82%)"/><circle cx="46.24037670495236" cy="71.92390059890401" r="3" fill="hsl(180, 50%, 82%)"/><circle cx="42.854523118300826" cy="41.86882072094554" r="3" fill="hsl(51, 90%, 71%)"/><circle cx="43.100421435126194" cy="59.49281712834319" r="3" fill="hsl(180, 50%, 82%)"/><circle cx="128.9580725312627" cy="128.94581413631835" r="3" fill="hsl(262, 48%, 85%)"/><circle cx="50.598098510499504" cy="41.22790193776319" r="3" fill="hsl(51, 90%, 71%)"/><circle cx="107.57223792065089" cy="97.94078488449082" r="3" fill="hsl(262, 48%, 85%)"/><circle cx="39.21157222443829" cy="61.34701602690275" r="3" fill="hsl(180, 50%, 82%)"/><circle cx="60.23906946595487" cy="93.61163495143747" r="3" fill="hsl(180, 50%, 82%)"/><circle cx="53.34374442315667" cy="82.16971117442282" r="3" fill="hsl(180, 50%, 82%)"/><circle cx="37.609504320745735" cy="65.48148644781475" r="3" fill="hsl(180, 50%, 82%)"/><circle cx="49.16186942812941" cy="37.744181896236476" r="3" fill="hsl(51, 90%, 71%)"/><circle cx="125.4601952036125" cy="113.54644334686391" r="3" fill="hsl(262, 48%, 85%)"/><circle cx="52.39703935044619" cy="44.59057643290602" r="3" fill="hsl(51, 90%, 71%)"/><circle cx="56.29065975244301" cy="46.96418683980995" r="3" fill="hsl(51, 90%, 71%)"/><circle cx="109.82614292910887" cy="90.86680226350803" r="3" fill="hsl(262, 48%, 85%)"/><circle cx="50.72076092033584" cy="77.68433126808634" r="3" fill="hsl(180, 50%, 82%)"/><circle cx="103.9127499644716" cy="85.51826419611076" r="3" fill="hsl(262, 48%, 85%)"/><circle cx="119.14910654725863" cy="101.49799812262839" r="3" fill="hsl(262, 48%, 85%)"/><circle cx="51.793732565830275" cy="40.10583696273753" r="3" fill="hsl(51, 90%, 71%)"/><circle cx="125.20871540788059" cy="116.45671500605398" r="3" fill="hsl(262, 48%, 85%)"/><circle cx="106.03256099017042" cy="93.87901184092304" r="3" fill="hsl(262, 48%, 85%)"/><circle cx="120.53952137255605" cy="112.75347290874208" r="3" fill="hsl(262, 48%, 85%)"/><circle cx="35.429316768081335" cy="59.22213801125852" r="3" fill="hsl(180, 50%, 82%)"/><circle cx="56.720122173520096" cy="92.10908483762753" r="3" fill="hsl(180, 50%, 82%)"/><circle cx="99.90340715977676" cy="81.83942852484007" r="3" fill="hsl(262, 48%, 85%)"/><circle cx="102.12544544247517" cy="95.23742146047258" r="3" fill="hsl(262, 48%, 85%)"/><circle cx="63.507636003749305" cy="58.78503797339351" r="3" fill="hsl(51, 90%, 71%)"/><circle cx="61.42595740091427" cy="57.233406293035365" r="3" fill="hsl(51, 90%, 71%)"/><circle cx="115.42992241309268" cy="104.05941318493521" r="3" fill="hsl(262, 48%, 85%)"/><circle cx="46.52858289116767" cy="74.1529037586734" r="3" fill="hsl(180, 50%, 82%)"/><circle cx="131.7028336870904" cy="125.6162932543003" r="3" fill="hsl(262, 48%, 85%)"/><circle cx="51.849091357102786" cy="34.31479594972232" r="3" fill="hsl(51, 90%, 71%)"/><circle cx="109.07720330606361" cy="102.81937956362314" r="3" fill="hsl(262, 48%, 85%)"/><circle cx="52.4187564817651" cy="38.7138270351216" r="3" fill="hsl(51, 90%, 71%)"/><circle cx="111.61148377644845" cy="100.37232344257117" r="3" fill="hsl(262, 48%, 85%)"/><circle cx="46.475506825586514" cy="68.24871010981103" r="3" fill="hsl(180, 50%, 82%)"/><circle cx="113.04023023570171" cy="102.01015142997228" r="3" fill="hsl(262, 48%, 85%)"/><circle cx="67.53825906579969" cy="59.71050955178514" r="3" fill="hsl(51, 90%, 71%)"/><circle cx="123.06657248506696" cy="129.31608171275312" r="3" fill="hsl(262, 48%, 85%)"/><circle cx="57.42849429997698" cy="42.82150723193701" r="3" fill="hsl(51, 90%, 71%)"/><circle cx="36.42759838223564" cy="47.00814851640113" r="3" fill="hsl(180, 50%, 82%)"/><circle cx="31.562987747417765" cy="11.702396101836792" r="3" fill="hsl(51, 90%, 71%)"/><circle cx="32.71605962785681" cy="65.83266592257984" r="3" fill="hsl(180, 50%, 82%)"/><circle cx="98.66622322393964" cy="85.20803783171908" r="3" fill="hsl(262, 48%, 85%)"/><circle cx="37.75225190585001" cy="19.762178254096817" r="3" fill="hsl(51, 90%, 71%)"/><circle cx="99.93758196905041" cy="77.39418799069996" r="3" fill="hsl(262, 48%, 85%)"/><circle cx="46.68814589705366" cy="76.22262488598355" r="3" fill="hsl(180, 50%, 82%)"/><circle cx="52.070335489531615" cy="81.47350794917698" r="3" fill="hsl(180, 50%, 82%)"/><circle cx="121.62602150344198" cy="109.54264607678878" r="3" fill="hsl(262, 48%, 85%)"/><circle cx="48.54992299091928" cy="42.975489143058496" r="3" fill="hsl(51, 90%, 71%)"/><circle cx="51.74061518170979" cy="44.338402852690734" r="3" fill="hsl(51, 90%, 71%)"/><circle cx="51.04832090676797" cy="36.63377823072474" r="3" fill="hsl(51, 90%, 71%)"/><circle cx="53.60948664624858" cy="86.16894633436118" r="3" fill="hsl(180, 50%, 82%)"/><circle cx="55.804379942886335" cy="85.46914239150972" r="3" fill="hsl(180, 50%, 82%)"/><circle cx="52.16567270508431" cy="38.8265071605479" r="3" fill="hsl(51, 90%, 71%)"/><circle cx="119.23657657956515" cy="104.4948011645369" r="3" fill="hsl(262, 48%, 85%)"/><circle cx="52.09072058898068" cy="41.24211067978612" r="3" fill="hsl(51, 90%, 71%)"/><circle cx="44.44908597131797" cy="64.56339343421229" r="3" fill="hsl(180, 50%, 82%)"/><circle cx="101.69726700630983" cy="83.01661784356024" r="3" fill="hsl(262, 48%, 85%)"/><circle cx="92.38773566925904" cy="74.4722288473141" r="3" fill="hsl(262, 48%, 85%)"/><circle cx="44.172788454325065" cy="63.50764355550641" r="3" fill="hsl(180, 50%, 82%)"/><circle cx="114.09461998134802" cy="108.14549203806617" r="3" fill="hsl(262, 48%, 85%)"/><circle cx="54.363102452305576" cy="43.228835247442746" r="3" fill="hsl(51, 90%, 71%)"/><circle cx="116.37998353490627" cy="111.95532512738379" r="3" fill="hsl(262, 48%, 85%)"/><circle cx="53.92940989399772" cy="46.76228676344625" r="3" fill="hsl(51, 90%, 71%)"/><circle cx="120.26670467223047" cy="110.59310156373292" r="3" fill="hsl(262, 48%, 85%)"/><circle cx="40.962504741012445" cy="32.59903709425088" r="3" fill="hsl(51, 90%, 71%)"/><circle cx="49.94761210632005" cy="54.05594465926436" r="3" fill="hsl(51, 90%, 71%)"/><circle cx="56.87644613977356" cy="55.33600514286082" r="3" fill="hsl(51, 90%, 71%)"/><circle cx="52.69762557622356" cy="39.05648641834709" r="3" fill="hsl(51, 90%, 71%)"/><circle cx="128.48107434710005" cy="121.76897170214497" r="3" fill="hsl(262, 48%, 85%)"/><circle cx="60.11141623107659" cy="82.46910851793689" r="3" fill="hsl(180, 50%, 82%)"/><circle cx="54.45841524294211" cy="75.89348385589624" r="3" fill="hsl(180, 50%, 82%)"/><circle cx="51.997597733848494" cy="72.80157124165208" r="3" fill="hsl(180, 50%, 82%)"/><circle cx="83.46116977036313" cy="68.35958230226476" r="3" fill="hsl(262, 48%, 85%)"/><circle cx="56.6684954471442" cy="46.494391288444604" r="3" fill="hsl(51, 90%, 71%)"/><circle cx="118.82897383854083" cy="113.38194724122935" r="3" fill="hsl(262, 48%, 85%)"/><circle cx="127.62337704371606" cy="125.32024350832454" r="3" fill="hsl(262, 48%, 85%)"/><circle cx="112.43555861930842" cy="106.29714823034593" r="3" fill="hsl(262, 48%, 85%)"/><circle cx="49.63710756226756" cy="72.84179046282165" r="3" fill="hsl(180, 50%, 82%)"/><circle cx="30.717500011168053" cy="55.0808242109448" r="3" fill="hsl(180, 50%, 82%)"/><circle cx="69.50957865335451" cy="102.04484624457889" r="3" fill="hsl(180, 50%, 82%)"/><circle cx="48.73243105699146" cy="46.88504908483594" r="3" fill="hsl(51, 90%, 71%)"/><circle cx="49.022249564370945" cy="34.41173911593485" r="3" fill="hsl(51, 90%, 71%)"/><circle cx="41.40985741375119" cy="59.32918145575263" r="3" fill="hsl(180, 50%, 82%)"/><circle cx="49.6492546760675" cy="37.613300522714034" r="3" fill="hsl(51, 90%, 71%)"/><circle cx="126.31153934952009" cy="122.15955881806248" r="3" fill="hsl(262, 48%, 85%)"/><circle cx="43.76565384492738" cy="60.89334290478598" r="3" fill="hsl(180, 50%, 82%)"/><circle cx="96.27310847681993" cy="73.43764149183777" r="3" fill="hsl(262, 48%, 85%)"/><circle cx="52.594311744607246" cy="53.023355873239815" r="3" fill="hsl(51, 90%, 71%)"/><circle cx="49.09869653705489" cy="77.50881112841729" r="3" fill="hsl(180, 50%, 82%)"/><circle cx="46.321380159809955" cy="75.34512273575719" r="3" fill="hsl(180, 50%, 82%)"/><circle cx="63.4885711198571" cy="60.91672407825539" r="3" fill="hsl(51, 90%, 71%)"/><circle cx="43.080611285865885" cy="75.43972122608368" r="3" fill="hsl(180, 50%, 82%)"/><circle cx="68.9496842617474" cy="56.579263960478244" r="3" fill="hsl(51, 90%, 71%)"/><circle cx="28.59546091419443" cy="11.434947675090818" r="3" fill="hsl(51, 90%, 71%)"/><circle cx="108.21186287426683" cy="95.93033677617082" r="3" fill="hsl(262, 48%, 85%)"/><circle cx="63.88735494053081" cy="57.67337856059055" r="3" fill="hsl(51, 90%, 71%)"/><circle cx="60.206347155975294" cy="53.50963253532356" r="3" fill="hsl(51, 90%, 71%)"/><circle cx="59.48755818077182" cy="84.39314203443891" r="3" fill="hsl(180, 50%, 82%)"/><circle cx="46.752375388773274" cy="39.96548396702252" r="3" fill="hsl(51, 90%, 71%)"/><circle cx="41.29553863783485" cy="65.03966420586043" r="3" fill="hsl(180, 50%, 82%)"/><circle cx="73.63074234856184" cy="72.82929584742133" r="3" fill="hsl(51, 90%, 71%)"/><circle cx="74.9424767139014" cy="61.4075698357889" r="3" fill="hsl(51, 90%, 71%)"/><circle cx="64.69051949078784" cy="54.10227633699758" r="3" fill="hsl(51, 90%, 71%)"/><circle cx="34.755166723710055" cy="22.922894140516554" r="3" fill="hsl(51, 90%, 71%)"/><circle cx="65.5986769261316" cy="101.25367522603341" r="3" fill="hsl(180, 50%, 82%)"/><circle cx="89.00741628870209" cy="71.11720445352213" r="3" fill="hsl(262, 48%, 85%)"/><circle cx="61.142060417654406" cy="43.96841758595161" r="3" fill="hsl(51, 90%, 71%)"/><circle cx="134.88461604374058" cy="129.28423113947605" r="3" fill="hsl(262, 48%, 85%)"/><circle cx="37.99254181194969" cy="56.827350767489996" r="3" fill="hsl(180, 50%, 82%)"/><circle cx="42.92906506999566" cy="75.76274123026968" r="3" fill="hsl(180, 50%, 82%)"/><circle cx="124.01549228259098" cy="119.53759621377729" r="3" fill="hsl(262, 48%, 85%)"/><circle cx="45.220571866460354" cy="74.75102171682093" r="3" fill="hsl(180, 50%, 82%)"/><circle cx="57.27056475761018" cy="85.06975652674086" r="3" fill="hsl(180, 50%, 82%)"/><circle cx="46.160034361844005" cy="77.46195400351493" r="3" fill="hsl(180, 50%, 82%)"/><circle cx="105.59020472025718" cy="95.81619704861252" r="3" fill="hsl(262, 48%, 85%)"/><circle cx="63.46176797678257" cy="63.832537633053406" r="3" fill="hsl(51, 90%, 71%)"/><circle cx="120.56799868230337" cy="105.6145170325296" r="3" fill="hsl(262, 48%, 85%)"/><circle cx="46.852453094389205" cy="65.4363126567442" r="3" fill="hsl(180, 50%, 82%)"/><circle cx="51.61244849287841" cy="27.501456142410394" r="3" fill="hsl(51, 90%, 71%)"/><circle cx="61.98862509100597" cy="59.55454451986827" r="3" fill="hsl(51, 90%, 71%)"/><circle cx="124.41871305696873" cy="109.0931767410694" r="3" fill="hsl(262, 48%, 85%)"/><circle cx="116.30891321596515" cy="103.64235995166781" r="3" fill="hsl(262, 48%, 85%)"/><circle cx="51.55725708954509" cy="71.99564855370237" r="3" fill="hsl(180, 50%, 82%)"/><circle cx="46.03621938143071" cy="65.66246118066441" r="3" fill="hsl(180, 50%, 82%)"/><circle cx="30.239854150925673" cy="52.98815658359665" r="3" fill="hsl(180, 50%, 82%)"/><circle cx="126.94903180564799" cy="108.56467543259978" r="3" fill="hsl(262, 48%, 85%)"/><circle cx="56.360766480166646" cy="80.53380459857556" r="3" fill="hsl(180, 50%, 82%)"/><circle cx="112.18051601394433" cy="107.86912444273878" r="3" fill="hsl(262, 48%, 85%)"/><circle cx="131.03325624588174" cy="126.73903381582457" r="3" fill="hsl(262, 48%, 85%)"/><circle cx="31.865466842206338" cy="16.08084416822392" r="3" fill="hsl(51, 90%, 71%)"/><circle cx="52.142990143950776" cy="71.9982024135826" r="3" fill="hsl(180, 50%, 82%)"/><circle cx="126.19338324902135" cy="121.10149400809637" r="3" fill="hsl(262, 48%, 85%)"/><circle cx="56.24791000435575" cy="79.40284708012574" r="3" fill="hsl(180, 50%, 82%)"/><circle cx="49.92759568490801" cy="34.59351995537831" r="3" fill="hsl(51, 90%, 71%)"/><circle cx="107.51785348908993" cy="95.68196978229197" r="3" fill="hsl(262, 48%, 85%)"/><circle cx="100.33906525250663" cy="92.95486415968469" r="3" fill="hsl(262, 48%, 85%)"/><circle cx="116.8419328332978" cy="113.78862010798159" r="3" fill="hsl(262, 48%, 85%)"/><circle cx="106.1249687444187" cy="93.07118770660702" r="3" fill="hsl(262, 48%, 85%)"/><circle cx="44.192679479179105" cy="65.6774112785946" r="3" fill="hsl(180, 50%, 82%)"/><circle cx="66.10414923122465" cy="72.25775828752231" r="3" fill="hsl(51, 90%, 71%)"/><circle cx="43.95963808502283" cy="29.00572739318237" r="3" fill="hsl(51, 90%, 71%)"/><circle cx="52.45827199234526" cy="74.59710850172608" r="3" fill="hsl(180, 50%, 82%)"/><circle cx="63.72010065796963" cy="62.52560415271353" r="3" fill="hsl(51, 90%, 71%)"/><circle cx="42.63861599184018" cy="63.77700903479427" r="3" fill="hsl(180, 50%, 82%)"/><circle cx="48.57134588772895" cy="23.124931514716458" r="3" fill="hsl(51, 90%, 71%)"/><circle cx="106.08763793932029" cy="95.47040124953938" r="3" fill="hsl(262, 48%, 85%)"/><circle cx="29.19638348134772" cy="10" r="3" fill="hsl(51, 90%, 71%)"/><circle cx="46.59073722362329" cy="43.99890274473133" r="3" fill="hsl(51, 90%, 71%)"/><circle cx="67.38470435795554" cy="60.53376141603367" r="3" fill="hsl(51, 90%, 71%)"/><circle cx="39.95991048560508" cy="69.2524747370239" r="3" fill="hsl(180, 50%, 82%)"/><circle cx="104.40586748198508" cy="101.59900269409636" r="3" fill="hsl(262, 48%, 85%)"/><circle cx="102.94602031913432" cy="90.7643888567193" r="3" fill="hsl(262, 48%, 85%)"/><circle cx="40.88204929091639" cy="61.040351888024134" r="3" fill="hsl(180, 50%, 82%)"/><circle cx="55.92071472392556" cy="48.84777838830547" r="3" fill="hsl(51, 90%, 71%)"/><circle cx="59.15582319687883" cy="90.67891397572741" r="3" fill="hsl(180, 50%, 82%)"/><circle cx="125.49216010380607" cy="117.19226027381198" r="3" fill="hsl(262, 48%, 85%)"/><circle cx="60.14327808364654" cy="56.32118046538956" r="3" fill="hsl(51, 90%, 71%)"/><circle cx="30.08598718094596" cy="43.28970807829764" r="3" fill="hsl(180, 50%, 82%)"/><circle cx="111.51324806543774" cy="100.60557761237767" r="3" fill="hsl(262, 48%, 85%)"/></g></svg>