<svg class="plot-5cdd96ba67c52" fill="currentColor" font-family="system-ui, sans-serif" font-size="10" text-anchor="middle" width="150" height="150" viewBox="0 0 150 150" xmlns="http://www.w3.org/2000/svg" xmlns:xlink="http://www.w3.org/1999/xlink"><style>
        .plot-5cdd96ba67c52 {
          display: block;
          background: white;
          height: auto;
          height: intrinsic;
          max-width: 100%;
        }
        .plot-5cdd96ba67c52 text,
        .plot-5cdd96ba67c52 tspan {
          white-space: pre;
        }
      </style><g aria-label="dot" fill-opacity="0.3" transform="translate(0.5,0.5)"><circle cx="124.70970468501541" cy="47.13963600605902" r="3" fill="hsl(262, 48%, 85%)"/><circle cx="108.19373973474742" cy="42.81316951908839" r="3" fill="hsl(262, 48%, 85%)"/><circle cx="64.35779145908333" cy="40.44203698959153" r="3" fill="hsl(51, 90%, 71%)"/><circle cx="128.99331775870797" cy="57.52867230437496" r="3" fill="hsl(262, 48%, 85%)"/><circle cx="22.81663510991916" cy="125.31915958896678" r="3" fill="hsl(180, 50%, 82%)"/><circle cx="62.850931488916586" cy="47.83682600540242" r="3" fill="hsl(51, 90%, 71%)"/><circle cx="124.70657853821142" cy="42.506609979014" r="3" fill="hsl(262, 48%, 85%)"/><circle cx="72.26197411669706" cy="74.24900549783769" r="3" fill="hsl(51, 90%, 71%)"/><circle cx="42.171369502144366" cy="109.00573552010263" r="3" fill="hsl(180, 50%, 82%)"/><circle cx="34.354662716195364" cy="89.77914590369359" r="3" fill="hsl(180, 50%, 82%)"/><circle cx="70.25348120117346" cy="70.5403654867841" r="3" fill="hsl(51, 90%, 71%)"/><circle cx="26.003781092547307" cy="96.05817997235131" r="3" fill="hsl(180, 50%, 82%)"/><circle cx="131.12744673720937" cy="27.85922304014163" r="3" fill="hsl(262, 48%, 85%)"/><circle cx="31.26681998060988" cy="98.02566720179054" r="3" fill="hsl(180, 50%, 82%)"/><circle cx="49.447806297278184" cy="40.85957247957746" r="3" fill="hsl(51, 90%, 71%)"/><circle cx="117.73243599345159" cy="44.59145498811889" r="3" fill="hsl(262, 48%, 85%)"/><circle cx="67.84635629739516" cy="32.13758671583284" r="3" fill="hsl(51, 90%, 71%)"/><circle cx="131.83557268931276" cy="32.95767885471374" r="3" fill="hsl(262, 48%, 85%)"/><circle cx="123.62231340356269" cy="46.31618845853998" r="3" fill="hsl(262, 48%, 85%)"/><circle cx="65.18880203732549" cy="47.861782852785105" r="3" fill="hsl(51, 90%, 71%)"/><circle cx="106.8726261998396" cy="29.375016376245963" r="3" fill="hsl(262, 48%, 85%)"/><circle cx="77.41291334379942" cy="38.84416128270663" r="3" fill="hsl(51, 90%, 71%)"/><circle cx="32.16553816582235" cy="131.46604721335868" r="3" fill="hsl(180, 50%, 82%)"/><circle cx="68.01440474214792" cy="49.72145087697643" r="3" fill="hsl(51, 90%, 71%)"/><circle cx="67.88474922324235" cy="48.09139946485968" r="3" fill="hsl(51, 90%, 71%)"/><circle cx="69.23041757381475" cy="34.22208157100684" r="3" fill="hsl(51, 90%, 71%)"/><circle cx="111.25226979725082" cy="39.42530098837072" r="3" fill="hsl(262, 48%, 85%)"/><circle cx="73.24647587846113" cy="60.900610437176255" r="3" fill="hsl(51, 90%, 71%)"/><circle cx="58.688036763957534" cy="40.80850792409743" r="3" fill="hsl(51, 90%, 71%)"/><circle cx="102.13000439558392" cy="38.88980059104945" r="3" fill="hsl(262, 48%, 85%)"/><circle cx="26.04397453177033" cy="95.26866484231095" r="3" fill="hsl(180, 50%, 82%)"/><circle cx="115.78321962084007" cy="28.690908862826195" r="3" fill="hsl(262, 48%, 85%)"/><circle cx="117.3338512368683" cy="34.811350159651994" r="3" fill="hsl(262, 48%, 85%)"/><circle cx="76.17187614282504" cy="24.513155658722376" r="3" fill="hsl(51, 90%, 71%)"/><circle cx="70.79099619917645" cy="45.03955699111396" r="3" fill="hsl(51, 90%, 71%)"/><circle cx="24.85492016344581" cy="102.75551866660332" r="3" fill="hsl(180, 50%, 82%)"/><circle cx="69.91560664660813" cy="59.77301922686917" r="3" fill="hsl(51, 90%, 71%)"/><circle cx="65.66257269539784" cy="63.78995144298854" r="3" fill="hsl(51, 90%, 71%)"/><circle cx="61.26868631677094" cy="52.08316112301254" r="3" fill="hsl(51, 90%, 71%)"/><circle cx="42.75848407978983" cy="104.99704227074888" r="3" fill="hsl(180, 50%, 82%)"/><circle cx="55.4215843852829" cy="39.16776894736813" r="3" fill="hsl(51, 90%, 71%)"/><circle cx="63.26773893986745" cy="26.0589817808415" r="3" fill="hsl(51, 90%, 71%)"/><circle cx="114.00493518430363" cy="24.095594518002535" r="3" fill="hsl(262, 48%, 85%)"/><circle cx="23.241160442403284" cy="106.10746310569114" r="3" fill="hsl(180, 50%, 82%)"/><circle cx="38.58899223899854" cy="113.3873935286308" r="3" fill="hsl(180, 50%, 82%)"/><circle cx="133.82685044827988" cy="56.71780457625938" r="3" fill="hsl(262, 48%, 85%)"/><circle cx="24.991074793372007" cy="120.1656021485441" r="3" fill="hsl(180, 50%, 82%)"/><circle cx="114.44455371385588" cy="33.078968287420174" r="3" fill="hsl(262, 48%, 85%)"/><circle cx="122.25347292587162" cy="52.38602013615418" r="3" fill="hsl(262, 48%, 85%)"/><circle cx="118.15074206025139" cy="39.27899940734695" r="3" fill="hsl(262, 48%, 85%)"/><circle cx="113.05551882922492" cy="47.276986885055884" r="3" fill="hsl(262, 48%, 85%)"/><circle cx="67.45293504427435" cy="31.462981999446992" r="3" fill="hsl(51, 90%, 71%)"/><circle cx="44.09265354455055" cy="130.01116094570625" r="3" fill="hsl(180, 50%, 82%)"/><circle cx="68.75473024460617" cy="38.88579270940265" r="3" fill="hsl(51, 90%, 71%)"/><circle cx="110.31686469190551" cy="19.04587578091514" r="3" fill="hsl(262, 48%, 85%)"/><circle cx="35.05105331309333" cy="107.32812607945762" r="3" fill="hsl(180, 50%, 82%)"/><circle cx="126.10132225690556" cy="49.10651937631584" r="3" fill="hsl(262, 48%, 85%)"/><circle cx="115.39536006684656" cy="39.28974716578028" r="3" fill="hsl(262, 48%, 85%)"/><circle cx="23.475761495838192" cy="127.52749732594557" r="3" fill="hsl(180, 50%, 82%)"/><circle cx="114.13273625717112" cy="45.32897371522603" r="3" fill="hsl(262, 48%, 85%)"/><circle cx="10.315049686394834" cy="94.72366219680562" r="3" fill="hsl(180, 50%, 82%)"/><circle cx="127.27076952677916" cy="47.74873719358804" r="3" fill="hsl(262, 48%, 85%)"/><circle cx="128.5197256712444" cy="42.24846705084291" r="3" fill="hsl(262, 48%, 85%)"/><circle cx="71.38149648146262" cy="25.673922651386995" r="3" fill="hsl(51, 90%, 71%)"/><circle cx="48.73163995549122" cy="53.173633340077664" r="3" fill="hsl(51, 90%, 71%)"/><circle cx="35.87466209898991" cy="126.9867286377915" r="3" fill="hsl(180, 50%, 82%)"/><circle cx="115.7200693339022" cy="52.32565083477342" r="3" fill="hsl(262, 48%, 85%)"/><circle cx="118.74713480921342" cy="28.009811788653188" r="3" fill="hsl(262, 48%, 85%)"/><circle cx="69.19075933796142" cy="49.5594590309435" r="3" fill="hsl(51, 90%, 71%)"/><circle cx="71.1094696285687" cy="47.888179990601756" r="3" fill="hsl(51, 90%, 71%)"/><circle cx="74.67864012752106" cy="60.56384312764765" r="3" fill="hsl(51, 90%, 71%)"/><circle cx="24.389170777571643" cy="91.56435183220356" r="3" fill="hsl(180, 50%, 82%)"/><circle cx="117.12769259232167" cy="32.505956032312746" r="3" fill="hsl(262, 48%, 85%)"/><circle cx="35.32962691479993" cy="102.51003401506765" r="3" fill="hsl(180, 50%, 82%)"/><circle cx="109.46475048556663" cy="70.02739524377041" r="3" fill="hsl(262, 48%, 85%)"/><circle cx="72.73930817331399" cy="28.097623747533" r="3" fill="hsl(51, 90%, 71%)"/><circle cx="106.08554489142782" cy="36.26637891907587" r="3" fill="hsl(262, 48%, 85%)"/><circle cx="123.35536956488461" cy="15.533808754266698" r="3" fill="hsl(262, 48%, 85%)"/><circle cx="67.96725255679141" cy="46.50763447727011" r="3" fill="hsl(51, 90%, 71%)"/><circle cx="115.86401872948166" cy="45.213261467553465" r="3" fill="hsl(262, 48%, 85%)"/><circle cx="30.201470455498956" cy="114.03703290522776" r="3" fill="hsl(180, 50%, 82%)"/><circle cx="53.929733633845494" cy="42.964648952541154" r="3" fill="hsl(51, 90%, 71%)"/><circle cx="118.55077909947357" cy="25.611266417989718" r="3" fill="hsl(262, 48%, 85%)"/><circle cx="79.14739516052202" cy="48.33300500527246" r="3" fill="hsl(51, 90%, 71%)"/><circle cx="122.30398074843582" cy="37.00063131243814" r="3" fill="hsl(262, 48%, 85%)"/><circle cx="119.04981671464839" cy="49.44724088357176" r="3" fill="hsl(262, 48%, 85%)"/><circle cx="115.021021154327" cy="47.087984706653124" r="3" fill="hsl(262, 48%, 85%)"/><circle cx="131.21577565725866" cy="44.36990055899514" r="3" fill="hsl(262, 48%, 85%)"/><circle cx="113.34847816903627" cy="39.797267214828935" r="3" fill="hsl(262, 48%, 85%)"/><circle cx="69.46641027623546" cy="57.95941792603527" r="3" fill="hsl(51, 90%, 71%)"/><circle cx="35.782418718095656" cy="102.43020396184166" r="3" fill="hsl(180, 50%, 82%)"/><circle cx="73.5412002138182" cy="50.995988126384546" r="3" fill="hsl(51, 90%, 71%)"/><circle cx="34.4929256481912" cy="111.77220509489857" r="3" fill="hsl(180, 50%, 82%)"/><circle cx="28.819614483551717" cy="121.42951128879737" r="3" fill="hsl(180, 50%, 82%)"/><circle cx="41.79120308049779" cy="134.88867869697725" r="3" fill="hsl(180, 50%, 82%)"/><circle cx="75.65582747492728" cy="45.07017458162084" r="3" fill="hsl(51, 90%, 71%)"/><circle cx="23.62428714360259" cy="115.76629257834401" r="3" fill="hsl(180, 50%, 82%)"/><circle cx="19.593554056559917" cy="107.31799284709224" r="3" fill="hsl(180, 50%, 82%)"/><circle cx="27.684954040294414" cy="102.99966813861414" r="3" fill="hsl(180, 50%, 82%)"/><circle cx="83.3132014506997" cy="32.03983761659743" r="3" fill="hsl(51, 90%, 71%)"/><circle cx="15.57761309499831" cy="117.27343907836985" r="3" fill="hsl(180, 50%, 82%)"/><circle cx="128.23811679303685" cy="35.43551480714394" r="3" fill="hsl(262, 48%, 85%)"/><circle cx="111.74437820834683" cy="55.4954464992628" r="3" fill="hsl(262, 48%, 85%)"/><circle cx="113.65843949315412" cy="65.73076385224869" r="3" fill="hsl(262, 48%, 85%)"/><circle cx="112.03674109711963" cy="40.10785604415748" r="3" fill="hsl(262, 48%, 85%)"/><circle cx="30.79486985105427" cy="113.76092586751687" r="3" fill="hsl(180, 50%, 82%)"/><circle cx="123.85443493566672" cy="32.20385908003041" r="3" fill="hsl(262, 48%, 85%)"/><circle cx="70.5257782298642" cy="56.0269831161344" r="3" fill="hsl(51, 90%, 71%)"/><circle cx="65.28270567814857" cy="39.57386880386285" r="3" fill="hsl(51, 90%, 71%)"/><circle cx="63.59628655962858" cy="58.17053295192176" r="3" fill="hsl(51, 90%, 71%)"/><circle cx="58.29778488934597" cy="39.58891681603921" r="3" fill="hsl(51, 90%, 71%)"/><circle cx="125.69499540626217" cy="57.00784775838705" r="3" fill="hsl(262, 48%, 85%)"/><circle cx="106.70004602710225" cy="31.085488991081046" r="3" fill="hsl(262, 48%, 85%)"/><circle cx="125.98349380637005" cy="43.25921434158902" r="3" fill="hsl(262, 48%, 85%)"/><circle cx="62.90449807690471" cy="42.856103138937954" r="3" fill="hsl(51, 90%, 71%)"/><circle cx="23.393169154178224" cy="89.0757584512447" r="3" fill="hsl(180, 50%, 82%)"/><circle cx="132.80973712191846" cy="21.01425096581336" r="3" fill="hsl(262, 48%, 85%)"/><circle cx="69.31435442545555" cy="77.86776753377198" r="3" fill="hsl(51, 90%, 71%)"/><circle cx="35.88514308285577" cy="116.84492760560953" r="3" fill="hsl(180, 50%, 82%)"/><circle cx="30.80176603365574" cy="111.18303201598108" r="3" fill="hsl(180, 50%, 82%)"/><circle cx="22.75596613881754" cy="116.08615504633606" r="3" fill="hsl(180, 50%, 82%)"/><circle cx="54.652538853399946" cy="21.861748177050487" r="3" fill="hsl(51, 90%, 71%)"/><circle cx="58.07801488934649" cy="36.21108762128263" r="3" fill="hsl(51, 90%, 71%)"/><circle cx="69.18569021887382" cy="36.20469277049529" r="3" fill="hsl(51, 90%, 71%)"/><circle cx="26.06695405374947" cy="86.40136088150922" r="3" fill="hsl(180, 50%, 82%)"/><circle cx="32.763852571374" cy="121.99809646645522" r="3" fill="hsl(180, 50%, 82%)"/><circle cx="57.1595685768922" cy="42.07866275963964" r="3" fill="hsl(51, 90%, 71%)"/><circle cx="120.18941962053043" cy="39.0690012294791" r="3" fill="hsl(262, 48%, 85%)"/><circle cx="126.22703427411595" cy="38.27082934591327" r="3" fill="hsl(262, 48%, 85%)"/><circle cx="57.60241393088194" cy="30.34735853999392" r="3" fill="hsl(51, 90%, 71%)"/><circle cx="47.004665457215914" cy="119.40285128029643" r="3" fill="hsl(180, 50%, 82%)"/><circle cx="73.7921258342438" cy="40.9802023657568" r="3" fill="hsl(51, 90%, 71%)"/><circle cx="120.13159789448238" cy="29.671223105845755" r="3" fill="hsl(262, 48%, 85%)"/><circle cx="60.356941557621646" cy="68.0069656747463" r="3" fill="hsl(51, 90%, 71%)"/><circle cx="113.32105372091684" cy="42.87287884815268" r="3" fill="hsl(262, 48%, 85%)"/><circle cx="25.275552451503348" cy="118.8709565351725" r="3" fill="hsl(180, 50%, 82%)"/><circle cx="30.16536514043836" cy="121.22078001032709" r="3" fill="hsl(180, 50%, 82%)"/><circle cx="106.27176997453158" cy="30.63812322469605" r="3" fill="hsl(262, 48%, 85%)"/><circle cx="14.31998000297859" cy="93.74214837218254" r="3" fill="hsl(180, 50%, 82%)"/><circle cx="107.0729768467783" cy="43.42497803673794" r="3" fill="hsl(262, 48%, 85%)"/><circle cx="70.3629927204484" cy="25.2697285728033" r="3" fill="hsl(51, 90%, 71%)"/><circle cx="114.51759739414241" cy="50.54387323933274" r="3" fill="hsl(262, 48%, 85%)"/><circle cx="26.07995348206581" cy="103.80144478464979" r="3" fill="hsl(180, 50%, 82%)"/><circle cx="69.96233139561247" cy="35.80208939059999" r="3" fill="hsl(51, 90%, 71%)"/><circle cx="63.59362727108343" cy="48.4752467915708" r="3" fill="hsl(51, 90%, 71%)"/><circle cx="74.24986318394156" cy="53.47902765827519" r="3" fill="hsl(51, 90%, 71%)"/><circle cx="117.9276169202197" cy="40.81848588239558" r="3" fill="hsl(262, 48%, 85%)"/><circle cx="27.497406683121618" cy="139" r="3" fill="hsl(180, 50%, 82%)"/><circle cx="13.960950596736964" cy="102.00223446113029" r="3" fill="hsl(180, 50%, 82%)"/><circle cx="69.3108603542859" cy="23.007894146764002" r="3" fill="hsl(51, 90%, 71%)"/><circle cx="114.67952851835977" cy="35.988681396801915" r="3" fill="hsl(262, 48%, 85%)"/><circle cx="65.82962077713782" cy="47.53485059753048" r="3" fill="hsl(51, 90%, 71%)"/><circle cx="31.045127791390325" cy="105.09053960331518" r="3" fill="hsl(180, 50%, 82%)"/><circle cx="40.68766780828679" cy="124.27382302431775" r="3" fill="hsl(180, 50%, 82%)"/><circle cx="111.83335102222438" cy="51.370690236694784" r="3" fill="hsl(262, 48%, 85%)"/><circle cx="23.70280583478914" cy="98.70472515706106" r="3" fill="hsl(180, 50%, 82%)"/><circle cx="24.692417106113034" cy="123.80703669396026" r="3" fill="hsl(180, 50%, 82%)"/><circle cx="26.727808470982165" cy="124.86423695072163" r="3" fill="hsl(180, 50%, 82%)"/><circle cx="102.83206668987295" cy="49.45077418110816" r="3" fill="hsl(262, 48%, 85%)"/><circle cx="115.99538353207541" cy="51.24676432349868" r="3" fill="hsl(262, 48%, 85%)"/><circle cx="71.58348024432124" cy="33.002246590232325" r="3" fill="hsl(51, 90%, 71%)"/><circle cx="32.12823802686367" cy="112.24017424232554" r="3" fill="hsl(180, 50%, 82%)"/><circle cx="63.31411731871543" cy="45.097743379840544" r="3" fill="hsl(51, 90%, 71%)"/><circle cx="34.2528753185298" cy="94.92922979861343" r="3" fill="hsl(180, 50%, 82%)"/><circle cx="129.42041282529735" cy="51.12829688254852" r="3" fill="hsl(262, 48%, 85%)"/><circle cx="116.18458039181438" cy="45.10299210159006" r="3" fill="hsl(262, 48%, 85%)"/><circle cx="28.93174588396947" cy="120.87858607046105" r="3" fill="hsl(180, 50%, 82%)"/><circle cx="73.93491705106241" cy="58.12727355889072" r="3" fill="hsl(51, 90%, 71%)"/><circle cx="110.29291607739846" cy="78.49814945080428" r="3" fill="hsl(262, 48%, 85%)"/><circle cx="26.42049717843701" cy="89.57233185391536" r="3" fill="hsl(180, 50%, 82%)"/><circle cx="55.97830320231165" cy="55.48035166502132" r="3" fill="hsl(51, 90%, 71%)"/><circle cx="124.84857751032128" cy="35.1026831796574" r="3" fill="hsl(262, 48%, 85%)"/><circle cx="62.32759363287789" cy="33.06369152174251" r="3" fill="hsl(51, 90%, 71%)"/><circle cx="110.10821451162516" cy="34.13740676063406" r="3" fill="hsl(262, 48%, 85%)"/><circle cx="108.60226891245078" cy="44.70006194926188" r="3" fill="hsl(262, 48%, 85%)"/><circle cx="33.45668750374742" cy="118.55507545758995" r="3" fill="hsl(180, 50%, 82%)"/><circle cx="47.729271990300575" cy="114.46243835640793" r="3" fill="hsl(180, 50%, 82%)"/><circle cx="29.9995937811785" cy="103.90806176249309" r="3" fill="hsl(180, 50%, 82%)"/><circle cx="122.01118773598466" cy="28.722253732368173" r="3" fill="hsl(262, 48%, 85%)"/><circle cx="65.91736503573459" cy="38.172074731507976" r="3" fill="hsl(51, 90%, 71%)"/><circle cx="42.566897927610285" cy="105.31225255161196" r="3" fill="hsl(180, 50%, 82%)"/><circle cx="16.671197552912034" cy="101.20815241382306" r="3" fill="hsl(180, 50%, 82%)"/><circle cx="120.67858447715383" cy="23.783773669549035" r="3" fill="hsl(262, 48%, 85%)"/><circle cx="62.816503593188436" cy="30.983463433083955" r="3" fill="hsl(51, 90%, 71%)"/><circle cx="71.32362819416458" cy="49.800647705089055" r="3" fill="hsl(51, 90%, 71%)"/><circle cx="61.32043425374455" cy="36.27587547940285" r="3" fill="hsl(51, 90%, 71%)"/><circle cx="82.69148116819353" cy="45.62163504059586" r="3" fill="hsl(51, 90%, 71%)"/><circle cx="59.199643861851015" cy="52.78465583212024" r="3" fill="hsl(51, 90%, 71%)"/><circle cx="108.08536224133526" cy="58.64898599019312" r="3" fill="hsl(262, 48%, 85%)"/><circle cx="18.635541342286125" cy="110.7936677989665" r="3" fill="hsl(180, 50%, 82%)"/><circle cx="60.62019838075084" cy="58.15390662340616" r="3" fill="hsl(51, 90%, 71%)"/><circle cx="44.139529202028584" cy="92.55431133818576" r="3" fill="hsl(180, 50%, 82%)"/><circle cx="29.623058410203654" cy="106.4144757570465" r="3" fill="hsl(180, 50%, 82%)"/><circle cx="65.17136107284824" cy="26.46361664127305" r="3" fill="hsl(51, 90%, 71%)"/><circle cx="14.637187169109271" cy="98.04999655129629" r="3" fill="hsl(180, 50%, 82%)"/><circle cx="66.7907389018882" cy="49.80542862951561" r="3" fill="hsl(51, 90%, 71%)"/><circle cx="27.77812186139481" cy="108.14522066352774" r="3" fill="hsl(180, 50%, 82%)"/><circle cx="16.517622304831274" cy="103.08365323663553" r="3" fill="hsl(180, 50%, 82%)"/><circle cx="67.10292380268483" cy="48.6600828054299" r="3" fill="hsl(51, 90%, 71%)"/><circle cx="77.19948278816149" cy="44.26784865497219" r="3" fill="hsl(51, 90%, 71%)"/><circle cx="35.68013369289082" cy="121.37719065463092" r="3" fill="hsl(180, 50%, 82%)"/><circle cx="16.460582538325134" cy="106.57011327858123" r="3" fill="hsl(180, 50%, 82%)"/><circle cx="12.681044268464023" cy="96.81242592036867" r="3" fill="hsl(180, 50%, 82%)"/><circle cx="37.84117059205164" cy="114.5620532881109" r="3" fill="hsl(180, 50%, 82%)"/><circle cx="103.53180016018645" cy="24.47716521778475" r="3" fill="hsl(262, 48%, 85%)"/><circle cx="38.2896453657884" cy="120.62023926178013" r="3" fill="hsl(180, 50%, 82%)"/><circle cx="25.324708510320498" cy="108.33990507511258" r="3" fill="hsl(180, 50%, 82%)"/><circle cx="107.68874915219979" cy="33.576825266649536" r="3" fill="hsl(262, 48%, 85%)"/><circle cx="72.31103490395908" cy="37.76885847209443" r="3" fill="hsl(51, 90%, 71%)"/><circle cx="69.29764406237285" cy="34.253790492934385" r="3" fill="hsl(51, 90%, 71%)"/><circle cx="26.720580417698805" cy="122.46771090836846" r="3" fill="hsl(180, 50%, 82%)"/><circle cx="62.021986358956696" cy="56.81664509674966" r="3" fill="hsl(51, 90%, 71%)"/><circle cx="62.02902807135052" cy="48.09490231230199" r="3" fill="hsl(51, 90%, 71%)"/><circle cx="127.54190748711143" cy="45.029047368315666" r="3" fill="hsl(262, 48%, 85%)"/><circle cx="115.91517878988084" cy="45.24437152532494" r="3" fill="hsl(262, 48%, 85%)"/><circle cx="35.261152507708246" cy="93.62707747161735" r="3" fill="hsl(180, 50%, 82%)"/><circle cx="32.06313599817568" cy="118.80014513306793" r="3" fill="hsl(180, 50%, 82%)"/><circle cx="41.53707907858507" cy="121.1189000599937" r="3" fill="hsl(180, 50%, 82%)"/><circle cx="38.69885675689916" cy="91.1190246506384" r="3" fill="hsl(180, 50%, 82%)"/><circle cx="78.89513837649746" cy="29.499445408824936" r="3" fill="hsl(51, 90%, 71%)"/><circle cx="65.47367561877984" cy="28.902639858280466" r="3" fill="hsl(51, 90%, 71%)"/><circle cx="65.20484963969683" cy="38.137919292686846" r="3" fill="hsl(51, 90%, 71%)"/><circle cx="42.65535989649388" cy="102.51259400483241" r="3" fill="hsl(180, 50%, 82%)"/><circle cx="109.58602532999579" cy="36.5059541012643" r="3" fill="hsl(262, 48%, 85%)"/><circle cx="78.18016345251328" cy="35.82166139530465" r="3" fill="hsl(51, 90%, 71%)"/><circle cx="65.87334219377068" cy="30.296247718682316" r="3" fill="hsl(51, 90%, 71%)"/><circle cx="21.878985656112665" cy="107.0702923272962" r="3" fill="hsl(180, 50%, 82%)"/><circle cx="83.99242496718566" cy="52.15547313858534" r="3" fill="hsl(51, 90%, 71%)"/><circle cx="118.89787700712455" cy="55.78167071978654" r="3" fill="hsl(262, 48%, 85%)"/><circle cx="63.58274822370315" cy="45.649290645703545" r="3" fill="hsl(51, 90%, 71%)"/><circle cx="113.8453200259916" cy="30.7905161683545" r="3" fill="hsl(262, 48%, 85%)"/><circle cx="27.147814969006774" cy="100.48957417807901" r="3" fill="hsl(180, 50%, 82%)"/><circle cx="33.5578832625819" cy="97.13408119548751" r="3" fill="hsl(180, 50%, 82%)"/><circle cx="23.449195314431478" cy="120.45288772417742" r="3" fill="hsl(180, 50%, 82%)"/><circle cx="32.14560806526881" cy="123.37752637960186" r="3" fill="hsl(180, 50%, 82%)"/><circle cx="125.48441535673003" cy="44.79252826482758" r="3" fill="hsl(262, 48%, 85%)"/><circle cx="102.7783353901435" cy="41.18221403058509" r="3" fill="hsl(262, 48%, 85%)"/><circle cx="33.238472639666725" cy="115.00907747911359" r="3" fill="hsl(180, 50%, 82%)"/><circle cx="25.132045156938496" cy="112.93295693389125" r="3" fill="hsl(180, 50%, 82%)"/><circle cx="78.8577344745164" cy="34.109688297445445" r="3" fill="hsl(51, 90%, 71%)"/><circle cx="69.02613793754804" cy="64.05934768557401" r="3" fill="hsl(51, 90%, 71%)"/><circle cx="114.05176419995219" cy="16.199371534020308" r="3" fill="hsl(262, 48%, 85%)"/><circle cx="70.87028396685515" cy="50.69563374669577" r="3" fill="hsl(51, 90%, 71%)"/><circle cx="39.06108757199956" cy="114.52874962495703" r="3" fill="hsl(180, 50%, 82%)"/><circle cx="128.39744477730744" cy="28.92956956386145" r="3" fill="hsl(262, 48%, 85%)"/><circle cx="34.27997516343204" cy="112.72742429111483" r="3" fill="hsl(180, 50%, 82%)"/><circle cx="113.40925890389839" cy="26.85834383434259" r="3" fill="hsl(262, 48%, 85%)"/><circle cx="123.5993440837535" cy="31.64377684994277" r="3" fill="hsl(262, 48%, 85%)"/><circle cx="127.8158774307408" cy="30.967920256156518" r="3" fill="hsl(262, 48%, 85%)"/><circle cx="66.51868488806369" cy="26.324643862824615" r="3" fill="hsl(51, 90%, 71%)"/><circle cx="61.743174212934285" cy="36.42000404306854" r="3" fill="hsl(51, 90%, 71%)"/><circle cx="37.5493043090701" cy="124.34378539623515" r="3" fill="hsl(180, 50%, 82%)"/><circle cx="59.143387902574624" cy="23.63485598808763" r="3" fill="hsl(51, 90%, 71%)"/><circle cx="122.67729018537659" cy="32.37361804804564" r="3" fill="hsl(262, 48%, 85%)"/><circle cx="22.24168830606156" cy="106.76067300563055" r="3" fill="hsl(180, 50%, 82%)"/><circle cx="30.32756305289057" cy="92.03832104982142" r="3" fill="hsl(180, 50%, 82%)"/><circle cx="85.67696318058435" cy="41.275570819427905" r="3" fill="hsl(51, 90%, 71%)"/><circle cx="115.2118054792842" cy="15.156878358890069" r="3" fill="hsl(262, 48%, 85%)"/><circle cx="39.40708796838619" cy="120.19141251659217" r="3" fill="hsl(180, 50%, 82%)"/><circle cx="53.423505011004664" cy="93.62745053326331" r="3" fill="hsl(180, 50%, 82%)"/><circle cx="69.23869959884355" cy="37.14363027655451" r="3" fill="hsl(51, 90%, 71%)"/><circle cx="114.96666445456941" cy="36.16074834510431" r="3" fill="hsl(262, 48%, 85%)"/><circle cx="33.81850877436685" cy="110.94016213090703" r="3" fill="hsl(180, 50%, 82%)"/><circle cx="125.45010157929522" cy="39.32182406695446" r="3" fill="hsl(262, 48%, 85%)"/><circle cx="68.7073532303698" cy="17.624768936985525" r="3" fill="hsl(51, 90%, 71%)"/><circle cx="123.50316395372579" cy="37.00925838745898" r="3" fill="hsl(262, 48%, 85%)"/><circle cx="126.07408057678083" cy="37.663159737364275" r="3" fill="hsl(262, 48%, 85%)"/><circle cx="119.06868516342475" cy="43.68189115718155" r="3" fill="hsl(262, 48%, 85%)"/><circle cx="35.44489110660691" cy="111.69382143836937" r="3" fill="hsl(180, 50%, 82%)"/><circle cx="126.1088544808634" cy="20.612981175501027" r="3" fill="hsl(262, 48%, 85%)"/><circle cx="39.87690986050493" cy="121.42612927447566" r="3" fill="hsl(180, 50%, 82%)"/><circle cx="112.30183085236735" cy="35.13033273880192" r="3" fill="hsl(262, 48%, 85%)"/><circle cx="65.05919735844114" cy="40.86059993028428" r="3" fill="hsl(51, 90%, 71%)"/><circle cx="61.20891389570043" cy="41.77510125062021" r="3" fill="hsl(51, 90%, 71%)"/><circle cx="78.6935885898229" cy="44.51173890369797" r="3" fill="hsl(51, 90%, 71%)"/><circle cx="25.370544083929154" cy="125.03158156124789" r="3" fill="hsl(180, 50%, 82%)"/><circle cx="64.2900584655429" cy="23.57781204888943" r="3" fill="hsl(51, 90%, 71%)"/><circle cx="55.86772170417443" cy="56.53831344363695" r="3" fill="hsl(51, 90%, 71%)"/><circle cx="37.169254010534736" cy="108.07654580241373" r="3" fill="hsl(180, 50%, 82%)"/><circle cx="80.5478275627649" cy="49.18283309835878" r="3" fill="hsl(51, 90%, 71%)"/><circle cx="73.23959124934775" cy="43.65177411901516" r="3" fill="hsl(51, 90%, 71%)"/><circle cx="72.64771549843852" cy="44.008199639601074" r="3" fill="hsl(51, 90%, 71%)"/><circle cx="10" cy="81.29963581665801" r="3" fill="hsl(180, 50%, 82%)"/><circle cx="102.09970667120483" cy="40.9920026558607" r="3" fill="hsl(262, 48%, 85%)"/><circle cx="68.16445517798142" cy="45.53380840674953" r="3" fill="hsl(51, 90%, 71%)"/><circle cx="123.53753945344268" cy="29.035550604337622" r="3" fill="hsl(262, 48%, 85%)"/><circle cx="70.61410399522624" cy="45.32615014583394" r="3" fill="hsl(51, 90%, 71%)"/><circle cx="33.92919601214147" cy="134.27837315801912" r="3" fill="hsl(180, 50%, 82%)"/><circle cx="29.730145792046702" cy="108.3169513797354" r="3" fill="hsl(180, 50%, 82%)"/><circle cx="68.90619092636729" cy="47.51765825955535" r="3" fill="hsl(51, 90%, 71%)"/><circle cx="74.00816228322986" cy="42.45540779757535" r="3" fill="hsl(51, 90%, 71%)"/><circle cx="44.01000304222221" cy="97.6539934274179" r="3" fill="hsl(180, 50%, 82%)"/><circle cx="104.70847452444741" cy="40.52206669865983" r="3" fill="hsl(262, 48%, 85%)"/><circle cx="125.02416211695181" cy="28.58604039893815" r="3" fill="hsl(262, 48%, 85%)"/><circle cx="31.991963488201552" cy="127.73521854585172" r="3" fill="hsl(180, 50%, 82%)"/><circle cx="19.616743124711757" cy="119.85515973661742" r="3" fill="hsl(180, 50%, 82%)"/><circle cx="86.38369370291204" cy="38.90325723878002" r="3" fill="hsl(51, 90%, 71%)"/><circle cx="111.4038181245236" cy="38.79621171130413" r="3" fill="hsl(262, 48%, 85%)"/><circle cx="22.833807500519942" cy="117.97324763320816" r="3" fill="hsl(180, 50%, 82%)"/><circle cx="30.546890566705457" cy="106.8179567257829" r="3" fill="hsl(180, 50%, 82%)"/><circle cx="16.304343597223962" cy="93.4687552064892" r="3" fill="hsl(180, 50%, 82%)"/><circle cx="56.866850400230256" cy="42.48650969274279" r="3" fill="hsl(51, 90%, 71%)"/><circle cx="32.531203483700224" cy="106.41102306660927" r="3" fill="hsl(180, 50%, 82%)"/><circle cx="108.18273943940002" cy="45.25212458272086" r="3" fill="hsl(262, 48%, 85%)"/><circle cx="36.66631758466464" cy="111.1677913070346" r="3" fill="hsl(180, 50%, 82%)"/><circle cx="115.6714688425049" cy="23.340592461563006" r="3" fill="hsl(262, 48%, 85%)"/><circle cx="70.34848477064575" cy="51.839732727786796" r="3" fill="hsl(51, 90%, 71%)"/><circle cx="116.72062977852408" cy="20.66211276654085" r="3" fill="hsl(262, 48%, 85%)"/><circle cx="124.7985346354761" cy="44.03396551881141" r="3" fill="hsl(262, 48%, 85%)"/><circle cx="42.9622591498169" cy="102.58330287168447" r="3" fill="hsl(180, 50%, 82%)"/><circle cx="59.04491804171379" cy="19.297663644994316" r="3" fill="hsl(51, 90%, 71%)"/><circle cx="69.90920157024735" cy="38.642393972991854" r="3" fill="hsl(51, 90%, 71%)"/><circle cx="42.27866310222695" cy="132.94015921065235" r="3" fill="hsl(180, 50%, 82%)"/><circle cx="54.12682607949688" cy="51.89509570833059" r="3" fill="hsl(51, 90%, 71%)"/><circle cx="35.179126475520675" cy="108.99626294550085" r="3" fill="hsl(180, 50%, 82%)"/><circle cx="22.98716408405229" cy="91.09651233395259" r="3" fill="hsl(180, 50%, 82%)"/><circle cx="125.02232140649457" cy="20.74212689368661" r="3" fill="hsl(262, 48%, 85%)"/><circle cx="41.93892954727046" cy="109.22595528532511" r="3" fill="hsl(180, 50%, 82%)"/><circle cx="112.25141176394379" cy="52.30897750821614" r="3" fill="hsl(262, 48%, 85%)"/><circle cx="62.504290119708436" cy="61.03334094880173" r="3" fill="hsl(51, 90%, 71%)"/><circle cx="21.273690374074825" cy="94.76076509004028" r="3" fill="hsl(180, 50%, 82%)"/><circle cx="124.329861396816" cy="37.49632444231784" r="3" fill="hsl(262, 48%, 85%)"/><circle cx="109.88493360739939" cy="36.50042681480844" r="3" fill="hsl(262, 48%, 85%)"/><circle cx="33.83294822192864" cy="137.7518474039192" r="3" fill="hsl(180, 50%, 82%)"/><circle cx="51.744946906570284" cy="38.49497762613336" r="3" fill="hsl(51, 90%, 71%)"/><circle cx="27.763882707062223" cy="131.8771819961073" r="3" fill="hsl(180, 50%, 82%)"/><circle cx="73.94986445000848" cy="36.477414108222035" r="3" fill="hsl(51, 90%, 71%)"/><circle cx="123.06353299317475" cy="26.101598271280196" r="3" fill="hsl(262, 48%, 85%)"/><circle cx="43.47174610528961" cy="125.91767161845547" r="3" fill="hsl(180, 50%, 82%)"/><circle cx="122.26771604149222" cy="26.76889472512144" r="3" fill="hsl(262, 48%, 85%)"/><circle cx="29.463942325027038" cy="106.86800695496014" r="3" fill="hsl(180, 50%, 82%)"/><circle cx="115.33723831755067" cy="36.96136107370455" r="3" fill="hsl(262, 48%, 85%)"/><circle cx="77.57005602020533" cy="49.57978716006818" r="3" fill="hsl(51, 90%, 71%)"/><circle cx="117.60803683540195" cy="51.909925523136685" r="3" fill="hsl(262, 48%, 85%)"/><circle cx="122.48321846920979" cy="37.546575642854286" r="3" fill="hsl(262, 48%, 85%)"/><circle cx="111.26602864218935" cy="28.151222536211783" r="3" fill="hsl(262, 48%, 85%)"/><circle cx="110.2368365082497" cy="43.34576813713729" r="3" fill="hsl(262, 48%, 85%)"/><circle cx="127.80096817651642" cy="41.457097952599355" r="3" fill="hsl(262, 48%, 85%)"/><circle cx="43.68712264849587" cy="103.44187754878111" r="3" fill="hsl(180, 50%, 82%)"/><circle cx="28.788959173156268" cy="110.74510898940639" r="3" fill="hsl(180, 50%, 82%)"/><circle cx="48.87355900966307" cy="58.3686432365962" r="3" fill="hsl(51, 90%, 71%)"/><circle cx="34.03652347333973" cy="92.57122012627306" r="3" fill="hsl(180, 50%, 82%)"/><circle cx="124.87531496344604" cy="57.06877218575532" r="3" fill="hsl(262, 48%, 85%)"/><circle cx="63.048874855653864" cy="41.573081589319585" r="3" fill="hsl(51, 90%, 71%)"/><circle cx="114.12315051069638" cy="38.93057439793427" r="3" fill="hsl(262, 48%, 85%)"/><circle cx="25.590014854388833" cy="104.02265563619662" r="3" fill="hsl(180, 50%, 82%)"/><circle cx="34.620590477247404" cy="125.3594049986082" r="3" fill="hsl(180, 50%, 82%)"/><circle cx="32.40589586999897" cy="116.66621078944318" r="3" fill="hsl(180, 50%, 82%)"/><circle cx="19.190038542329447" cy="115.37585641194" r="3" fill="hsl(180, 50%, 82%)"/><circle cx="63.54103718490782" cy="37.59589308480773" r="3" fill="hsl(51, 90%, 71%)"/><circle cx="132.06508009284423" cy="33.76930190612539" r="3" fill="hsl(262, 48%, 85%)"/><circle cx="63.299553595009044" cy="44.584362480193285" r="3" fill="hsl(51, 90%, 71%)"/><circle cx="68.0914536343248" cy="41.4465224604293" r="3" fill="hsl(51, 90%, 71%)"/><circle cx="124.21644188803542" cy="20.48283916307004" r="3" fill="hsl(262, 48%, 85%)"/><circle cx="31.67854399913731" cy="113.09774194967703" r="3" fill="hsl(180, 50%, 82%)"/><circle cx="118.4495003187789" cy="21.815738222739682" r="3" fill="hsl(262, 48%, 85%)"/><circle cx="131.40348116136124" cy="22.710073761536577" r="3" fill="hsl(262, 48%, 85%)"/><circle cx="66.12401580585254" cy="36.96563313059158" r="3" fill="hsl(51, 90%, 71%)"/><circle cx="129.10127967142915" cy="40.003144713781055" r="3" fill="hsl(262, 48%, 85%)"/><circle cx="114.93418924337148" cy="34.02290850125962" r="3" fill="hsl(262, 48%, 85%)"/><circle cx="124.09723993582233" cy="42.079196897656146" r="3" fill="hsl(262, 48%, 85%)"/><circle cx="20.778489083419586" cy="107.42676713484936" r="3" fill="hsl(180, 50%, 82%)"/><circle cx="29.733003363362656" cy="129.46047287113723" r="3" fill="hsl(180, 50%, 82%)"/><circle cx="114.5849138247278" cy="22.61616079084704" r="3" fill="hsl(262, 48%, 85%)"/><circle cx="106.88510727395878" cy="44.53494063492871" r="3" fill="hsl(262, 48%, 85%)"/><circle cx="70.54358907598304" cy="50.24045979795671" r="3" fill="hsl(51, 90%, 71%)"/><circle cx="68.22650967322139" cy="51.36170575701743" r="3" fill="hsl(51, 90%, 71%)"/><circle cx="122.64265652587727" cy="35.2134330674011" r="3" fill="hsl(262, 48%, 85%)"/><circle cx="27.364656930115537" cy="114.55513470038188" r="3" fill="hsl(180, 50%, 82%)"/><circle cx="132.58773823182827" cy="45.00798157015653" r="3" fill="hsl(262, 48%, 85%)"/><circle cx="71.23877957827811" cy="25.453926095789587" r="3" fill="hsl(51, 90%, 71%)"/><circle cx="112.54335894148683" cy="45.51592577803858" r="3" fill="hsl(262, 48%, 85%)"/><circle cx="68.42940400694337" cy="32.97140981417924" r="3" fill="hsl(51, 90%, 71%)"/><circle cx="119.12099893203435" cy="35.614647610925395" r="3" fill="hsl(262, 48%, 85%)"/><circle cx="32.38673295634841" cy="103.0381903244669" r="3" fill="hsl(180, 50%, 82%)"/><circle cx="120.21496803294751" cy="35.97289183303183" r="3" fill="hsl(262, 48%, 85%)"/><circle cx="76.8311369264791" cy="43.9768797919538" r="3" fill="hsl(51, 90%, 71%)"/><circle cx="114.19207128468118" cy="69.616201747619" r="3" fill="hsl(262, 48%, 85%)"/><circle cx="73.6820116770366" cy="31.008424059655102" r="3" fill="hsl(51, 90%, 71%)"/><circle cx="33.11662383635363" cy="81.37885966393752" r="3" fill="hsl(180, 50%, 82%)"/><circle cx="55.149483153485505" cy="21.63196898111406" r="3" fill="hsl(51, 90%, 71%)"/><circle cx="10.27879250396454" cy="125.88358411519215" r="3" fill="hsl(180, 50%, 82%)"/><circle cx="109.49027150095519" cy="31.729666571567535" r="3" fill="hsl(262, 48%, 85%)"/><circle cx="59.05261014506059" cy="25.083213773538482" r="3" fill="hsl(51, 90%, 71%)"/><circle cx="118.49640752715847" cy="13.796388055993235" r="3" fill="hsl(262, 48%, 85%)"/><circle cx="25.852089728611766" cy="118.3096478421422" r="3" fill="hsl(180, 50%, 82%)"/><circle cx="30.76931722674695" cy="117.85010525370079" r="3" fill="hsl(180, 50%, 82%)"/><circle cx="128.79014380285489" cy="33.57858836942897" r="3" fill="hsl(262, 48%, 85%)"/><circle cx="57.9322593922032" cy="49.12219689471674" r="3" fill="hsl(51, 90%, 71%)"/><circle cx="62.363467036120966" cy="45.4047186774069" r="3" fill="hsl(51, 90%, 71%)"/><circle cx="67.82113964526607" cy="31.62560511516166" r="3" fill="hsl(51, 90%, 71%)"/><circle cx="29.40834208945462" cy="124.0063046039859" r="3" fill="hsl(180, 50%, 82%)"/><circle cx="33.8752105147234" cy="118.22561060214959" r="3" fill="hsl(180, 50%, 82%)"/><circle cx="67.8866332467901" cy="33.700932238782784" r="3" fill="hsl(51, 90%, 71%)"/><circle cx="128.9608814786876" cy="28.434326696411766" r="3" fill="hsl(262, 48%, 85%)"/><circle cx="65.6619074117425" cy="38.606817223360125" r="3" fill="hsl(51, 90%, 71%)"/><circle cx="32.01548338272503" cy="99.84806357247804" r="3" fill="hsl(180, 50%, 82%)"/><circle cx="116.72017379043918" cy="21.335132448713882" r="3" fill="hsl(262, 48%, 85%)"/><circle cx="107.74873771568053" cy="23.1891890339767" r="3" fill="hsl(262, 48%, 85%)"/><circle cx="32.44421753375758" cy="98.32389877896479" r="3" fill="hsl(180, 50%, 82%)"/><circle cx="116.75381542287458" cy="45.93622863567894" r="3" fill="hsl(262, 48%, 85%)"/><circle cx="67.93744375333706" cy="37.95957067850666" r="3" fill="hsl(51, 90%, 71%)"/><circle cx="117.47263232886472" cy="48.852041824071705" r="3" fill="hsl(262, 48%, 85%)"/><circle cx="64.11322600967716" cy="45.7857730497211" r="3" fill="hsl(51, 90%, 71%)"/><circle cx="125.4891474013119" cy="38.37341298088903" r="3" fill="hsl(262, 48%, 85%)"/><circle cx="53.57712449722855" cy="43.91492228755192" r="3" fill="hsl(51, 90%, 71%)"/><circle cx="50.7904505614242" cy="68.13217222581596" r="3" fill="hsl(51, 90%, 71%)"/><circle cx="61.86838563727995" cy="56.752778490572204" r="3" fill="hsl(51, 90%, 71%)"/><circle cx="68.62301903317788" cy="33.0865752079922" r="3" fill="hsl(51, 90%, 71%)"/><circle cx="130.25439375875237" cy="43.89679896723899" r="3" fill="hsl(262, 48%, 85%)"/><circle cx="44.05001863202293" cy="103.67950913163953" r="3" fill="hsl(180, 50%, 82%)"/><circle cx="39.80423082902756" cy="102.07432536772106" r="3" fill="hsl(180, 50%, 82%)"/><circle cx="38.15480066434668" cy="100.92382653958579" r="3" fill="hsl(180, 50%, 82%)"/><circle cx="97.34401495735956" cy="29.062308943227684" r="3" fill="hsl(262, 48%, 85%)"/><circle cx="69.16305509365917" cy="39.76370174042735" r="3" fill="hsl(51, 90%, 71%)"/><circle cx="120.54407800250462" cy="46.7478567977938" r="3" fill="hsl(262, 48%, 85%)"/><circle cx="125.66896294233923" cy="52.60864760990593" r="3" fill="hsl(262, 48%, 85%)"/><circle cx="115.43714227909302" cy="45.62556534735462" r="3" fill="hsl(262, 48%, 85%)"/><circle cx="33.968135557055504" cy="105.73820647735874" r="3" fill="hsl(180, 50%, 82%)"/><circle cx="16.079029170312108" cy="108.72590238225322" r="3" fill="hsl(180, 50%, 82%)"/><circle cx="43.61971633470623" cy="123.36475545952317" r="3" fill="hsl(180, 50%, 82%)"/><circle cx="54.866001893049955" cy="56.4527194548911" r="3" fill="hsl(51, 90%, 71%)"/><circle cx="66.1827119531906" cy="31.315489693484988" r="3" fill="hsl(51, 90%, 71%)"/><circle cx="31.20479922481055" cy="95.64038841435197" r="3" fill="hsl(180, 50%, 82%)"/><circle cx="64.51168578665686" cy="36.360523858838" r="3" fill="hsl(51, 90%, 71%)"/><circle cx="126.10003494063918" cy="49.01787731641743" r="3" fill="hsl(262, 48%, 85%)"/><circle cx="33.99316311811687" cy="93.99392232796221" r="3" fill="hsl(180, 50%, 82%)"/><circle cx="115.47901517147494" cy="13.358272954104017" r="3" fill="hsl(262, 48%, 85%)"/><circle cx="56.34031899666841" cy="60.78999960412378" r="3" fill="hsl(51, 90%, 71%)"/><circle cx="28.977599167339697" cy="116.00610166780814" r="3" fill="hsl(180, 50%, 82%)"/><circle cx="25.967266186269665" cy="117.31787570767592" r="3" fill="hsl(180, 50%, 82%)"/><circle cx="68.66315000556428" cy="54.47529356652948" r="3" fill="hsl(51, 90%, 71%)"/><circle cx="20.18518194494046" cy="124.00517134461684" r="3" fill="hsl(180, 50%, 82%)"/><circle cx="82.0265953023867" cy="34.98113286604076" r="3" fill="hsl(51, 90%, 71%)"/><circle cx="50.16167858997686" cy="27.058382990464473" r="3" fill="hsl(51, 90%, 71%)"/><circle cx="116.99003890658248" cy="33.6895595778188" r="3" fill="hsl(262, 48%, 85%)"/><circle cx="72.1746178121112" cy="47.290242320228614" r="3" fill="hsl(51, 90%, 71%)"/><circle cx="69.30766258923192" cy="46.47738766932841" r="3" fill="hsl(51, 90%, 71%)"/><circle cx="41.28573247219592" cy="108.71877323182837" r="3" fill="hsl(180, 50%, 82%)"/><circle cx="57.3784762755636" cy="46.802411086156965" r="3" fill="hsl(51, 90%, 71%)"/><circle cx="26.05612810181048" cy="107.11177789405447" r="3" fill="hsl(180, 50%, 82%)"/><circle cx="76.1808850150497" cy="57.58178539903998" r="3" fill="hsl(51, 90%, 71%)"/><circle cx="88.38392348124061" cy="32.464790317063944" r="3" fill="hsl(51, 90%, 71%)"/><circle cx="76.68131325665651" cy="38.648748155970495" r="3" fill="hsl(51, 90%, 71%)"/><circle cx="51.04263290449909" cy="37.317851070617216" r="3" fill="hsl(51, 90%, 71%)"/><circle cx="37.42638509337706" cy="129.6525651692402" r="3" fill="hsl(180, 50%, 82%)"/><circle cx="104.70997581070083" cy="23.365253045675928" r="3" fill="hsl(262, 48%, 85%)"/><circle cx="79.22003846949738" cy="25.816808252156076" r="3" fill="hsl(51, 90%, 71%)"/><circle cx="135.00618712604026" cy="45.846211516034266" r="3" fill="hsl(262, 48%, 85%)"/><circle cx="27.3617530215606" cy="97.57032567539387" r="3" fill="hsl(180, 50%, 82%)"/><circle cx="19.638763778089423" cy="124.94509698723985" r="3" fill="hsl(180, 50%, 82%)"/><circle cx="124.33324857122672" cy="48.462021986160465" r="3" fill="hsl(262, 48%, 85%)"/><circle cx="24.54580936154535" cy="118.3565347084613" r="3" fill="hsl(180, 50%, 82%)"/><circle cx="36.8000840631559" cy="114.49814822675283" r="3" fill="hsl(180, 50%, 82%)"/><circle cx="23.849442388138122" cy="121.80888420775386" r="3" fill="hsl(180, 50%, 82%)"/><circle cx="112.47774822411219" cy="38.7239669101545" r="3" fill="hsl(262, 48%, 85%)"/><circle cx="66.08972731909827" cy="60.269339639269894" r="3" fill="hsl(51, 90%, 71%)"/><circle cx="130.33256430783948" cy="27.96781354932422" r="3" fill="hsl(262, 48%, 85%)"/><circle cx="35.486415019668414" cy="96.74534081037707" r="3" fill="hsl(180, 50%, 82%)"/><circle cx="76.72567357521783" cy="12.515411347591337" r="3" fill="hsl(51, 90%, 71%)"/><circle cx="67.20512587532784" cy="54.8025385763936" r="3" fill="hsl(51, 90%, 71%)"/><circle cx="134.09157614133716" cy="27.09152286253283" r="3" fill="hsl(262, 48%, 85%)"/><circle cx="124.55003339744407" cy="32.629115123438176" r="3" fill="hsl(262, 48%, 85%)"/><circle cx="38.0785507984489" cy="100.22056390741821" r="3" fill="hsl(180, 50%, 82%)"/><circle cx="33.85482137615108" cy="98.82793787057571" r="3" fill="hsl(180, 50%, 82%)"/><circle cx="17.05200779908847" cy="105.56429717530467" r="3" fill="hsl(180, 50%, 82%)"/><circle cx="139" cy="20.97519570518694" r="3" fill="hsl(262, 48%, 85%)"/><circle cx="39.129835317633294" cy="107.39342787644122" r="3" fill="hsl(180, 50%, 82%)"/><circle cx="113.62658288026914" cy="49.23189147700583" r="3" fill="hsl(262, 48%, 85%)"/><circle cx="130.43728239626694" cy="48.56147749788743" r="3" fill="hsl(262, 48%, 85%)"/><circle cx="51.887992678044704" cy="29.644913270850935" r="3" fill="hsl(51, 90%, 71%)"/><circle cx="39.10657226300011" cy="99.05059666445939" r="3" fill="hsl(180, 50%, 82%)"/><circle cx="126.80892653493662" cy="47.17191960336764" r="3" fill="hsl(262, 48%, 85%)"/><circle cx="39.911203016840986" cy="105.39333720310634" r="3" fill="hsl(180, 50%, 82%)"/><circle cx="67.6176110646931" cy="29.85720975398817" r="3" fill="hsl(51, 90%, 71%)"/><circle cx="115.98454641342991" cy="34.59280656233807" r="3" fill="hsl(262, 48%, 85%)"/><circle cx="105.72070088892332" cy="43.624858436179984" r="3" fill="hsl(262, 48%, 85%)"/><circle cx="116.69676741953239" cy="51.53451525124251" r="3" fill="hsl(262, 48%, 85%)"/><circle cx="115.7966272963075" cy="32.2471961205552" r="3" fill="hsl(262, 48%, 85%)"/><circle cx="30.599303075817485" cy="102.55555622394587" r="3" fill="hsl(180, 50%, 82%)"/><circle cx="63.437694739960925" cy="71.55514730916235" r="3" fill="hsl(51, 90%, 71%)"/><circle cx="61.96198844503128" cy="30.828553373944505" r="3" fill="hsl(51, 90%, 71%)"/><circle cx="37.40940664231228" cy="103.53452518663343" r="3" fill="hsl(180, 50%, 82%)"/><circle cx="67.67643887650969" cy="57.17819554389782" r="3" fill="hsl(51, 90%, 71%)"/><circle cx="29.512412349357117" cy="101.93177866084568" r="3" fill="hsl(180, 50%, 82%)"/><circle cx="75.1685874859864" cy="10" r="3" fill="hsl(51, 90%, 71%)"/><circle cx="113.65227321009979" cy="37.04534535214292" r="3" fill="hsl(262, 48%, 85%)"/><circle cx="52.46187694536228" cy="23.027977266093234" r="3" fill="hsl(51, 90%, 71%)"/><circle cx="53.59959478338629" cy="55.06713680759988" r="3" fill="hsl(51, 90%, 71%)"/><circle cx="75.84778204059002" cy="45.90562659509884" r="3" fill="hsl(51, 90%, 71%)"/><circle cx="20.056912974338637" cy="118.08471987633573" r="3" fill="hsl(180, 50%, 82%)"/><circle cx="105.38438203030427" cy="52.48421982639121" r="3" fill="hsl(262, 48%, 85%)"/><circle cx="112.20386353922981" cy="34.08291651911644" r="3" fill="hsl(262, 48%, 85%)"/><circle cx="28.793879272553554" cy="100.06791655706328" r="3" fill="hsl(180, 50%, 82%)"/><circle cx="65.80880918283195" cy="45.896813834065455" r="3" fill="hsl(51, 90%, 71%)"/><circle cx="35.25621816346769" cy="121.7588602778395" r="3" fill="hsl(180, 50%, 82%)"/><circle cx="128.96254383529492" cy="40.88259448215525" r="3" fill="hsl(262, 48%, 85%)"/><circle cx="66.76078887803293" cy="52.138919350552094" r="3" fill="hsl(51, 90%, 71%)"/><circle cx="25.184170954535364" cy="86.7799014031379" r="3" fill="hsl(180, 50%, 82%)"/><circle cx="118.74612123035757" cy="36.2709116464396" r="3" fill="hsl(262, 48%, 85%)"/></g></svg>