<svg class="plot-2ff4652ef003d" fill="currentColor" font-family="system-ui, sans-serif" font-size="10" text-anchor="middle" width="150" height="150" viewBox="0 0 150 150" xmlns="http://www.w3.org/2000/svg" xmlns:xlink="http://www.w3.org/1999/xlink"><style>
        .plot-2ff4652ef003d {
          display: block;
          background: white;
          height: auto;
          height: intrinsic;
          max-width: 100%;
        }
        .plot-2ff4652ef003d text,
        .plot-2ff4652ef003d tspan {
          white-space: pre;
        }
      </style><g aria-label="dot" fill-opacity="0.3" transform="translate(0.5,0.5)"><circle cx="36.3368606545" cy="29.128235958099996" r="3" fill="hsl(180, 50%, 82%)"/><circle cx="98.6318873905" cy="71.4847291675" r="3" fill="hsl(51, 90%, 71%)"/><circle cx="96.48516068379999" cy="52.732976174799994" r="3" fill="hsl(51, 90%, 71%)"/><circle cx="79.8182640757" cy="104.13088182070001" r="3" fill="hsl(51, 90%, 71%)"/><circle cx="92.66598054340001" cy="108.17680330030001" r="3" fill="hsl(51, 90%, 71%)"/><circle cx="135.2021348779" cy="51.8687274136" r="3" fill="hsl(180, 50%, 82%)"/><circle cx="70.7944277731" cy="46.433222823099996" r="3" fill="hsl(51, 90%, 71%)"/><circle cx="104.75926375690001" cy="83.55904486600001" r="3" fill="hsl(51, 90%, 71%)"/><circle cx="31.0354433725" cy="113.98363967979999" r="3" fill="hsl(180, 50%, 82%)"/><circle cx="30.460878146499997" cy="110.69569691620002" r="3" fill="hsl(180, 50%, 82%)"/><circle cx="130.0892863645" cy="83.86827168190001" r="3" fill="hsl(180, 50%, 82%)"/><circle cx="105.261885283" cy="73.22964169480001" r="3" fill="hsl(51, 90%, 71%)"/><circle cx="45.0921504718" cy="82.4361715126" r="3" fill="hsl(51, 90%, 71%)"/><circle cx="93.5140757698" cy="46.3213236049" r="3" fill="hsl(51, 90%, 71%)"/><circle cx="49.9245507406" cy="131.2228459747" r="3" fill="hsl(180, 50%, 82%)"/><circle cx="70.2279248536" cy="50.85263719" r="3" fill="hsl(51, 90%, 71%)"/><circle cx="95.0949554704" cy="93.189075337" r="3" fill="hsl(51, 90%, 71%)"/><circle cx="49.9854353092" cy="58.9018604197" r="3" fill="hsl(51, 90%, 71%)"/><circle cx="30.580809910899998" cy="113.77327220739998" r="3" fill="hsl(180, 50%, 82%)"/><circle cx="106.32715038399999" cy="22.155866363799994" r="3" fill="hsl(180, 50%, 82%)"/><circle cx="99.7524599128" cy="131.1955418992" r="3" fill="hsl(180, 50%, 82%)"/><circle cx="48.779250556600005" cy="69.7217555953" r="3" fill="hsl(51, 90%, 71%)"/><circle cx="127.8694332343" cy="93.9495215005" r="3" fill="hsl(180, 50%, 82%)"/><circle cx="24.1930121758" cy="50.74636015299999" r="3" fill="hsl(180, 50%, 82%)"/><circle cx="99.7071415807" cy="17.7160361989" r="3" fill="hsl(180, 50%, 82%)"/><circle cx="72.3395665015" cy="107.1342441214" r="3" fill="hsl(51, 90%, 71%)"/><circle cx="124.53326032480001" cy="44.6497940821" r="3" fill="hsl(180, 50%, 82%)"/><circle cx="46.5571997695" cy="69.9363748174" r="3" fill="hsl(51, 90%, 71%)"/><circle cx="31.5661383946" cy="35.5414240408" r="3" fill="hsl(180, 50%, 82%)"/><circle cx="126.2509843477" cy="102.2621294482" r="3" fill="hsl(180, 50%, 82%)"/><circle cx="69.16237732" cy="106.7674839247" r="3" fill="hsl(51, 90%, 71%)"/><circle cx="14.450359609300001" cy="65.5170516406" r="3" fill="hsl(180, 50%, 82%)"/><circle cx="16.4841512407" cy="66.7993616152" r="3" fill="hsl(180, 50%, 82%)"/><circle cx="78.3289855207" cy="131.801623657" r="3" fill="hsl(180, 50%, 82%)"/><circle cx="48.281171172099995" cy="77.85388495779999" r="3" fill="hsl(51, 90%, 71%)"/><circle cx="106.0944869515" cy="84.561815788" r="3" fill="hsl(51, 90%, 71%)"/><circle cx="68.6029628989" cy="43.35685378510001" r="3" fill="hsl(51, 90%, 71%)"/><circle cx="79.84561659069999" cy="101.8987244254" r="3" fill="hsl(51, 90%, 71%)"/><circle cx="48.443625271" cy="54.3843094576" r="3" fill="hsl(51, 90%, 71%)"/><circle cx="134.0773322392" cy="94.1699026882" r="3" fill="hsl(180, 50%, 82%)"/><circle cx="66.3554760079" cy="49.6271387251" r="3" fill="hsl(51, 90%, 71%)"/><circle cx="97.4768019373" cy="21.154170605200004" r="3" fill="hsl(180, 50%, 82%)"/><circle cx="51.9577779067" cy="93.9296085703" r="3" fill="hsl(51, 90%, 71%)"/><circle cx="120.4608300031" cy="113.834275714" r="3" fill="hsl(180, 50%, 82%)"/><circle cx="53.616168457" cy="22.955587557700007" r="3" fill="hsl(180, 50%, 82%)"/><circle cx="137.55525438639998" cy="75.60888397420001" r="3" fill="hsl(180, 50%, 82%)"/><circle cx="108.23535489099999" cy="124.5448612303" r="3" fill="hsl(180, 50%, 82%)"/><circle cx="60.870871746999995" cy="48.04130465049999" r="3" fill="hsl(51, 90%, 71%)"/><circle cx="60.1316167618" cy="99.5771149729" r="3" fill="hsl(51, 90%, 71%)"/><circle cx="28.4404402855" cy="42.362794916800006" r="3" fill="hsl(180, 50%, 82%)"/><circle cx="50.1270259801" cy="65.1516188152" r="3" fill="hsl(51, 90%, 71%)"/><circle cx="50.3764891084" cy="128.6805007909" r="3" fill="hsl(180, 50%, 82%)"/><circle cx="54.4717783978" cy="54.6924642835" r="3" fill="hsl(51, 90%, 71%)"/><circle cx="22.6701538114" cy="105.90744305320001" r="3" fill="hsl(180, 50%, 82%)"/><circle cx="18.643987237" cy="88.4867104222" r="3" fill="hsl(180, 50%, 82%)"/><circle cx="133.4155959598" cy="58.03207533970001" r="3" fill="hsl(180, 50%, 82%)"/><circle cx="65.0085532744" cy="45.635617603300005" r="3" fill="hsl(51, 90%, 71%)"/><circle cx="56.3450705125" cy="135.6224202706" r="3" fill="hsl(180, 50%, 82%)"/><circle cx="120.9728861635" cy="108.7744620418" r="3" fill="hsl(180, 50%, 82%)"/><circle cx="50.609341345299995" cy="51.839342310099994" r="3" fill="hsl(51, 90%, 71%)"/><circle cx="46.52679557889999" cy="22.7850945787" r="3" fill="hsl(180, 50%, 82%)"/><circle cx="98.5306899478" cy="61.82594371929999" r="3" fill="hsl(51, 90%, 71%)"/><circle cx="44.5346576992" cy="88.33321374789999" r="3" fill="hsl(51, 90%, 71%)"/><circle cx="71.0536805437" cy="102.99720839380001" r="3" fill="hsl(51, 90%, 71%)"/><circle cx="85.22745408520001" cy="47.05469708019999" r="3" fill="hsl(51, 90%, 71%)"/><circle cx="86.5960517728" cy="138.3274202386" r="3" fill="hsl(180, 50%, 82%)"/><circle cx="130.9098666649" cy="62.454721195299996" r="3" fill="hsl(180, 50%, 82%)"/><circle cx="98.51536605070001" cy="92.6484515848" r="3" fill="hsl(51, 90%, 71%)"/><circle cx="104.7353304385" cy="57.44178550389999" r="3" fill="hsl(51, 90%, 71%)"/><circle cx="55.4873533954" cy="21.510700972900004" r="3" fill="hsl(180, 50%, 82%)"/><circle cx="24.405610793500003" cy="98.765779909" r="3" fill="hsl(180, 50%, 82%)"/><circle cx="66.4385400496" cy="14.302078379200003" r="3" fill="hsl(180, 50%, 82%)"/><circle cx="59.0436135661" cy="51.834419412100004" r="3" fill="hsl(51, 90%, 71%)"/><circle cx="101.56035828969999" cy="89.1678695479" r="3" fill="hsl(51, 90%, 71%)"/><circle cx="53.0143364881" cy="129.5333521957" r="3" fill="hsl(180, 50%, 82%)"/><circle cx="46.734023410599995" cy="66.1515616831" r="3" fill="hsl(51, 90%, 71%)"/><circle cx="107.69358799240001" cy="62.698045884399995" r="3" fill="hsl(51, 90%, 71%)"/><circle cx="29.1479998159" cy="39.4739760892" r="3" fill="hsl(180, 50%, 82%)"/><circle cx="108.11710451260001" cy="76.6143875419" r="3" fill="hsl(51, 90%, 71%)"/><circle cx="90.3894802882" cy="46.2534772417" r="3" fill="hsl(51, 90%, 71%)"/><circle cx="78.1634428006" cy="46.2421386706" r="3" fill="hsl(51, 90%, 71%)"/><circle cx="129.1178349268" cy="96.7842589615" r="3" fill="hsl(180, 50%, 82%)"/><circle cx="101.60688328779999" cy="100.8179580394" r="3" fill="hsl(51, 90%, 71%)"/><circle cx="115.1059286245" cy="116.26381557069999" r="3" fill="hsl(180, 50%, 82%)"/><circle cx="61.4792991376" cy="52.231194283899995" r="3" fill="hsl(51, 90%, 71%)"/><circle cx="68.0868185092" cy="46.025381544400005" r="3" fill="hsl(51, 90%, 71%)"/><circle cx="60.6756584206" cy="101.47598669109999" r="3" fill="hsl(51, 90%, 71%)"/><circle cx="37.192369007799996" cy="118.1111137984" r="3" fill="hsl(180, 50%, 82%)"/><circle cx="54.889241347900004" cy="56.04720611980001" r="3" fill="hsl(51, 90%, 71%)"/><circle cx="86.4741416386" cy="20.073306179199996" r="3" fill="hsl(180, 50%, 82%)"/><circle cx="117.5327435626" cy="115.4072971345" r="3" fill="hsl(180, 50%, 82%)"/><circle cx="55.1087756764" cy="94.1633352466" r="3" fill="hsl(51, 90%, 71%)"/><circle cx="47.5740426178" cy="80.93549761359999" r="3" fill="hsl(51, 90%, 71%)"/><circle cx="91.00319178970001" cy="132.2564511346" r="3" fill="hsl(180, 50%, 82%)"/><circle cx="59.8163924779" cy="131.0412359176" r="3" fill="hsl(180, 50%, 82%)"/><circle cx="47.5263133531" cy="71.9632499332" r="3" fill="hsl(51, 90%, 71%)"/><circle cx="85.73544039880001" cy="10" r="3" fill="hsl(180, 50%, 82%)"/><circle cx="75.7235447728" cy="111.4754166988" r="3" fill="hsl(51, 90%, 71%)"/><circle cx="79.5037956286" cy="15.516337770700007" r="3" fill="hsl(180, 50%, 82%)"/><circle cx="102.4930121518" cy="130.0167787798" r="3" fill="hsl(180, 50%, 82%)"/><circle cx="21.512712353799998" cy="48.367044691900006" r="3" fill="hsl(180, 50%, 82%)"/><circle cx="57.550690670799995" cy="43.000431648399996" r="3" fill="hsl(51, 90%, 71%)"/><circle cx="60.0909245245" cy="18.97800180280001" r="3" fill="hsl(180, 50%, 82%)"/><circle cx="91.74278969560001" cy="92.4762804577" r="3" fill="hsl(51, 90%, 71%)"/><circle cx="127.0504914403" cy="67.679270254" r="3" fill="hsl(180, 50%, 82%)"/><circle cx="57.0165036961" cy="101.14050079" r="3" fill="hsl(51, 90%, 71%)"/><circle cx="24.6303078439" cy="54.3127581886" r="3" fill="hsl(180, 50%, 82%)"/><circle cx="133.8673696462" cy="98.2994900977" r="3" fill="hsl(180, 50%, 82%)"/><circle cx="88.258803439" cy="45.37015104459999" r="3" fill="hsl(51, 90%, 71%)"/><circle cx="34.985922976599994" cy="112.9100788081" r="3" fill="hsl(180, 50%, 82%)"/><circle cx="97.4300631862" cy="60.615405668200005" r="3" fill="hsl(51, 90%, 71%)"/><circle cx="135.20925361390002" cy="72.52396958920001" r="3" fill="hsl(180, 50%, 82%)"/><circle cx="23.972461107999997" cy="91.16025504310001" r="3" fill="hsl(180, 50%, 82%)"/><circle cx="132.2853001786" cy="62.447539623400004" r="3" fill="hsl(180, 50%, 82%)"/><circle cx="89.6947696609" cy="100.06468791370001" r="3" fill="hsl(51, 90%, 71%)"/><circle cx="74.4499382089" cy="100.78525346920001" r="3" fill="hsl(51, 90%, 71%)"/><circle cx="53.956719465700004" cy="75.27122751910001" r="3" fill="hsl(51, 90%, 71%)"/><circle cx="92.4895260487" cy="54.034512541599995" r="3" fill="hsl(51, 90%, 71%)"/><circle cx="103.547302036" cy="125.7764603116" r="3" fill="hsl(180, 50%, 82%)"/><circle cx="77.10901464129999" cy="134.9510128741" r="3" fill="hsl(180, 50%, 82%)"/><circle cx="72.9920305189" cy="105.1224660304" r="3" fill="hsl(51, 90%, 71%)"/><circle cx="93.66097819630001" cy="20.394448312299993" r="3" fill="hsl(180, 50%, 82%)"/><circle cx="13.6496368723" cy="93.15015561130001" r="3" fill="hsl(180, 50%, 82%)"/><circle cx="43.5697148404" cy="63.722484239799996" r="3" fill="hsl(51, 90%, 71%)"/><circle cx="61.0247941729" cy="95.34865595199999" r="3" fill="hsl(51, 90%, 71%)"/><circle cx="127.4929947868" cy="97.2600696049" r="3" fill="hsl(180, 50%, 82%)"/><circle cx="78.4591987141" cy="14.952513213700005" r="3" fill="hsl(180, 50%, 82%)"/><circle cx="55.9608140974" cy="92.92692415570001" r="3" fill="hsl(51, 90%, 71%)"/><circle cx="49.248393138400004" cy="81.5420174941" r="3" fill="hsl(51, 90%, 71%)"/><circle cx="56.5892607271" cy="101.2917003097" r="3" fill="hsl(51, 90%, 71%)"/><circle cx="97.47487854730001" cy="88.715852503" r="3" fill="hsl(51, 90%, 71%)"/><circle cx="126.362026993" cy="107.8258560268" r="3" fill="hsl(180, 50%, 82%)"/><circle cx="89.0689001029" cy="43.1658259669" r="3" fill="hsl(51, 90%, 71%)"/><circle cx="79.2790017766" cy="13.722642680800005" r="3" fill="hsl(180, 50%, 82%)"/><circle cx="82.4564466877" cy="47.4677320279" r="3" fill="hsl(51, 90%, 71%)"/><circle cx="107.08295395360001" cy="82.2924720787" r="3" fill="hsl(51, 90%, 71%)"/><circle cx="85.8985914976" cy="102.82058377390001" r="3" fill="hsl(51, 90%, 71%)"/><circle cx="88.2255657505" cy="101.977025155" r="3" fill="hsl(51, 90%, 71%)"/><circle cx="85.74491001790001" cy="103.0400198044" r="3" fill="hsl(51, 90%, 71%)"/><circle cx="73.68370547949999" cy="138.4246794661" r="3" fill="hsl(180, 50%, 82%)"/><circle cx="84.0410573779" cy="129.5172811048" r="3" fill="hsl(180, 50%, 82%)"/><circle cx="89.353719964" cy="18.644444941900005" r="3" fill="hsl(180, 50%, 82%)"/><circle cx="61.7781169306" cy="25.379912524900007" r="3" fill="hsl(180, 50%, 82%)"/><circle cx="125.0220941245" cy="40.5835181053" r="3" fill="hsl(180, 50%, 82%)"/><circle cx="103.5883692118" cy="83.64417814510001" r="3" fill="hsl(51, 90%, 71%)"/><circle cx="136.04811436239999" cy="69.8483836207" r="3" fill="hsl(180, 50%, 82%)"/><circle cx="69.2631346276" cy="41.5530534286" r="3" fill="hsl(51, 90%, 71%)"/><circle cx="55.2860653945" cy="48.2621061073" r="3" fill="hsl(51, 90%, 71%)"/><circle cx="129.20226136329998" cy="84.8227298593" r="3" fill="hsl(180, 50%, 82%)"/><circle cx="139" cy="67.6882045489" r="3" fill="hsl(180, 50%, 82%)"/><circle cx="22.1477583655" cy="103.7827193218" r="3" fill="hsl(180, 50%, 82%)"/><circle cx="44.5537941913" cy="80.4340876813" r="3" fill="hsl(51, 90%, 71%)"/><circle cx="19.792991875299997" cy="88.0780347328" r="3" fill="hsl(180, 50%, 82%)"/><circle cx="104.0016580186" cy="78.7078214461" r="3" fill="hsl(51, 90%, 71%)"/><circle cx="18.414876941800003" cy="76.0166130487" r="3" fill="hsl(180, 50%, 82%)"/><circle cx="125.00957792530001" cy="41.346926986" r="3" fill="hsl(180, 50%, 82%)"/><circle cx="68.9423050873" cy="16.905449618799995" r="3" fill="hsl(180, 50%, 82%)"/><circle cx="124.02843305350001" cy="49.58371675750001" r="3" fill="hsl(180, 50%, 82%)"/><circle cx="46.1605998862" cy="76.8955593217" r="3" fill="hsl(51, 90%, 71%)"/><circle cx="124.32700421140001" cy="56.41262454880001" r="3" fill="hsl(180, 50%, 82%)"/><circle cx="94.17339173830001" cy="53.3550370852" r="3" fill="hsl(51, 90%, 71%)"/><circle cx="120.8361684934" cy="111.60887981500001" r="3" fill="hsl(180, 50%, 82%)"/><circle cx="72.4282698427" cy="13.957712801799998" r="3" fill="hsl(180, 50%, 82%)"/><circle cx="45.279145543599995" cy="88.65061342330002" r="3" fill="hsl(51, 90%, 71%)"/><circle cx="128.6529651733" cy="101.2217028457" r="3" fill="hsl(180, 50%, 82%)"/><circle cx="48.4633140895" cy="24.837076977400002" r="3" fill="hsl(180, 50%, 82%)"/><circle cx="53.1273608314" cy="92.09428440639999" r="3" fill="hsl(51, 90%, 71%)"/><circle cx="81.49669636269999" cy="46.83180432700001" r="3" fill="hsl(51, 90%, 71%)"/><circle cx="101.704503496" cy="76.33562030920001" r="3" fill="hsl(51, 90%, 71%)"/><circle cx="92.49441886390001" cy="93.7171401652" r="3" fill="hsl(51, 90%, 71%)"/><circle cx="84.92394634239999" cy="101.39397518620001" r="3" fill="hsl(51, 90%, 71%)"/><circle cx="33.9753548431" cy="122.8936764136" r="3" fill="hsl(180, 50%, 82%)"/><circle cx="99.7583913973" cy="95.71948840780001" r="3" fill="hsl(51, 90%, 71%)"/><circle cx="47.5360254793" cy="68.0221976104" r="3" fill="hsl(51, 90%, 71%)"/><circle cx="99.1975050862" cy="81.9480570943" r="3" fill="hsl(51, 90%, 71%)"/><circle cx="103.1806443298" cy="125.82687207970001" r="3" fill="hsl(180, 50%, 82%)"/><circle cx="70.13128678689999" cy="44.33640866739999" r="3" fill="hsl(51, 90%, 71%)"/><circle cx="92.5388889823" cy="16.741920679" r="3" fill="hsl(180, 50%, 82%)"/><circle cx="83.75414762649999" cy="50.0528741098" r="3" fill="hsl(51, 90%, 71%)"/><circle cx="87.6281829787" cy="104.130361654" r="3" fill="hsl(51, 90%, 71%)"/><circle cx="60.8765337634" cy="49.572052216299994" r="3" fill="hsl(51, 90%, 71%)"/><circle cx="41.6806536754" cy="128.3889642352" r="3" fill="hsl(180, 50%, 82%)"/><circle cx="23.9857992952" cy="42.56946740349999" r="3" fill="hsl(180, 50%, 82%)"/><circle cx="101.0002539637" cy="88.7964873973" r="3" fill="hsl(51, 90%, 71%)"/><circle cx="72.52199341240001" cy="15.603006575499995" r="3" fill="hsl(180, 50%, 82%)"/><circle cx="55.865951664099995" cy="55.14691892529999" r="3" fill="hsl(51, 90%, 71%)"/><circle cx="66.3280837093" cy="102.7107944281" r="3" fill="hsl(51, 90%, 71%)"/><circle cx="73.6814323705" cy="104.1755122087" r="3" fill="hsl(51, 90%, 71%)"/><circle cx="72.1869472465" cy="41.6117771311" r="3" fill="hsl(51, 90%, 71%)"/><circle cx="38.9537842213" cy="23.9383131052" r="3" fill="hsl(180, 50%, 82%)"/><circle cx="78.64325050899998" cy="48.12979346470001" r="3" fill="hsl(51, 90%, 71%)"/><circle cx="80.7204135142" cy="104.40016488309999" r="3" fill="hsl(51, 90%, 71%)"/><circle cx="37.7971468594" cy="32.18957207139999" r="3" fill="hsl(180, 50%, 82%)"/><circle cx="83.9032074232" cy="42.4708150276" r="3" fill="hsl(51, 90%, 71%)"/><circle cx="91.10116121380001" cy="107.6305285741" r="3" fill="hsl(51, 90%, 71%)"/><circle cx="79.4764191196" cy="43.7846273956" r="3" fill="hsl(51, 90%, 71%)"/><circle cx="50.3584341136" cy="88.11066768219999" r="3" fill="hsl(51, 90%, 71%)"/><circle cx="35.6685332104" cy="34.8867755374" r="3" fill="hsl(180, 50%, 82%)"/><circle cx="126.6444068449" cy="51.7368161029" r="3" fill="hsl(180, 50%, 82%)"/><circle cx="87.7550878639" cy="136.559831485" r="3" fill="hsl(180, 50%, 82%)"/><circle cx="25.460908361199998" cy="103.56784998159999" r="3" fill="hsl(180, 50%, 82%)"/><circle cx="34.55759068" cy="121.097421925" r="3" fill="hsl(180, 50%, 82%)"/><circle cx="27.998094938199998" cy="106.9746358141" r="3" fill="hsl(180, 50%, 82%)"/><circle cx="94.6120517233" cy="88.9823910517" r="3" fill="hsl(51, 90%, 71%)"/><circle cx="44.925196672300004" cy="132.7251324511" r="3" fill="hsl(180, 50%, 82%)"/><circle cx="98.5216755697" cy="74.0318861545" r="3" fill="hsl(51, 90%, 71%)"/><circle cx="127.0184511298" cy="102.6852545824" r="3" fill="hsl(180, 50%, 82%)"/><circle cx="61.4439076651" cy="99.6703992718" r="3" fill="hsl(51, 90%, 71%)"/><circle cx="74.2853723413" cy="14.293878158799998" r="3" fill="hsl(180, 50%, 82%)"/><circle cx="76.09708202319999" cy="41.90201914600001" r="3" fill="hsl(51, 90%, 71%)"/><circle cx="106.5471045172" cy="70.20410505519999" r="3" fill="hsl(51, 90%, 71%)"/><circle cx="19.1073102547" cy="105.54096034839999" r="3" fill="hsl(180, 50%, 82%)"/><circle cx="33.3937109872" cy="45.942484454500004" r="3" fill="hsl(180, 50%, 82%)"/><circle cx="71.8636581535" cy="97.6419258202" r="3" fill="hsl(51, 90%, 71%)"/><circle cx="134.4842578759" cy="69.2070147643" r="3" fill="hsl(180, 50%, 82%)"/><circle cx="51.180167222499996" cy="102.4184953405" r="3" fill="hsl(51, 90%, 71%)"/><circle cx="126.79612091979999" cy="47.007696085000006" r="3" fill="hsl(180, 50%, 82%)"/><circle cx="23.8535909104" cy="107.5445301823" r="3" fill="hsl(180, 50%, 82%)"/><circle cx="134.1527313073" cy="73.317882829" r="3" fill="hsl(180, 50%, 82%)"/><circle cx="98.6692576198" cy="69.0731744908" r="3" fill="hsl(51, 90%, 71%)"/><circle cx="115.483063672" cy="30.8389564807" r="3" fill="hsl(180, 50%, 82%)"/><circle cx="19.8255820225" cy="52.35131578149999" r="3" fill="hsl(180, 50%, 82%)"/><circle cx="136.1593436449" cy="79.6599024889" r="3" fill="hsl(180, 50%, 82%)"/><circle cx="29.307552511300003" cy="43.010667140500004" r="3" fill="hsl(180, 50%, 82%)"/><circle cx="51.94176819399999" cy="93.4859900575" r="3" fill="hsl(51, 90%, 71%)"/><circle cx="75.0601041712" cy="46.075936386399995" r="3" fill="hsl(51, 90%, 71%)"/><circle cx="62.5060835515" cy="132.6756642535" r="3" fill="hsl(180, 50%, 82%)"/><circle cx="130.9566887758" cy="82.4405722831" r="3" fill="hsl(180, 50%, 82%)"/><circle cx="21.3918082261" cy="63.29026403800001" r="3" fill="hsl(180, 50%, 82%)"/><circle cx="46.6732043224" cy="129.33984378489998" r="3" fill="hsl(180, 50%, 82%)"/><circle cx="60.1676458684" cy="101.44959703209999" r="3" fill="hsl(51, 90%, 71%)"/><circle cx="12.7134972367" cy="70.2076685383" r="3" fill="hsl(180, 50%, 82%)"/><circle cx="100.59849614439999" cy="63.170764771900004" r="3" fill="hsl(51, 90%, 71%)"/><circle cx="22.3818973129" cy="54.10073936139999" r="3" fill="hsl(180, 50%, 82%)"/><circle cx="46.6668643336" cy="66.4820203768" r="3" fill="hsl(51, 90%, 71%)"/><circle cx="71.9479774942" cy="108.0380469142" r="3" fill="hsl(51, 90%, 71%)"/><circle cx="102.7750739026" cy="60.2256686881" r="3" fill="hsl(51, 90%, 71%)"/><circle cx="20.785722972400002" cy="95.2145849362" r="3" fill="hsl(180, 50%, 82%)"/><circle cx="78.6181569775" cy="137.6896190578" r="3" fill="hsl(180, 50%, 82%)"/><circle cx="49.5866862214" cy="59.111551557999995" r="3" fill="hsl(51, 90%, 71%)"/><circle cx="70.8911555722" cy="134.45477860239998" r="3" fill="hsl(180, 50%, 82%)"/><circle cx="14.710692819400002" cy="74.89114933660001" r="3" fill="hsl(180, 50%, 82%)"/><circle cx="96.0432421072" cy="51.8868206182" r="3" fill="hsl(51, 90%, 71%)"/><circle cx="99.0690503563" cy="72.6399727747" r="3" fill="hsl(51, 90%, 71%)"/><circle cx="57.281579965300004" cy="101.5570020967" r="3" fill="hsl(51, 90%, 71%)"/><circle cx="50.3339364718" cy="83.04878273439999" r="3" fill="hsl(51, 90%, 71%)"/><circle cx="50.0182480975" cy="57.5349169765" r="3" fill="hsl(51, 90%, 71%)"/><circle cx="129.6814958215" cy="103.30664079699999" r="3" fill="hsl(180, 50%, 82%)"/><circle cx="18.216721280199998" cy="91.67903180680001" r="3" fill="hsl(180, 50%, 82%)"/><circle cx="113.338265167" cy="30.150114256899993" r="3" fill="hsl(180, 50%, 82%)"/><circle cx="101.3887443136" cy="91.93882584849999" r="3" fill="hsl(51, 90%, 71%)"/><circle cx="42.4814157445" cy="126.2842867813" r="3" fill="hsl(180, 50%, 82%)"/><circle cx="113.2643696455" cy="29.8859138074" r="3" fill="hsl(180, 50%, 82%)"/><circle cx="106.8103978903" cy="22.236028176399998" r="3" fill="hsl(180, 50%, 82%)"/><circle cx="29.3278088395" cy="36.2903438866" r="3" fill="hsl(180, 50%, 82%)"/><circle cx="41.321928592" cy="23.9803353583" r="3" fill="hsl(180, 50%, 82%)"/><circle cx="76.39353327250001" cy="20.6458618174" r="3" fill="hsl(180, 50%, 82%)"/><circle cx="91.71512404600001" cy="133.322320678" r="3" fill="hsl(180, 50%, 82%)"/><circle cx="96.73135995729999" cy="62.1804699172" r="3" fill="hsl(51, 90%, 71%)"/><circle cx="120.0673015582" cy="116.5681589755" r="3" fill="hsl(180, 50%, 82%)"/><circle cx="61.828532181700005" cy="21.328592240500008" r="3" fill="hsl(180, 50%, 82%)"/><circle cx="113.83417781589999" cy="28.527163696000002" r="3" fill="hsl(180, 50%, 82%)"/><circle cx="83.7007122919" cy="44.7331288045" r="3" fill="hsl(51, 90%, 71%)"/><circle cx="114.8073768682" cy="35.344359254800004" r="3" fill="hsl(180, 50%, 82%)"/><circle cx="45.6691000822" cy="64.8945718414" r="3" fill="hsl(51, 90%, 71%)"/><circle cx="46.0971228562" cy="83.5161724126" r="3" fill="hsl(51, 90%, 71%)"/><circle cx="76.7732358199" cy="107.3545237474" r="3" fill="hsl(51, 90%, 71%)"/><circle cx="114.8721288181" cy="122.3764954057" r="3" fill="hsl(180, 50%, 82%)"/><circle cx="119.43192873790001" cy="39.993977230599995" r="3" fill="hsl(180, 50%, 82%)"/><circle cx="55.3556347978" cy="89.6627422504" r="3" fill="hsl(51, 90%, 71%)"/><circle cx="46.155002215" cy="79.9676438827" r="3" fill="hsl(51, 90%, 71%)"/><circle cx="36.497273250999996" cy="115.8592479895" r="3" fill="hsl(180, 50%, 82%)"/><circle cx="70.5287214808" cy="104.3503628206" r="3" fill="hsl(51, 90%, 71%)"/><circle cx="49.073748217" cy="54.917430802" r="3" fill="hsl(51, 90%, 71%)"/><circle cx="18.458452703200003" cy="92.3148070168" r="3" fill="hsl(180, 50%, 82%)"/><circle cx="111.9030818203" cy="125.837228677" r="3" fill="hsl(180, 50%, 82%)"/><circle cx="26.229638840199996" cy="39.7413674569" r="3" fill="hsl(180, 50%, 82%)"/><circle cx="49.7155211272" cy="52.4452601476" r="3" fill="hsl(51, 90%, 71%)"/><circle cx="51.0160365751" cy="55.0667193802" r="3" fill="hsl(51, 90%, 71%)"/><circle cx="51.207155660800005" cy="58.053558599800006" r="3" fill="hsl(51, 90%, 71%)"/><circle cx="109.9999480195" cy="122.897041714" r="3" fill="hsl(180, 50%, 82%)"/><circle cx="45.0614268772" cy="81.50873220460001" r="3" fill="hsl(51, 90%, 71%)"/><circle cx="78.42090576070001" cy="128.1549273784" r="3" fill="hsl(180, 50%, 82%)"/><circle cx="115.30070545360002" cy="123.5972288944" r="3" fill="hsl(180, 50%, 82%)"/><circle cx="99.71039096170001" cy="126.80295830680001" r="3" fill="hsl(180, 50%, 82%)"/><circle cx="129.0297971611" cy="98.6638038997" r="3" fill="hsl(180, 50%, 82%)"/><circle cx="103.8341588071" cy="65.750836225" r="3" fill="hsl(51, 90%, 71%)"/><circle cx="66.20199718719999" cy="16.602884362900003" r="3" fill="hsl(180, 50%, 82%)"/><circle cx="124.6717937215" cy="40.194427183" r="3" fill="hsl(180, 50%, 82%)"/><circle cx="114.2597823559" cy="121.26256389369999" r="3" fill="hsl(180, 50%, 82%)"/><circle cx="123.50714440179999" cy="106.2075067282" r="3" fill="hsl(180, 50%, 82%)"/><circle cx="18.4055179531" cy="81.62975803089999" r="3" fill="hsl(180, 50%, 82%)"/><circle cx="22.7037707083" cy="56.051535759699995" r="3" fill="hsl(180, 50%, 82%)"/><circle cx="43.063691623" cy="126.2348847865" r="3" fill="hsl(180, 50%, 82%)"/><circle cx="53.355020715100004" cy="104.52054599320002" r="3" fill="hsl(51, 90%, 71%)"/><circle cx="48.3404596366" cy="92.83919267469999" r="3" fill="hsl(51, 90%, 71%)"/><circle cx="103.5047145823" cy="25.8626464822" r="3" fill="hsl(180, 50%, 82%)"/><circle cx="94.48763163609999" cy="59.3021610421" r="3" fill="hsl(51, 90%, 71%)"/><circle cx="47.4654592285" cy="61.9037625823" r="3" fill="hsl(51, 90%, 71%)"/><circle cx="55.122908761599994" cy="19.800047839900003" r="3" fill="hsl(180, 50%, 82%)"/><circle cx="74.95458682809999" cy="44.853575524" r="3" fill="hsl(51, 90%, 71%)"/><circle cx="74.09149326190001" cy="48.2478125203" r="3" fill="hsl(51, 90%, 71%)"/><circle cx="130.1730049909" cy="54.933522752200005" r="3" fill="hsl(180, 50%, 82%)"/><circle cx="88.7006850313" cy="48.493621052799995" r="3" fill="hsl(51, 90%, 71%)"/><circle cx="59.263062122499996" cy="99.4914045736" r="3" fill="hsl(51, 90%, 71%)"/><circle cx="103.39179982449998" cy="82.16809186540002" r="3" fill="hsl(51, 90%, 71%)"/><circle cx="126.941528791" cy="109.63050798969999" r="3" fill="hsl(180, 50%, 82%)"/><circle cx="38.5685022433" cy="124.6410233386" r="3" fill="hsl(180, 50%, 82%)"/><circle cx="46.6654952953" cy="28.375468829200003" r="3" fill="hsl(180, 50%, 82%)"/><circle cx="108.2127346378" cy="80.18689750719999" r="3" fill="hsl(51, 90%, 71%)"/><circle cx="98.13980254570001" cy="94.45462323219999" r="3" fill="hsl(51, 90%, 71%)"/><circle cx="18.7991580733" cy="55.6897712041" r="3" fill="hsl(180, 50%, 82%)"/><circle cx="29.950855967800003" cy="110.5464074608" r="3" fill="hsl(180, 50%, 82%)"/><circle cx="30.639715916200004" cy="114.9847128199" r="3" fill="hsl(180, 50%, 82%)"/><circle cx="127.0529042821" cy="50.2327038895" r="3" fill="hsl(180, 50%, 82%)"/><circle cx="59.9522613667" cy="52.0631369023" r="3" fill="hsl(51, 90%, 71%)"/><circle cx="17.4314790205" cy="45.670592844400005" r="3" fill="hsl(180, 50%, 82%)"/><circle cx="48.333158056" cy="63.3217159537" r="3" fill="hsl(51, 90%, 71%)"/><circle cx="28.066667881" cy="96.86903871610001" r="3" fill="hsl(180, 50%, 82%)"/><circle cx="126.2443295602" cy="96.2872173433" r="3" fill="hsl(180, 50%, 82%)"/><circle cx="104.5823890576" cy="67.0448983834" r="3" fill="hsl(51, 90%, 71%)"/><circle cx="59.6974180999" cy="96.327221701" r="3" fill="hsl(51, 90%, 71%)"/><circle cx="70.44668967129999" cy="48.8820314098" r="3" fill="hsl(51, 90%, 71%)"/><circle cx="106.9987727332" cy="74.82373486539998" r="3" fill="hsl(51, 90%, 71%)"/><circle cx="49.27865615140001" cy="96.8161400086" r="3" fill="hsl(51, 90%, 71%)"/><circle cx="136.5255464971" cy="84.1767717247" r="3" fill="hsl(180, 50%, 82%)"/><circle cx="43.6224814132" cy="80.3190586909" r="3" fill="hsl(51, 90%, 71%)"/><circle cx="126.90683842060001" cy="48.3550658164" r="3" fill="hsl(180, 50%, 82%)"/><circle cx="65.2117001008" cy="47.845728911500004" r="3" fill="hsl(51, 90%, 71%)"/><circle cx="83.2233716569" cy="43.8673550569" r="3" fill="hsl(51, 90%, 71%)"/><circle cx="105.0286506514" cy="60.6940393855" r="3" fill="hsl(51, 90%, 71%)"/><circle cx="123.4313222008" cy="101.9788106569" r="3" fill="hsl(180, 50%, 82%)"/><circle cx="58.210985284900005" cy="100.6624885939" r="3" fill="hsl(51, 90%, 71%)"/><circle cx="134.49109278609998" cy="66.14591438560001" r="3" fill="hsl(180, 50%, 82%)"/><circle cx="50.8211396857" cy="78.0757447822" r="3" fill="hsl(51, 90%, 71%)"/><circle cx="17.8249075291" cy="79.170868636" r="3" fill="hsl(180, 50%, 82%)"/><circle cx="95.6115818686" cy="57.0937409368" r="3" fill="hsl(51, 90%, 71%)"/><circle cx="90.3441732307" cy="46.510732744" r="3" fill="hsl(51, 90%, 71%)"/><circle cx="52.157847489699996" cy="20.7639400582" r="3" fill="hsl(180, 50%, 82%)"/><circle cx="71.20202370669999" cy="130.7414195872" r="3" fill="hsl(180, 50%, 82%)"/><circle cx="66.9555797896" cy="94.9961814991" r="3" fill="hsl(51, 90%, 71%)"/><circle cx="99.47009568280001" cy="90.6146332891" r="3" fill="hsl(51, 90%, 71%)"/><circle cx="99.6601428301" cy="53.1834475417" r="3" fill="hsl(51, 90%, 71%)"/><circle cx="89.8171445305" cy="48.670453723899996" r="3" fill="hsl(51, 90%, 71%)"/><circle cx="71.39681494509999" cy="104.19959245809999" r="3" fill="hsl(51, 90%, 71%)"/><circle cx="71.30910802570001" cy="135.510014392" r="3" fill="hsl(180, 50%, 82%)"/><circle cx="83.7004159015" cy="103.36748607220001" r="3" fill="hsl(51, 90%, 71%)"/><circle cx="52.940860100500004" cy="23.3450016508" r="3" fill="hsl(180, 50%, 82%)"/><circle cx="86.12307762009999" cy="49.258711706499994" r="3" fill="hsl(51, 90%, 71%)"/><circle cx="102.7729329928" cy="66.2734916446" r="3" fill="hsl(51, 90%, 71%)"/><circle cx="132.2441440831" cy="56.245001858500004" r="3" fill="hsl(180, 50%, 82%)"/><circle cx="44.7929133772" cy="72.2728857694" r="3" fill="hsl(51, 90%, 71%)"/><circle cx="42.810523705" cy="20.6855839876" r="3" fill="hsl(180, 50%, 82%)"/><circle cx="104.1138818395" cy="60.96531369190001" r="3" fill="hsl(51, 90%, 71%)"/><circle cx="109.3829614144" cy="25.130532833799997" r="3" fill="hsl(180, 50%, 82%)"/><circle cx="101.4768929032" cy="85.30161376000001" r="3" fill="hsl(51, 90%, 71%)"/><circle cx="87.7174584091" cy="16.546359336399995" r="3" fill="hsl(180, 50%, 82%)"/><circle cx="104.0839566001" cy="26.351005213599997" r="3" fill="hsl(180, 50%, 82%)"/><circle cx="100.4001591733" cy="61.7873006599" r="3" fill="hsl(51, 90%, 71%)"/><circle cx="94.33445686840001" cy="18.606270113799994" r="3" fill="hsl(180, 50%, 82%)"/><circle cx="104.2143444853" cy="123.1497101698" r="3" fill="hsl(180, 50%, 82%)"/><circle cx="47.7031636714" cy="89.4586719775" r="3" fill="hsl(51, 90%, 71%)"/><circle cx="55.4838889327" cy="95.9237694796" r="3" fill="hsl(51, 90%, 71%)"/><circle cx="64.295390113" cy="101.5978963222" r="3" fill="hsl(51, 90%, 71%)"/><circle cx="18.2856374146" cy="71.5107929209" r="3" fill="hsl(180, 50%, 82%)"/><circle cx="117.4043678839" cy="113.02618196860001" r="3" fill="hsl(180, 50%, 82%)"/><circle cx="76.8359764018" cy="14.017190031999995" r="3" fill="hsl(180, 50%, 82%)"/><circle cx="45.550801432" cy="76.27091577969999" r="3" fill="hsl(51, 90%, 71%)"/><circle cx="14.0383372471" cy="83.6163226978" r="3" fill="hsl(180, 50%, 82%)"/><circle cx="76.1482193776" cy="132.1799849269" r="3" fill="hsl(180, 50%, 82%)"/><circle cx="122.88432362980001" cy="42.06095894949999" r="3" fill="hsl(180, 50%, 82%)"/><circle cx="103.3829106151" cy="21.683917451499994" r="3" fill="hsl(180, 50%, 82%)"/><circle cx="79.3993046095" cy="110.27249146659999" r="3" fill="hsl(51, 90%, 71%)"/><circle cx="133.4498782258" cy="74.33543279080001" r="3" fill="hsl(180, 50%, 82%)"/><circle cx="91.7567216182" cy="126.4385164465" r="3" fill="hsl(180, 50%, 82%)"/><circle cx="47.014066092099995" cy="65.1418872358" r="3" fill="hsl(51, 90%, 71%)"/><circle cx="64.64078075020001" cy="106.42446971259999" r="3" fill="hsl(51, 90%, 71%)"/><circle cx="30.5028701233" cy="42.53179554639999" r="3" fill="hsl(180, 50%, 82%)"/><circle cx="52.7283134182" cy="56.58140260180001" r="3" fill="hsl(51, 90%, 71%)"/><circle cx="84.4056829858" cy="43.732093745200004" r="3" fill="hsl(51, 90%, 71%)"/><circle cx="101.66606224419999" cy="87.92859130299999" r="3" fill="hsl(51, 90%, 71%)"/><circle cx="66.458006485" cy="135.52538192979998" r="3" fill="hsl(180, 50%, 82%)"/><circle cx="43.3741426876" cy="73.8020895406" r="3" fill="hsl(51, 90%, 71%)"/><circle cx="107.3545591063" cy="72.1097920111" r="3" fill="hsl(51, 90%, 71%)"/><circle cx="31.5545628763" cy="32.6177754841" r="3" fill="hsl(180, 50%, 82%)"/><circle cx="93.2478415579" cy="100.1173585879" r="3" fill="hsl(51, 90%, 71%)"/><circle cx="34.9351300909" cy="30.926636542300006" r="3" fill="hsl(180, 50%, 82%)"/><circle cx="81.4252347229" cy="102.46751990710001" r="3" fill="hsl(51, 90%, 71%)"/><circle cx="50.2779895459" cy="133.8149121832" r="3" fill="hsl(180, 50%, 82%)"/><circle cx="70.6410909814" cy="15.140244449799994" r="3" fill="hsl(180, 50%, 82%)"/><circle cx="82.49883896440001" cy="42.34432468389999" r="3" fill="hsl(51, 90%, 71%)"/><circle cx="100.2312901624" cy="17.923278065799998" r="3" fill="hsl(180, 50%, 82%)"/><circle cx="57.3793677832" cy="54.288647017900004" r="3" fill="hsl(51, 90%, 71%)"/><circle cx="46.225985213200005" cy="76.1018737669" r="3" fill="hsl(51, 90%, 71%)"/><circle cx="100.61789348740001" cy="130.4859165886" r="3" fill="hsl(180, 50%, 82%)"/><circle cx="96.5614863202" cy="51.998418092499996" r="3" fill="hsl(51, 90%, 71%)"/><circle cx="133.3648844473" cy="107.15965777929999" r="3" fill="hsl(180, 50%, 82%)"/><circle cx="22.4703264259" cy="103.943791405" r="3" fill="hsl(180, 50%, 82%)"/><circle cx="21.9164006065" cy="103.1664110503" r="3" fill="hsl(180, 50%, 82%)"/><circle cx="60.8670614611" cy="53.11844134569999" r="3" fill="hsl(51, 90%, 71%)"/><circle cx="64.9778131936" cy="134.0583231862" r="3" fill="hsl(180, 50%, 82%)"/><circle cx="49.6423004434" cy="60.167521293099995" r="3" fill="hsl(51, 90%, 71%)"/><circle cx="17.784441532" cy="83.98529311600001" r="3" fill="hsl(180, 50%, 82%)"/><circle cx="92.93501449390001" cy="98.2179024352" r="3" fill="hsl(51, 90%, 71%)"/><circle cx="101.38133773989999" cy="80.8284657331" r="3" fill="hsl(51, 90%, 71%)"/><circle cx="102.93045820809999" cy="70.45227365560001" r="3" fill="hsl(51, 90%, 71%)"/><circle cx="67.2018054694" cy="43.58186164810001" r="3" fill="hsl(51, 90%, 71%)"/><circle cx="99.1844954491" cy="133.5069200908" r="3" fill="hsl(180, 50%, 82%)"/><circle cx="42.7411855471" cy="22.785701201199995" r="3" fill="hsl(180, 50%, 82%)"/><circle cx="16.049657646100002" cy="69.9950824207" r="3" fill="hsl(180, 50%, 82%)"/><circle cx="103.23365422239999" cy="91.0727773438" r="3" fill="hsl(51, 90%, 71%)"/><circle cx="71.52702751929999" cy="107.2285249195" r="3" fill="hsl(51, 90%, 71%)"/><circle cx="87.84564928239999" cy="102.8597210323" r="3" fill="hsl(51, 90%, 71%)"/><circle cx="88.9872123106" cy="102.2623887769" r="3" fill="hsl(51, 90%, 71%)"/><circle cx="44.2713576052" cy="82.4472619522" r="3" fill="hsl(51, 90%, 71%)"/><circle cx="32.1784329085" cy="32.136283512999995" r="3" fill="hsl(180, 50%, 82%)"/><circle cx="54.071263777300004" cy="22.556217747700007" r="3" fill="hsl(180, 50%, 82%)"/><circle cx="103.9387954414" cy="62.8555163005" r="3" fill="hsl(51, 90%, 71%)"/><circle cx="18.6030930889" cy="64.08296894770001" r="3" fill="hsl(180, 50%, 82%)"/><circle cx="45.4927361584" cy="62.752200007" r="3" fill="hsl(51, 90%, 71%)"/><circle cx="94.8694276987" cy="51.78745002189999" r="3" fill="hsl(51, 90%, 71%)"/><circle cx="81.645400945" cy="16.737499810299994" r="3" fill="hsl(180, 50%, 82%)"/><circle cx="69.8607137116" cy="44.2587308014" r="3" fill="hsl(51, 90%, 71%)"/><circle cx="107.6731571659" cy="68.3231360086" r="3" fill="hsl(51, 90%, 71%)"/><circle cx="45.92085367000001" cy="72.0365017705" r="3" fill="hsl(51, 90%, 71%)"/><circle cx="83.4969715366" cy="108.7443622396" r="3" fill="hsl(51, 90%, 71%)"/><circle cx="111.3711292417" cy="17.718094548700005" r="3" fill="hsl(180, 50%, 82%)"/><circle cx="23.6505007408" cy="45.109776206199996" r="3" fill="hsl(180, 50%, 82%)"/><circle cx="51.498380617" cy="85.1618103067" r="3" fill="hsl(51, 90%, 71%)"/><circle cx="97.0873455451" cy="93.80012556850001" r="3" fill="hsl(51, 90%, 71%)"/><circle cx="96.72793363989999" cy="60.51319329219999" r="3" fill="hsl(51, 90%, 71%)"/><circle cx="82.6907886166" cy="103.1757434392" r="3" fill="hsl(51, 90%, 71%)"/><circle cx="111.64627810180001" cy="26.626910503900003" r="3" fill="hsl(180, 50%, 82%)"/><circle cx="47.03664222730001" cy="91.3317978499" r="3" fill="hsl(51, 90%, 71%)"/><circle cx="85.7130753592" cy="16.802794347100004" r="3" fill="hsl(180, 50%, 82%)"/><circle cx="65.24593827460001" cy="100.51763392630001" r="3" fill="hsl(51, 90%, 71%)"/><circle cx="74.5191113242" cy="105.76204201899999" r="3" fill="hsl(51, 90%, 71%)"/><circle cx="17.7247782064" cy="79.32109855300001" r="3" fill="hsl(180, 50%, 82%)"/><circle cx="94.9847918827" cy="49.3655594008" r="3" fill="hsl(51, 90%, 71%)"/><circle cx="115.4156906227" cy="40.1593375576" r="3" fill="hsl(180, 50%, 82%)"/><circle cx="73.10606761540001" cy="137.97323604550002" r="3" fill="hsl(180, 50%, 82%)"/><circle cx="48.552436267900006" cy="72.1049960491" r="3" fill="hsl(51, 90%, 71%)"/><circle cx="41.0723666368" cy="124.27092921430001" r="3" fill="hsl(180, 50%, 82%)"/><circle cx="32.505393663999996" cy="111.9829637932" r="3" fill="hsl(180, 50%, 82%)"/><circle cx="132.8345694979" cy="88.6114911934" r="3" fill="hsl(180, 50%, 82%)"/><circle cx="96.65348068360001" cy="129.3381067225" r="3" fill="hsl(180, 50%, 82%)"/><circle cx="117.4639599499" cy="28.8495588964" r="3" fill="hsl(180, 50%, 82%)"/><circle cx="115.88421010870002" cy="31.0794325918" r="3" fill="hsl(180, 50%, 82%)"/><circle cx="21.8074727614" cy="82.6897378729" r="3" fill="hsl(180, 50%, 82%)"/><circle cx="70.26733511469999" cy="130.47089668" r="3" fill="hsl(180, 50%, 82%)"/><circle cx="99.2519350108" cy="93.490758607" r="3" fill="hsl(51, 90%, 71%)"/><circle cx="86.0014319101" cy="102.7335191326" r="3" fill="hsl(51, 90%, 71%)"/><circle cx="96.8646394549" cy="49.5107864398" r="3" fill="hsl(51, 90%, 71%)"/><circle cx="65.5638123475" cy="102.51278287240001" r="3" fill="hsl(51, 90%, 71%)"/><circle cx="51.3939855352" cy="94.8479010688" r="3" fill="hsl(51, 90%, 71%)"/><circle cx="90.5855037346" cy="102.1674890368" r="3" fill="hsl(51, 90%, 71%)"/><circle cx="30.931681771" cy="106.6834923472" r="3" fill="hsl(180, 50%, 82%)"/><circle cx="95.0791318402" cy="51.27323669769999" r="3" fill="hsl(51, 90%, 71%)"/><circle cx="92.5857654022" cy="94.6368444268" r="3" fill="hsl(51, 90%, 71%)"/><circle cx="65.60022796390001" cy="132.82724353630002" r="3" fill="hsl(180, 50%, 82%)"/><circle cx="28.0665681511" cy="39.7556179837" r="3" fill="hsl(180, 50%, 82%)"/><circle cx="52.3010941336" cy="51.613749664299995" r="3" fill="hsl(51, 90%, 71%)"/><circle cx="83.5997300986" cy="100.7627261476" r="3" fill="hsl(51, 90%, 71%)"/><circle cx="73.31619992079999" cy="105.79904977119999" r="3" fill="hsl(51, 90%, 71%)"/><circle cx="58.823779067500006" cy="46.4427858124" r="3" fill="hsl(51, 90%, 71%)"/><circle cx="88.54967618650001" cy="134.68190171709998" r="3" fill="hsl(180, 50%, 82%)"/><circle cx="136.75488031060002" cy="82.4145684502" r="3" fill="hsl(180, 50%, 82%)"/><circle cx="93.33561315789999" cy="100.33693749880001" r="3" fill="hsl(51, 90%, 71%)"/><circle cx="12.8902101958" cy="58.41443194600001" r="3" fill="hsl(180, 50%, 82%)"/><circle cx="50.8883319931" cy="100.8338686414" r="3" fill="hsl(51, 90%, 71%)"/><circle cx="107.0009456092" cy="62.105148416800006" r="3" fill="hsl(51, 90%, 71%)"/><circle cx="58.1415702946" cy="20.574781656399995" r="3" fill="hsl(180, 50%, 82%)"/><circle cx="63.428610423399995" cy="51.6555812941" r="3" fill="hsl(51, 90%, 71%)"/><circle cx="126.2334104197" cy="38.05545249910001" r="3" fill="hsl(180, 50%, 82%)"/><circle cx="45.5678031418" cy="124.33355884330001" r="3" fill="hsl(180, 50%, 82%)"/><circle cx="58.9719907279" cy="48.007478347900005" r="3" fill="hsl(51, 90%, 71%)"/><circle cx="100.48034534109999" cy="87.1836564349" r="3" fill="hsl(51, 90%, 71%)"/><circle cx="58.038155161300004" cy="129.76057020279998" r="3" fill="hsl(180, 50%, 82%)"/><circle cx="99.1543314565" cy="86.851853716" r="3" fill="hsl(51, 90%, 71%)"/><circle cx="108.4818448531" cy="26.5979469982" r="3" fill="hsl(180, 50%, 82%)"/><circle cx="88.47369118750001" cy="135.4584981646" r="3" fill="hsl(180, 50%, 82%)"/><circle cx="73.68721523410001" cy="42.8691271279" r="3" fill="hsl(51, 90%, 71%)"/><circle cx="51.025649668" cy="90.5437050772" r="3" fill="hsl(51, 90%, 71%)"/><circle cx="38.1749691673" cy="26.212364669500005" r="3" fill="hsl(180, 50%, 82%)"/><circle cx="100.528594063" cy="92.9656073857" r="3" fill="hsl(51, 90%, 71%)"/><circle cx="62.0592233719" cy="11.113063883800006" r="3" fill="hsl(180, 50%, 82%)"/><circle cx="37.3482622828" cy="30.962991593199995" r="3" fill="hsl(180, 50%, 82%)"/><circle cx="92.43272630380001" cy="48.35501152030001" r="3" fill="hsl(51, 90%, 71%)"/><circle cx="130.8158806834" cy="90.27836999530001" r="3" fill="hsl(180, 50%, 82%)"/><circle cx="104.73419282619999" cy="55.931096199699994" r="3" fill="hsl(51, 90%, 71%)"/><circle cx="109.3025984392" cy="123.7719169276" r="3" fill="hsl(180, 50%, 82%)"/><circle cx="133.3759966105" cy="60.0231121528" r="3" fill="hsl(180, 50%, 82%)"/><circle cx="50.5554973516" cy="64.46946365470001" r="3" fill="hsl(51, 90%, 71%)"/><circle cx="85.3397512684" cy="139" r="3" fill="hsl(180, 50%, 82%)"/><circle cx="102.1415776453" cy="73.48808131389998" r="3" fill="hsl(51, 90%, 71%)"/><circle cx="70.699719082" cy="44.3925200038" r="3" fill="hsl(51, 90%, 71%)"/><circle cx="80.8493432479" cy="138.248367826" r="3" fill="hsl(180, 50%, 82%)"/><circle cx="10" cy="59.66302561629999" r="3" fill="hsl(180, 50%, 82%)"/><circle cx="95.69512430680001" cy="21.068618682399993" r="3" fill="hsl(180, 50%, 82%)"/><circle cx="53.489370228999995" cy="134.5755716482" r="3" fill="hsl(180, 50%, 82%)"/></g></svg>