<svg class="plot-b62cbc8852b3c" fill="currentColor" font-family="system-ui, sans-serif" font-size="10" text-anchor="middle" width="150" height="150" viewBox="0 0 150 150" xmlns="http://www.w3.org/2000/svg" xmlns:xlink="http://www.w3.org/1999/xlink"><style>
        .plot-b62cbc8852b3c {
          display: block;
          background: white;
          height: auto;
          height: intrinsic;
          max-width: 100%;
        }
        .plot-b62cbc8852b3c text,
        .plot-b62cbc8852b3c tspan {
          white-space: pre;
        }
      </style><g aria-label="dot" fill-opacity="0.3" transform="translate(0.5,0.5)"><circle cx="81.4063378612" cy="123.4891711414" r="3" fill="hsl(51, 90%, 71%)"/><circle cx="111.4538907397" cy="125.7352988239" r="3" fill="hsl(51, 90%, 71%)"/><circle cx="88.689647314" cy="60.248034656499996" r="3" fill="hsl(180, 50%, 82%)"/><circle cx="72.4898092798" cy="31.499911162000007" r="3" fill="hsl(180, 50%, 82%)"/><circle cx="134.361841249" cy="78.7141732126" r="3" fill="hsl(51, 90%, 71%)"/><circle cx="31.6972054906" cy="24.6276222961" r="3" fill="hsl(180, 50%, 82%)"/><circle cx="86.5405606555" cy="48.235218611499995" r="3" fill="hsl(180, 50%, 82%)"/><circle cx="53.8200691207" cy="66.6654952837" r="3" fill="hsl(51, 90%, 71%)"/><circle cx="38.131733179" cy="16.653243550600006" r="3" fill="hsl(180, 50%, 82%)"/><circle cx="117.90618266979999" cy="118.7946637714" r="3" fill="hsl(51, 90%, 71%)"/><circle cx="93.8678934481" cy="84.1445050321" r="3" fill="hsl(180, 50%, 82%)"/><circle cx="65.1156463525" cy="94.3752671149" r="3" fill="hsl(51, 90%, 71%)"/><circle cx="20.121278170300002" cy="38.182663720600004" r="3" fill="hsl(180, 50%, 82%)"/><circle cx="28.7318988478" cy="37.8262964734" r="3" fill="hsl(180, 50%, 82%)"/><circle cx="59.822555182" cy="17.3952068392" r="3" fill="hsl(180, 50%, 82%)"/><circle cx="89.5028927518" cy="129.56161783720003" r="3" fill="hsl(51, 90%, 71%)"/><circle cx="111.88911732519999" cy="122.92050499509999" r="3" fill="hsl(51, 90%, 71%)"/><circle cx="11.6079034849" cy="88.434251824" r="3" fill="hsl(180, 50%, 82%)"/><circle cx="86.20137457" cy="38.378509701700004" r="3" fill="hsl(180, 50%, 82%)"/><circle cx="94.8909613333" cy="90.5084253058" r="3" fill="hsl(180, 50%, 82%)"/><circle cx="70.09392041470001" cy="25.075431244899995" r="3" fill="hsl(180, 50%, 82%)"/><circle cx="95.0507198998" cy="135.524520571" r="3" fill="hsl(51, 90%, 71%)"/><circle cx="66.3216489442" cy="24.5047576264" r="3" fill="hsl(180, 50%, 82%)"/><circle cx="22.3332761938" cy="43.3905946639" r="3" fill="hsl(180, 50%, 82%)"/><circle cx="82.9417906504" cy="41.72167871980001" r="3" fill="hsl(180, 50%, 82%)"/><circle cx="55.034662660900004" cy="75.1366348918" r="3" fill="hsl(51, 90%, 71%)"/><circle cx="20.7548926045" cy="40.7422494448" r="3" fill="hsl(180, 50%, 82%)"/><circle cx="58.2333181906" cy="95.1958096441" r="3" fill="hsl(51, 90%, 71%)"/><circle cx="85.9432509493" cy="123.0634962835" r="3" fill="hsl(51, 90%, 71%)"/><circle cx="103.33946843319998" cy="127.28873324559999" r="3" fill="hsl(51, 90%, 71%)"/><circle cx="122.92727352189999" cy="96.52132297" r="3" fill="hsl(51, 90%, 71%)"/><circle cx="68.2948316155" cy="116.1196309162" r="3" fill="hsl(51, 90%, 71%)"/><circle cx="97.56842801859999" cy="85.96404958059999" r="3" fill="hsl(180, 50%, 82%)"/><circle cx="111.00691591779999" cy="123.211151425" r="3" fill="hsl(51, 90%, 71%)"/><circle cx="68.5609811389" cy="99.4551501943" r="3" fill="hsl(51, 90%, 71%)"/><circle cx="120.9032514604" cy="104.7771320887" r="3" fill="hsl(51, 90%, 71%)"/><circle cx="74.7444500077" cy="123.897234829" r="3" fill="hsl(51, 90%, 71%)"/><circle cx="11.9955529483" cy="76.1430342613" r="3" fill="hsl(180, 50%, 82%)"/><circle cx="80.8470194161" cy="121.28174876080001" r="3" fill="hsl(51, 90%, 71%)"/><circle cx="75.40342864120001" cy="116.99372811790002" r="3" fill="hsl(51, 90%, 71%)"/><circle cx="55.2312689422" cy="53.865356209" r="3" fill="hsl(51, 90%, 71%)"/><circle cx="42.5326099105" cy="25.273680457300003" r="3" fill="hsl(180, 50%, 82%)"/><circle cx="43.401459237400005" cy="23.812875478900008" r="3" fill="hsl(180, 50%, 82%)"/><circle cx="110.3025614827" cy="123.53420987890001" r="3" fill="hsl(51, 90%, 71%)"/><circle cx="89.94549497680002" cy="62.0765215108" r="3" fill="hsl(180, 50%, 82%)"/><circle cx="18.7065369376" cy="47.480522171500006" r="3" fill="hsl(180, 50%, 82%)"/><circle cx="96.4736516392" cy="127.14727638640001" r="3" fill="hsl(51, 90%, 71%)"/><circle cx="27.2517923089" cy="35.24355808720001" r="3" fill="hsl(180, 50%, 82%)"/><circle cx="106.7379615394" cy="127.1749682875" r="3" fill="hsl(51, 90%, 71%)"/><circle cx="68.0295635491" cy="108.367425478" r="3" fill="hsl(51, 90%, 71%)"/><circle cx="63.6450868327" cy="20.492517582400005" r="3" fill="hsl(180, 50%, 82%)"/><circle cx="79.26874680549999" cy="117.0215615707" r="3" fill="hsl(51, 90%, 71%)"/><circle cx="76.09800058059999" cy="116.8047341008" r="3" fill="hsl(51, 90%, 71%)"/><circle cx="80.16888884919999" cy="116.3849868961" r="3" fill="hsl(51, 90%, 71%)"/><circle cx="128.52053943639999" cy="90.1570788547" r="3" fill="hsl(51, 90%, 71%)"/><circle cx="94.61835146409999" cy="65.30290888" r="3" fill="hsl(180, 50%, 82%)"/><circle cx="71.4757150474" cy="113.8982927509" r="3" fill="hsl(51, 90%, 71%)"/><circle cx="10" cy="85.845033355" r="3" fill="hsl(180, 50%, 82%)"/><circle cx="58.423084491999994" cy="65.845071628" r="3" fill="hsl(51, 90%, 71%)"/><circle cx="62.1191901958" cy="14.943705648400003" r="3" fill="hsl(180, 50%, 82%)"/><circle cx="114.2004324874" cy="120.2079035086" r="3" fill="hsl(51, 90%, 71%)"/><circle cx="13.544097225099998" cy="71.2050145588" r="3" fill="hsl(180, 50%, 82%)"/><circle cx="57.2170241728" cy="86.268120202" r="3" fill="hsl(51, 90%, 71%)"/><circle cx="72.6739243363" cy="111.9568734658" r="3" fill="hsl(51, 90%, 71%)"/><circle cx="101.1374620144" cy="132.4397442418" r="3" fill="hsl(51, 90%, 71%)"/><circle cx="77.96496641919998" cy="24.278276544700006" r="3" fill="hsl(180, 50%, 82%)"/><circle cx="55.6648580533" cy="15.943600412199999" r="3" fill="hsl(180, 50%, 82%)"/><circle cx="52.3682687422" cy="60.412174166199996" r="3" fill="hsl(51, 90%, 71%)"/><circle cx="18.9078074461" cy="61.537981121499996" r="3" fill="hsl(180, 50%, 82%)"/><circle cx="16.4862850039" cy="69.9293830174" r="3" fill="hsl(180, 50%, 82%)"/><circle cx="90.4216192966" cy="54.433621990899994" r="3" fill="hsl(180, 50%, 82%)"/><circle cx="95.72246989450001" cy="128.666311681" r="3" fill="hsl(51, 90%, 71%)"/><circle cx="65.3361994714" cy="18.914878387599998" r="3" fill="hsl(180, 50%, 82%)"/><circle cx="106.45785403539999" cy="125.1551686669" r="3" fill="hsl(51, 90%, 71%)"/><circle cx="133.33839723850002" cy="65.2862151577" r="3" fill="hsl(51, 90%, 71%)"/><circle cx="55.2841708102" cy="58.10154075609999" r="3" fill="hsl(51, 90%, 71%)"/><circle cx="96.2249406067" cy="73.91593709739999" r="3" fill="hsl(180, 50%, 82%)"/><circle cx="87.45431244429999" cy="60.164536233099994" r="3" fill="hsl(180, 50%, 82%)"/><circle cx="27.258151067199996" cy="31.688445681100006" r="3" fill="hsl(180, 50%, 82%)"/><circle cx="71.2742941378" cy="15.193291584699992" r="3" fill="hsl(180, 50%, 82%)"/><circle cx="28.0814584534" cy="33.501546847300006" r="3" fill="hsl(180, 50%, 82%)"/><circle cx="118.87744794759999" cy="112.1707434559" r="3" fill="hsl(51, 90%, 71%)"/><circle cx="94.4140657096" cy="63.564023851900004" r="3" fill="hsl(180, 50%, 82%)"/><circle cx="27.6570693385" cy="23.465591844099997" r="3" fill="hsl(180, 50%, 82%)"/><circle cx="131.5041158074" cy="62.55244853800001" r="3" fill="hsl(51, 90%, 71%)"/><circle cx="97.06509727630001" cy="69.61836690700001" r="3" fill="hsl(180, 50%, 82%)"/><circle cx="81.6766944745" cy="129.39933681760002" r="3" fill="hsl(51, 90%, 71%)"/><circle cx="134.13351462880001" cy="72.1125525079" r="3" fill="hsl(51, 90%, 71%)"/><circle cx="12.7896487747" cy="89.595476155" r="3" fill="hsl(180, 50%, 82%)"/><circle cx="83.6404827853" cy="119.4131196349" r="3" fill="hsl(51, 90%, 71%)"/><circle cx="97.8085574035" cy="77.26908968349998" r="3" fill="hsl(180, 50%, 82%)"/><circle cx="19.1310853675" cy="52.403762395600005" r="3" fill="hsl(180, 50%, 82%)"/><circle cx="123.2476627465" cy="109.6026504526" r="3" fill="hsl(51, 90%, 71%)"/><circle cx="51.4158479521" cy="14.737943553400001" r="3" fill="hsl(180, 50%, 82%)"/><circle cx="86.39792375590001" cy="43.001123049700006" r="3" fill="hsl(180, 50%, 82%)"/><circle cx="22.9477492597" cy="32.5111991155" r="3" fill="hsl(180, 50%, 82%)"/><circle cx="34.4241627937" cy="27.473818117600004" r="3" fill="hsl(180, 50%, 82%)"/><circle cx="54.3761674549" cy="21.446875759" r="3" fill="hsl(180, 50%, 82%)"/><circle cx="24.3027483736" cy="34.20898891029999" r="3" fill="hsl(180, 50%, 82%)"/><circle cx="126.63540668259999" cy="111.0253418263" r="3" fill="hsl(51, 90%, 71%)"/><circle cx="95.86718126890001" cy="65.04677135620001" r="3" fill="hsl(180, 50%, 82%)"/><circle cx="134.00503747870002" cy="71.91753450040001" r="3" fill="hsl(51, 90%, 71%)"/><circle cx="133.53426651700002" cy="77.6584120963" r="3" fill="hsl(51, 90%, 71%)"/><circle cx="60.4149383524" cy="14.8803474274" r="3" fill="hsl(180, 50%, 82%)"/><circle cx="79.6664706013" cy="123.286057468" r="3" fill="hsl(51, 90%, 71%)"/><circle cx="57.9098333401" cy="69.21881727099999" r="3" fill="hsl(51, 90%, 71%)"/><circle cx="58.8327825838" cy="15.683205101499997" r="3" fill="hsl(180, 50%, 82%)"/><circle cx="113.7134425492" cy="117.2748976402" r="3" fill="hsl(51, 90%, 71%)"/><circle cx="91.3623655867" cy="130.44787353400002" r="3" fill="hsl(51, 90%, 71%)"/><circle cx="56.1591248815" cy="61.625337444699994" r="3" fill="hsl(51, 90%, 71%)"/><circle cx="86.208407134" cy="44.6184379876" r="3" fill="hsl(180, 50%, 82%)"/><circle cx="86.0282401612" cy="129.6042741898" r="3" fill="hsl(51, 90%, 71%)"/><circle cx="95.17138065609998" cy="84.4900407169" r="3" fill="hsl(180, 50%, 82%)"/><circle cx="14.811592039899999" cy="70.8946676359" r="3" fill="hsl(180, 50%, 82%)"/><circle cx="94.11538460499999" cy="70.2682403593" r="3" fill="hsl(180, 50%, 82%)"/><circle cx="26.2906444882" cy="40.4419778992" r="3" fill="hsl(180, 50%, 82%)"/><circle cx="128.6236479238" cy="93.2143375102" r="3" fill="hsl(51, 90%, 71%)"/><circle cx="37.0660751956" cy="23.524192661199994" r="3" fill="hsl(180, 50%, 82%)"/><circle cx="135.1870335703" cy="57.2652452887" r="3" fill="hsl(51, 90%, 71%)"/><circle cx="90.9830607463" cy="68.7152806189" r="3" fill="hsl(180, 50%, 82%)"/><circle cx="53.1195413287" cy="19.719490926099994" r="3" fill="hsl(180, 50%, 82%)"/><circle cx="45.1118308279" cy="15.175169239000002" r="3" fill="hsl(180, 50%, 82%)"/><circle cx="91.5964154725" cy="49.9548081034" r="3" fill="hsl(180, 50%, 82%)"/><circle cx="27.203451777700003" cy="38.90919114009999" r="3" fill="hsl(180, 50%, 82%)"/><circle cx="64.0358283487" cy="20.48367058179999" r="3" fill="hsl(180, 50%, 82%)"/><circle cx="125.16126147879999" cy="86.62012723630001" r="3" fill="hsl(51, 90%, 71%)"/><circle cx="133.6800503458" cy="79.44450933129998" r="3" fill="hsl(51, 90%, 71%)"/><circle cx="93.21407646579999" cy="67.74188804079999" r="3" fill="hsl(180, 50%, 82%)"/><circle cx="125.06061058329999" cy="97.5170944294" r="3" fill="hsl(51, 90%, 71%)"/><circle cx="69.5769640732" cy="114.9209166181" r="3" fill="hsl(51, 90%, 71%)"/><circle cx="128.2377570658" cy="87.0328541578" r="3" fill="hsl(51, 90%, 71%)"/><circle cx="18.9703049017" cy="57.7268489815" r="3" fill="hsl(180, 50%, 82%)"/><circle cx="133.3415018815" cy="62.48434832859999" r="3" fill="hsl(51, 90%, 71%)"/><circle cx="72.9397559521" cy="116.18000806330001" r="3" fill="hsl(51, 90%, 71%)"/><circle cx="104.0510821111" cy="124.9137001588" r="3" fill="hsl(51, 90%, 71%)"/><circle cx="56.803574219199994" cy="96.6976183045" r="3" fill="hsl(51, 90%, 71%)"/><circle cx="51.485974274200004" cy="20.709359216500005" r="3" fill="hsl(180, 50%, 82%)"/><circle cx="54.3523018744" cy="16.086197399200007" r="3" fill="hsl(180, 50%, 82%)"/><circle cx="107.5105986544" cy="127.304181073" r="3" fill="hsl(51, 90%, 71%)"/><circle cx="131.3622912079" cy="54.55111641639999" r="3" fill="hsl(51, 90%, 71%)"/><circle cx="16.6471118323" cy="62.8250946175" r="3" fill="hsl(180, 50%, 82%)"/><circle cx="71.3978236606" cy="27.500979609399995" r="3" fill="hsl(180, 50%, 82%)"/><circle cx="84.3454879867" cy="40.514154353799995" r="3" fill="hsl(180, 50%, 82%)"/><circle cx="68.9476170106" cy="19.200052895500008" r="3" fill="hsl(180, 50%, 82%)"/><circle cx="14.979607174" cy="61.954777077100005" r="3" fill="hsl(180, 50%, 82%)"/><circle cx="40.8985103956" cy="31.237896088599996" r="3" fill="hsl(180, 50%, 82%)"/><circle cx="86.0053842895" cy="56.194755623199995" r="3" fill="hsl(180, 50%, 82%)"/><circle cx="97.1066192932" cy="128.1820366897" r="3" fill="hsl(51, 90%, 71%)"/><circle cx="13.7586436138" cy="69.9765415861" r="3" fill="hsl(180, 50%, 82%)"/><circle cx="25.3364859133" cy="41.29081561090001" r="3" fill="hsl(180, 50%, 82%)"/><circle cx="69.9323385235" cy="103.0906243114" r="3" fill="hsl(51, 90%, 71%)"/><circle cx="130.34756085069998" cy="87.34837020100001" r="3" fill="hsl(51, 90%, 71%)"/><circle cx="22.222675218699997" cy="62.9943561754" r="3" fill="hsl(180, 50%, 82%)"/><circle cx="23.7288104101" cy="34.361059567" r="3" fill="hsl(180, 50%, 82%)"/><circle cx="132.8227624504" cy="80.7700512178" r="3" fill="hsl(51, 90%, 71%)"/><circle cx="106.20763279990001" cy="120.86396227869999" r="3" fill="hsl(51, 90%, 71%)"/><circle cx="55.8871445968" cy="83.94603522969999" r="3" fill="hsl(51, 90%, 71%)"/><circle cx="58.5716905183" cy="14.299531570899996" r="3" fill="hsl(180, 50%, 82%)"/><circle cx="13.501014192100001" cy="75.26241146560001" r="3" fill="hsl(180, 50%, 82%)"/><circle cx="116.61080193789999" cy="122.4592471126" r="3" fill="hsl(51, 90%, 71%)"/><circle cx="87.22851675249998" cy="130.7562909523" r="3" fill="hsl(51, 90%, 71%)"/><circle cx="77.1812699923" cy="123.83455909540001" r="3" fill="hsl(51, 90%, 71%)"/><circle cx="70.0814102656" cy="114.471255139" r="3" fill="hsl(51, 90%, 71%)"/><circle cx="30.1209680743" cy="35.0241449026" r="3" fill="hsl(180, 50%, 82%)"/><circle cx="80.28364070890001" cy="32.91702162160001" r="3" fill="hsl(180, 50%, 82%)"/><circle cx="93.68210483589999" cy="84.3933599383" r="3" fill="hsl(180, 50%, 82%)"/><circle cx="94.01633688279999" cy="61.58715531519999" r="3" fill="hsl(180, 50%, 82%)"/><circle cx="86.9446747243" cy="48.3430968352" r="3" fill="hsl(180, 50%, 82%)"/><circle cx="126.81394748139999" cy="107.61020737179999" r="3" fill="hsl(51, 90%, 71%)"/><circle cx="127.3619145586" cy="99.0931583407" r="3" fill="hsl(51, 90%, 71%)"/><circle cx="60.7119596914" cy="12.671089879899997" r="3" fill="hsl(180, 50%, 82%)"/><circle cx="86.112104119" cy="128.197570186" r="3" fill="hsl(51, 90%, 71%)"/><circle cx="136.72805132919999" cy="72.61870638939999" r="3" fill="hsl(51, 90%, 71%)"/><circle cx="46.923222628" cy="19.661777861199994" r="3" fill="hsl(180, 50%, 82%)"/><circle cx="77.9481024943" cy="114.5841867313" r="3" fill="hsl(51, 90%, 71%)"/><circle cx="93.7057086625" cy="83.73628445469998" r="3" fill="hsl(180, 50%, 82%)"/><circle cx="31.842354149200002" cy="26.512176433300006" r="3" fill="hsl(180, 50%, 82%)"/><circle cx="73.3180146541" cy="25.236870604000007" r="3" fill="hsl(180, 50%, 82%)"/><circle cx="68.3398044727" cy="18.538278367599993" r="3" fill="hsl(180, 50%, 82%)"/><circle cx="77.45054212839999" cy="31.096733942800007" r="3" fill="hsl(180, 50%, 82%)"/><circle cx="129.2284234921" cy="90.9098237827" r="3" fill="hsl(51, 90%, 71%)"/><circle cx="90.5047117957" cy="48.7429986154" r="3" fill="hsl(180, 50%, 82%)"/><circle cx="90.2006807515" cy="74.3897274589" r="3" fill="hsl(180, 50%, 82%)"/><circle cx="62.2591290475" cy="101.73548778669999" r="3" fill="hsl(51, 90%, 71%)"/><circle cx="94.0486739836" cy="87.17125204" r="3" fill="hsl(180, 50%, 82%)"/><circle cx="35.717649238" cy="21.588789561999995" r="3" fill="hsl(180, 50%, 82%)"/><circle cx="124.98354122319999" cy="104.36684765320001" r="3" fill="hsl(51, 90%, 71%)"/><circle cx="48.504374363800004" cy="15.388416288100004" r="3" fill="hsl(180, 50%, 82%)"/><circle cx="112.70538026650001" cy="123.29255123769998" r="3" fill="hsl(51, 90%, 71%)"/><circle cx="71.61929609799999" cy="114.5573270995" r="3" fill="hsl(51, 90%, 71%)"/><circle cx="62.533870951299996" cy="98.201912395" r="3" fill="hsl(51, 90%, 71%)"/><circle cx="123.993190705" cy="106.599262468" r="3" fill="hsl(51, 90%, 71%)"/><circle cx="77.1894114532" cy="114.8898796309" r="3" fill="hsl(51, 90%, 71%)"/><circle cx="137.1687672259" cy="49.946487397000006" r="3" fill="hsl(51, 90%, 71%)"/><circle cx="133.2837898486" cy="64.9960636621" r="3" fill="hsl(51, 90%, 71%)"/><circle cx="71.1503046655" cy="18.086005489899996" r="3" fill="hsl(180, 50%, 82%)"/><circle cx="16.3999547983" cy="69.211285348" r="3" fill="hsl(180, 50%, 82%)"/><circle cx="70.6606464268" cy="25.681564628500006" r="3" fill="hsl(180, 50%, 82%)"/><circle cx="132.41338679409998" cy="87.3340014586" r="3" fill="hsl(51, 90%, 71%)"/><circle cx="132.89178482920002" cy="71.6379992662" r="3" fill="hsl(51, 90%, 71%)"/><circle cx="22.582645177899998" cy="47.493531215199994" r="3" fill="hsl(180, 50%, 82%)"/><circle cx="133.9570894816" cy="60.2378543377" r="3" fill="hsl(51, 90%, 71%)"/><circle cx="12.0126974095" cy="91.6042809766" r="3" fill="hsl(180, 50%, 82%)"/><circle cx="78.0700718008" cy="28.871303562100007" r="3" fill="hsl(180, 50%, 82%)"/><circle cx="57.0274178959" cy="81.8899598416" r="3" fill="hsl(51, 90%, 71%)"/><circle cx="62.665664020600005" cy="88.159377721" r="3" fill="hsl(51, 90%, 71%)"/><circle cx="42.7346286319" cy="23.573232269200005" r="3" fill="hsl(180, 50%, 82%)"/><circle cx="96.97672894809999" cy="131.86601694819998" r="3" fill="hsl(51, 90%, 71%)"/><circle cx="133.2509906053" cy="77.80553121700001" r="3" fill="hsl(51, 90%, 71%)"/><circle cx="89.58261805420001" cy="43.672347008200006" r="3" fill="hsl(180, 50%, 82%)"/><circle cx="132.1505166571" cy="69.12146504740001" r="3" fill="hsl(51, 90%, 71%)"/><circle cx="63.8116681705" cy="91.9344381715" r="3" fill="hsl(51, 90%, 71%)"/><circle cx="31.821494358999995" cy="23.124867085300004" r="3" fill="hsl(180, 50%, 82%)"/><circle cx="64.8891238102" cy="116.4205071622" r="3" fill="hsl(51, 90%, 71%)"/><circle cx="72.3923022949" cy="109.36267901529999" r="3" fill="hsl(51, 90%, 71%)"/><circle cx="87.871577173" cy="132.3201084292" r="3" fill="hsl(51, 90%, 71%)"/><circle cx="53.7564415993" cy="69.1327355839" r="3" fill="hsl(51, 90%, 71%)"/><circle cx="89.575556749" cy="56.5415046691" r="3" fill="hsl(180, 50%, 82%)"/><circle cx="88.2598236613" cy="58.7258922034" r="3" fill="hsl(180, 50%, 82%)"/><circle cx="16.5684239995" cy="50.5002900601" r="3" fill="hsl(180, 50%, 82%)"/><circle cx="58.679442270399996" cy="98.1244019581" r="3" fill="hsl(51, 90%, 71%)"/><circle cx="60.6263050072" cy="17.6111901589" r="3" fill="hsl(180, 50%, 82%)"/><circle cx="58.4241797665" cy="82.0486012165" r="3" fill="hsl(51, 90%, 71%)"/><circle cx="56.746191407199994" cy="23.141155270300004" r="3" fill="hsl(180, 50%, 82%)"/><circle cx="131.9866142365" cy="68.17169013760001" r="3" fill="hsl(51, 90%, 71%)"/><circle cx="95.9764927213" cy="126.4774468921" r="3" fill="hsl(51, 90%, 71%)"/><circle cx="28.8455114311" cy="24.717052152400008" r="3" fill="hsl(180, 50%, 82%)"/><circle cx="66.4310942986" cy="103.8631802467" r="3" fill="hsl(51, 90%, 71%)"/><circle cx="82.0880166376" cy="37.486930897300006" r="3" fill="hsl(180, 50%, 82%)"/><circle cx="61.866134869" cy="106.042805617" r="3" fill="hsl(51, 90%, 71%)"/><circle cx="102.05240675649999" cy="123.3926359264" r="3" fill="hsl(51, 90%, 71%)"/><circle cx="68.0315226205" cy="25.316885692" r="3" fill="hsl(180, 50%, 82%)"/><circle cx="61.556610708099996" cy="94.2243613927" r="3" fill="hsl(51, 90%, 71%)"/><circle cx="12.6544015885" cy="89.3213566633" r="3" fill="hsl(180, 50%, 82%)"/><circle cx="79.2101766775" cy="31.8077102962" r="3" fill="hsl(180, 50%, 82%)"/><circle cx="60.7177405297" cy="93.62505951370001" r="3" fill="hsl(51, 90%, 71%)"/><circle cx="72.7947595135" cy="20.990880857199993" r="3" fill="hsl(180, 50%, 82%)"/><circle cx="55.041014388700006" cy="64.3991946586" r="3" fill="hsl(51, 90%, 71%)"/><circle cx="45.3519222094" cy="14.293412326899993" r="3" fill="hsl(180, 50%, 82%)"/><circle cx="73.2235305133" cy="123.2346803542" r="3" fill="hsl(51, 90%, 71%)"/><circle cx="90.69123959080001" cy="59.885891215" r="3" fill="hsl(180, 50%, 82%)"/><circle cx="90.9599545114" cy="98.2563909526" r="3" fill="hsl(180, 50%, 82%)"/><circle cx="94.1418247288" cy="127.86541690959999" r="3" fill="hsl(51, 90%, 71%)"/><circle cx="89.9883495637" cy="80.5137916987" r="3" fill="hsl(180, 50%, 82%)"/><circle cx="95.52999666999999" cy="69.62238837880001" r="3" fill="hsl(180, 50%, 82%)"/><circle cx="54.4926937096" cy="84.4936376626" r="3" fill="hsl(51, 90%, 71%)"/><circle cx="31.279089839199997" cy="26.806460650299996" r="3" fill="hsl(180, 50%, 82%)"/><circle cx="50.1249373024" cy="13.548518584000004" r="3" fill="hsl(180, 50%, 82%)"/><circle cx="67.1495737951" cy="19.224474053200005" r="3" fill="hsl(180, 50%, 82%)"/><circle cx="62.9808903685" cy="102.24593136969999" r="3" fill="hsl(51, 90%, 71%)"/><circle cx="56.9189771548" cy="82.7599215742" r="3" fill="hsl(51, 90%, 71%)"/><circle cx="95.0350189357" cy="82.05641219230002" r="3" fill="hsl(180, 50%, 82%)"/><circle cx="18.920481102700002" cy="60.63699884920001" r="3" fill="hsl(180, 50%, 82%)"/><circle cx="81.51384252670002" cy="34.032984625599994" r="3" fill="hsl(180, 50%, 82%)"/><circle cx="131.3723559943" cy="84.3947061049" r="3" fill="hsl(51, 90%, 71%)"/><circle cx="79.7333201428" cy="126.5172089491" r="3" fill="hsl(51, 90%, 71%)"/><circle cx="11.087184368199999" cy="80.4823303015" r="3" fill="hsl(180, 50%, 82%)"/><circle cx="107.42745785769999" cy="129.88802587930002" r="3" fill="hsl(51, 90%, 71%)"/><circle cx="132.5859934381" cy="65.9067222244" r="3" fill="hsl(51, 90%, 71%)"/><circle cx="68.2002869092" cy="105.32267422390001" r="3" fill="hsl(51, 90%, 71%)"/><circle cx="118.7962353139" cy="106.75265671630001" r="3" fill="hsl(51, 90%, 71%)"/><circle cx="56.4795384484" cy="75.618155359" r="3" fill="hsl(51, 90%, 71%)"/><circle cx="78.36652463680001" cy="33.899423804799994" r="3" fill="hsl(180, 50%, 82%)"/><circle cx="84.64242243129999" cy="124.4914881253" r="3" fill="hsl(51, 90%, 71%)"/><circle cx="75.3481614808" cy="26.863579450900005" r="3" fill="hsl(180, 50%, 82%)"/><circle cx="99.74634400990001" cy="131.3425097803" r="3" fill="hsl(51, 90%, 71%)"/><circle cx="13.2817325101" cy="69.3469900198" r="3" fill="hsl(180, 50%, 82%)"/><circle cx="52.715493682" cy="83.92169294259999" r="3" fill="hsl(51, 90%, 71%)"/><circle cx="105.0930744124" cy="127.20815073820002" r="3" fill="hsl(51, 90%, 71%)"/><circle cx="60.4494863455" cy="90.04152198339999" r="3" fill="hsl(51, 90%, 71%)"/><circle cx="133.66657984329998" cy="71.3175403816" r="3" fill="hsl(51, 90%, 71%)"/><circle cx="103.82274486130001" cy="129.1843441663" r="3" fill="hsl(51, 90%, 71%)"/><circle cx="62.0452663588" cy="103.97033706369999" r="3" fill="hsl(51, 90%, 71%)"/><circle cx="51.399635954500006" cy="14.717448252699995" r="3" fill="hsl(180, 50%, 82%)"/><circle cx="102.3966000157" cy="127.0749404104" r="3" fill="hsl(51, 90%, 71%)"/><circle cx="123.8912158438" cy="107.10971597109999" r="3" fill="hsl(51, 90%, 71%)"/><circle cx="31.3069321156" cy="23.486038731099995" r="3" fill="hsl(180, 50%, 82%)"/><circle cx="27.669326621800003" cy="36.52126268439999" r="3" fill="hsl(180, 50%, 82%)"/><circle cx="55.9610182141" cy="11.946336816700004" r="3" fill="hsl(180, 50%, 82%)"/><circle cx="54.8799788254" cy="65.2041225634" r="3" fill="hsl(51, 90%, 71%)"/><circle cx="84.22095806889999" cy="30.028562059000002" r="3" fill="hsl(180, 50%, 82%)"/><circle cx="84.81535580650001" cy="125.2829741269" r="3" fill="hsl(51, 90%, 71%)"/><circle cx="27.823709293900002" cy="30.7176958357" r="3" fill="hsl(180, 50%, 82%)"/><circle cx="87.81580161069999" cy="48.7574800135" r="3" fill="hsl(180, 50%, 82%)"/><circle cx="87.9619867972" cy="50.906743273000004" r="3" fill="hsl(180, 50%, 82%)"/><circle cx="19.4279452114" cy="51.628669456000004" r="3" fill="hsl(180, 50%, 82%)"/><circle cx="20.9475919918" cy="51.3950448703" r="3" fill="hsl(180, 50%, 82%)"/><circle cx="13.1227099402" cy="71.49494134929999" r="3" fill="hsl(180, 50%, 82%)"/><circle cx="35.1734287594" cy="27.066329460400002" r="3" fill="hsl(180, 50%, 82%)"/><circle cx="81.7028979349" cy="125.34383170870001" r="3" fill="hsl(51, 90%, 71%)"/><circle cx="73.0941010981" cy="116.05604605510001" r="3" fill="hsl(51, 90%, 71%)"/><circle cx="15.2073021715" cy="71.7345078685" r="3" fill="hsl(180, 50%, 82%)"/><circle cx="57.7092386884" cy="65.35544483950001" r="3" fill="hsl(51, 90%, 71%)"/><circle cx="23.567204125" cy="36.9773711707" r="3" fill="hsl(180, 50%, 82%)"/><circle cx="49.5478551574" cy="17.8924488073" r="3" fill="hsl(180, 50%, 82%)"/><circle cx="135.7645776901" cy="55.2754794997" r="3" fill="hsl(51, 90%, 71%)"/><circle cx="83.57365627029999" cy="38.5386775723" r="3" fill="hsl(180, 50%, 82%)"/><circle cx="12.7356618748" cy="84.9116961283" r="3" fill="hsl(180, 50%, 82%)"/><circle cx="135.3508006312" cy="79.0010861116" r="3" fill="hsl(51, 90%, 71%)"/><circle cx="95.25869130039999" cy="132.0414042646" r="3" fill="hsl(51, 90%, 71%)"/><circle cx="87.8355954997" cy="129.71235645279998" r="3" fill="hsl(51, 90%, 71%)"/><circle cx="89.84651254149999" cy="125.99144134000001" r="3" fill="hsl(51, 90%, 71%)"/><circle cx="112.4327229124" cy="120.28187003170001" r="3" fill="hsl(51, 90%, 71%)"/><circle cx="67.8056000701" cy="105.52258019620001" r="3" fill="hsl(51, 90%, 71%)"/><circle cx="51.1247194621" cy="54.613022278" r="3" fill="hsl(51, 90%, 71%)"/><circle cx="41.911712296299996" cy="18.608001139000002" r="3" fill="hsl(180, 50%, 82%)"/><circle cx="115.6226558878" cy="126.1965116596" r="3" fill="hsl(51, 90%, 71%)"/><circle cx="131.41341135369998" cy="99.3386510296" r="3" fill="hsl(51, 90%, 71%)"/><circle cx="56.118268711" cy="76.3154415874" r="3" fill="hsl(51, 90%, 71%)"/><circle cx="94.2799687648" cy="80.87232338529999" r="3" fill="hsl(180, 50%, 82%)"/><circle cx="58.8811578934" cy="13.241420835699996" r="3" fill="hsl(180, 50%, 82%)"/><circle cx="139" cy="61.085048821600004" r="3" fill="hsl(51, 90%, 71%)"/><circle cx="20.507611537" cy="51.985772028999996" r="3" fill="hsl(180, 50%, 82%)"/><circle cx="118.4198093536" cy="107.36102163219999" r="3" fill="hsl(51, 90%, 71%)"/><circle cx="38.5142385739" cy="21.4111501378" r="3" fill="hsl(180, 50%, 82%)"/><circle cx="45.800613879400004" cy="20.3581752925" r="3" fill="hsl(180, 50%, 82%)"/><circle cx="63.856821331" cy="108.5913824812" r="3" fill="hsl(51, 90%, 71%)"/><circle cx="100.404362161" cy="121.22096763729999" r="3" fill="hsl(51, 90%, 71%)"/><circle cx="63.815141701900004" cy="19.36866655089999" r="3" fill="hsl(180, 50%, 82%)"/><circle cx="104.24591051440001" cy="124.2009345109" r="3" fill="hsl(51, 90%, 71%)"/><circle cx="131.3184938503" cy="82.3266414181" r="3" fill="hsl(51, 90%, 71%)"/><circle cx="134.265765532" cy="84.2156574847" r="3" fill="hsl(51, 90%, 71%)"/><circle cx="97.041358735" cy="128.1460381432" r="3" fill="hsl(51, 90%, 71%)"/><circle cx="53.0163016741" cy="22.1492271853" r="3" fill="hsl(180, 50%, 82%)"/><circle cx="76.9036237825" cy="30.6655978054" r="3" fill="hsl(180, 50%, 82%)"/><circle cx="97.5736554469" cy="125.76347483619999" r="3" fill="hsl(51, 90%, 71%)"/><circle cx="42.4276093027" cy="28.505922555999994" r="3" fill="hsl(180, 50%, 82%)"/><circle cx="92.82620512239998" cy="76.9616657071" r="3" fill="hsl(180, 50%, 82%)"/><circle cx="131.4095429146" cy="90.4054244689" r="3" fill="hsl(51, 90%, 71%)"/><circle cx="20.431415958400002" cy="53.630325303999996" r="3" fill="hsl(180, 50%, 82%)"/><circle cx="101.7388300993" cy="139" r="3" fill="hsl(51, 90%, 71%)"/><circle cx="118.7013487705" cy="121.6229131387" r="3" fill="hsl(51, 90%, 71%)"/><circle cx="21.5488348564" cy="51.927179661400004" r="3" fill="hsl(180, 50%, 82%)"/><circle cx="120.46667527689999" cy="113.0504285377" r="3" fill="hsl(51, 90%, 71%)"/><circle cx="80.6948360521" cy="35.78231221659999" r="3" fill="hsl(180, 50%, 82%)"/><circle cx="46.2380477323" cy="18.830129244699997" r="3" fill="hsl(180, 50%, 82%)"/><circle cx="51.55281412779999" cy="61.3209097126" r="3" fill="hsl(51, 90%, 71%)"/><circle cx="134.8860454426" cy="68.1047492383" r="3" fill="hsl(51, 90%, 71%)"/><circle cx="30.1411463575" cy="31.873197249400008" r="3" fill="hsl(180, 50%, 82%)"/><circle cx="27.557638847499998" cy="30.002574312399993" r="3" fill="hsl(180, 50%, 82%)"/><circle cx="12.3578290792" cy="83.6521307242" r="3" fill="hsl(180, 50%, 82%)"/><circle cx="126.0334004347" cy="96.7888365265" r="3" fill="hsl(51, 90%, 71%)"/><circle cx="131.4618979" cy="83.12957620839998" r="3" fill="hsl(51, 90%, 71%)"/><circle cx="69.19271379850001" cy="112.2966525772" r="3" fill="hsl(51, 90%, 71%)"/><circle cx="19.4877977929" cy="62.51331940659999" r="3" fill="hsl(180, 50%, 82%)"/><circle cx="90.2126836339" cy="127.1667798319" r="3" fill="hsl(51, 90%, 71%)"/><circle cx="19.9428342505" cy="52.056732645699995" r="3" fill="hsl(180, 50%, 82%)"/><circle cx="15.477579914200001" cy="77.37183842859999" r="3" fill="hsl(180, 50%, 82%)"/><circle cx="94.37440723959999" cy="67.0719994" r="3" fill="hsl(180, 50%, 82%)"/><circle cx="133.0200664927" cy="92.4139799335" r="3" fill="hsl(51, 90%, 71%)"/><circle cx="17.5520379313" cy="83.64258825879999" r="3" fill="hsl(180, 50%, 82%)"/><circle cx="51.949805732499996" cy="80.36317394320001" r="3" fill="hsl(51, 90%, 71%)"/><circle cx="118.93385486170001" cy="114.59958570639999" r="3" fill="hsl(51, 90%, 71%)"/><circle cx="43.3170483067" cy="20.595596877100007" r="3" fill="hsl(180, 50%, 82%)"/><circle cx="16.1742476263" cy="49.3673859247" r="3" fill="hsl(180, 50%, 82%)"/><circle cx="102.1567426918" cy="123.7170831427" r="3" fill="hsl(51, 90%, 71%)"/><circle cx="86.90613607750001" cy="51.498089593" r="3" fill="hsl(180, 50%, 82%)"/><circle cx="80.90947600450001" cy="127.3733904889" r="3" fill="hsl(51, 90%, 71%)"/><circle cx="95.0353853215" cy="74.13287598459999" r="3" fill="hsl(180, 50%, 82%)"/><circle cx="127.61875807359999" cy="102.471743509" r="3" fill="hsl(51, 90%, 71%)"/><circle cx="58.3299590695" cy="85.07713443579999" r="3" fill="hsl(51, 90%, 71%)"/><circle cx="112.1915087278" cy="126.38599925649999" r="3" fill="hsl(51, 90%, 71%)"/><circle cx="70.7169439618" cy="18.995914381600002" r="3" fill="hsl(180, 50%, 82%)"/><circle cx="18.8741042482" cy="59.2177581868" r="3" fill="hsl(180, 50%, 82%)"/><circle cx="87.6404999116" cy="127.78415039259998" r="3" fill="hsl(51, 90%, 71%)"/><circle cx="48.813976530999994" cy="12.194084657800005" r="3" fill="hsl(180, 50%, 82%)"/><circle cx="59.78209346770001" cy="84.52461507760002" r="3" fill="hsl(51, 90%, 71%)"/><circle cx="74.6578552618" cy="120.5664354016" r="3" fill="hsl(51, 90%, 71%)"/><circle cx="87.3847387711" cy="46.404816068500004" r="3" fill="hsl(180, 50%, 82%)"/><circle cx="118.80579440739999" cy="119.78088794079999" r="3" fill="hsl(51, 90%, 71%)"/><circle cx="55.858473172900005" cy="13.2253513444" r="3" fill="hsl(180, 50%, 82%)"/><circle cx="68.620302421" cy="19.2825740794" r="3" fill="hsl(180, 50%, 82%)"/><circle cx="136.8501553891" cy="56.23635515619999" r="3" fill="hsl(51, 90%, 71%)"/><circle cx="94.1475813796" cy="125.0264271442" r="3" fill="hsl(51, 90%, 71%)"/><circle cx="106.682016871" cy="130.0966777291" r="3" fill="hsl(51, 90%, 71%)"/><circle cx="34.8672773293" cy="28.398733205200003" r="3" fill="hsl(180, 50%, 82%)"/><circle cx="134.1702862594" cy="80.1010148413" r="3" fill="hsl(51, 90%, 71%)"/><circle cx="52.9674967171" cy="54.7095720958" r="3" fill="hsl(51, 90%, 71%)"/><circle cx="93.0955758661" cy="124.0585428532" r="3" fill="hsl(51, 90%, 71%)"/><circle cx="60.106071317499996" cy="82.97143713370001" r="3" fill="hsl(51, 90%, 71%)"/><circle cx="20.8167654163" cy="62.80570905220001" r="3" fill="hsl(180, 50%, 82%)"/><circle cx="77.2729300264" cy="30.831147813999998" r="3" fill="hsl(180, 50%, 82%)"/><circle cx="55.7905727587" cy="71.76074588799999" r="3" fill="hsl(51, 90%, 71%)"/><circle cx="17.710342551700002" cy="78.74548720149998" r="3" fill="hsl(180, 50%, 82%)"/><circle cx="78.40248039400001" cy="29.590865781400005" r="3" fill="hsl(180, 50%, 82%)"/><circle cx="90.6205297243" cy="85.728804097" r="3" fill="hsl(180, 50%, 82%)"/><circle cx="75.61231205889999" cy="25.316828403099997" r="3" fill="hsl(180, 50%, 82%)"/><circle cx="64.868196553" cy="106.0638617581" r="3" fill="hsl(51, 90%, 71%)"/><circle cx="119.9723226895" cy="112.357599298" r="3" fill="hsl(51, 90%, 71%)"/><circle cx="89.6489851873" cy="55.0246595881" r="3" fill="hsl(180, 50%, 82%)"/><circle cx="122.981675389" cy="104.077813891" r="3" fill="hsl(51, 90%, 71%)"/><circle cx="111.88860077049999" cy="120.0800587423" r="3" fill="hsl(51, 90%, 71%)"/><circle cx="131.5318399843" cy="76.8247841554" r="3" fill="hsl(51, 90%, 71%)"/><circle cx="125.4668118076" cy="99.3199366642" r="3" fill="hsl(51, 90%, 71%)"/><circle cx="54.088920097599996" cy="72.57097093269999" r="3" fill="hsl(51, 90%, 71%)"/><circle cx="114.54818901040001" cy="118.6933021762" r="3" fill="hsl(51, 90%, 71%)"/><circle cx="46.8989872303" cy="16.751591125300003" r="3" fill="hsl(180, 50%, 82%)"/><circle cx="64.2902144266" cy="103.0370039134" r="3" fill="hsl(51, 90%, 71%)"/><circle cx="88.57699263309999" cy="48.93521577490001" r="3" fill="hsl(180, 50%, 82%)"/><circle cx="67.64987448219999" cy="114.94483267630001" r="3" fill="hsl(51, 90%, 71%)"/><circle cx="73.8451511854" cy="26.133875380599996" r="3" fill="hsl(180, 50%, 82%)"/><circle cx="125.0479647907" cy="105.07417882780001" r="3" fill="hsl(51, 90%, 71%)"/><circle cx="74.2247993464" cy="116.78601959350001" r="3" fill="hsl(51, 90%, 71%)"/><circle cx="127.30903887759999" cy="108.462267052" r="3" fill="hsl(51, 90%, 71%)"/><circle cx="14.8658688286" cy="65.1779029909" r="3" fill="hsl(180, 50%, 82%)"/><circle cx="39.4149472888" cy="18.698211277600002" r="3" fill="hsl(180, 50%, 82%)"/><circle cx="135.2130959821" cy="63.3184597873" r="3" fill="hsl(51, 90%, 71%)"/><circle cx="90.3421263877" cy="128.5111661416" r="3" fill="hsl(51, 90%, 71%)"/><circle cx="11.2441811866" cy="80.6100690556" r="3" fill="hsl(180, 50%, 82%)"/><circle cx="90.0899547754" cy="57.231565414" r="3" fill="hsl(180, 50%, 82%)"/><circle cx="17.0401740325" cy="73.151896207" r="3" fill="hsl(180, 50%, 82%)"/><circle cx="80.3259295921" cy="120.0197821636" r="3" fill="hsl(51, 90%, 71%)"/><circle cx="41.095102602999994" cy="25.200517694500004" r="3" fill="hsl(180, 50%, 82%)"/><circle cx="129.5419649323" cy="91.14621086470001" r="3" fill="hsl(51, 90%, 71%)"/><circle cx="33.5457309727" cy="28.981140870099996" r="3" fill="hsl(180, 50%, 82%)"/><circle cx="17.4539950675" cy="60.10254213550001" r="3" fill="hsl(180, 50%, 82%)"/><circle cx="54.0944265142" cy="63.9603803122" r="3" fill="hsl(51, 90%, 71%)"/><circle cx="64.2065855326" cy="99.9319910962" r="3" fill="hsl(51, 90%, 71%)"/><circle cx="136.65112887429999" cy="56.054300513499996" r="3" fill="hsl(51, 90%, 71%)"/><circle cx="54.106778870499994" cy="14.090962706800006" r="3" fill="hsl(180, 50%, 82%)"/><circle cx="25.650527512300002" cy="43.6233472741" r="3" fill="hsl(180, 50%, 82%)"/><circle cx="20.3508566065" cy="43.465665917200006" r="3" fill="hsl(180, 50%, 82%)"/><circle cx="86.4081885697" cy="128.51128852390002" r="3" fill="hsl(51, 90%, 71%)"/><circle cx="94.92987773079999" cy="80.16529245820001" r="3" fill="hsl(180, 50%, 82%)"/><circle cx="55.7794051384" cy="16.8499948021" r="3" fill="hsl(180, 50%, 82%)"/><circle cx="93.22266678220001" cy="89.8619508229" r="3" fill="hsl(180, 50%, 82%)"/><circle cx="25.321485445" cy="42.6635656408" r="3" fill="hsl(180, 50%, 82%)"/><circle cx="28.979984578600003" cy="32.856355940200004" r="3" fill="hsl(180, 50%, 82%)"/><circle cx="54.5282849773" cy="95.28685522539999" r="3" fill="hsl(51, 90%, 71%)"/><circle cx="15.263598506800001" cy="72.3237011011" r="3" fill="hsl(180, 50%, 82%)"/><circle cx="54.1637395558" cy="59.9198431378" r="3" fill="hsl(51, 90%, 71%)"/><circle cx="81.4114323163" cy="120.84456047229999" r="3" fill="hsl(51, 90%, 71%)"/><circle cx="81.0694298254" cy="125.9455417339" r="3" fill="hsl(51, 90%, 71%)"/><circle cx="42.8942402674" cy="18.916939717299993" r="3" fill="hsl(180, 50%, 82%)"/><circle cx="81.31137393070001" cy="37.1550157936" r="3" fill="hsl(180, 50%, 82%)"/><circle cx="103.0625244994" cy="122.7643747987" r="3" fill="hsl(51, 90%, 71%)"/><circle cx="81.94879426480001" cy="22.104709156300004" r="3" fill="hsl(180, 50%, 82%)"/><circle cx="52.7267333359" cy="51.336846081699996" r="3" fill="hsl(51, 90%, 71%)"/><circle cx="119.9233079398" cy="111.5690813671" r="3" fill="hsl(51, 90%, 71%)"/><circle cx="67.6490177416" cy="117.1733177899" r="3" fill="hsl(51, 90%, 71%)"/><circle cx="85.4629062913" cy="47.3781638578" r="3" fill="hsl(180, 50%, 82%)"/><circle cx="57.383137859799994" cy="73.1029847089" r="3" fill="hsl(51, 90%, 71%)"/><circle cx="94.7808203464" cy="68.8544832031" r="3" fill="hsl(180, 50%, 82%)"/><circle cx="63.1725141409" cy="99.3927868729" r="3" fill="hsl(51, 90%, 71%)"/><circle cx="66.7201151995" cy="114.9043354354" r="3" fill="hsl(51, 90%, 71%)"/><circle cx="62.598504169600005" cy="21.953701162899996" r="3" fill="hsl(180, 50%, 82%)"/><circle cx="109.41199860489999" cy="122.05536025149999" r="3" fill="hsl(51, 90%, 71%)"/><circle cx="122.1699410056" cy="112.17978558189999" r="3" fill="hsl(51, 90%, 71%)"/><circle cx="60.4067229358" cy="96.33916551429999" r="3" fill="hsl(51, 90%, 71%)"/><circle cx="82.26765382030001" cy="41.7216600922" r="3" fill="hsl(180, 50%, 82%)"/><circle cx="83.71734915100001" cy="39.6123205525" r="3" fill="hsl(180, 50%, 82%)"/><circle cx="12.4002056824" cy="58.79430207729999" r="3" fill="hsl(180, 50%, 82%)"/><circle cx="128.3329493134" cy="97.62936533530002" r="3" fill="hsl(51, 90%, 71%)"/><circle cx="93.8197068139" cy="86.33236088620001" r="3" fill="hsl(180, 50%, 82%)"/><circle cx="59.6377289743" cy="78.4247957041" r="3" fill="hsl(51, 90%, 71%)"/><circle cx="12.6577568398" cy="81.92549830959999" r="3" fill="hsl(180, 50%, 82%)"/><circle cx="36.0395597725" cy="26.123362280499997" r="3" fill="hsl(180, 50%, 82%)"/><circle cx="50.892642773199995" cy="19.928328652000005" r="3" fill="hsl(180, 50%, 82%)"/><circle cx="54.882694585" cy="12.623825286099995" r="3" fill="hsl(180, 50%, 82%)"/><circle cx="130.729039741" cy="82.28352725740001" r="3" fill="hsl(51, 90%, 71%)"/><circle cx="109.2976178782" cy="118.9450465921" r="3" fill="hsl(51, 90%, 71%)"/><circle cx="66.0466970413" cy="29.445397241500004" r="3" fill="hsl(180, 50%, 82%)"/><circle cx="114.095282317" cy="121.3237063462" r="3" fill="hsl(51, 90%, 71%)"/><circle cx="28.0247899015" cy="34.85443162540001" r="3" fill="hsl(180, 50%, 82%)"/><circle cx="96.6288668902" cy="135.8454375991" r="3" fill="hsl(51, 90%, 71%)"/><circle cx="77.71885415620001" cy="26.4679158625" r="3" fill="hsl(180, 50%, 82%)"/><circle cx="33.923645799400006" cy="19.077158478399994" r="3" fill="hsl(180, 50%, 82%)"/><circle cx="66.3892743304" cy="108.50229388150001" r="3" fill="hsl(51, 90%, 71%)"/><circle cx="129.6411387004" cy="94.2690564355" r="3" fill="hsl(51, 90%, 71%)"/><circle cx="48.0279538729" cy="10" r="3" fill="hsl(180, 50%, 82%)"/><circle cx="74.9222413939" cy="26.213903446000003" r="3" fill="hsl(180, 50%, 82%)"/><circle cx="105.0303164284" cy="128.02726851399999" r="3" fill="hsl(51, 90%, 71%)"/><circle cx="22.997284150299997" cy="52.94958390610001" r="3" fill="hsl(180, 50%, 82%)"/><circle cx="20.045443662700002" cy="35.04516756820001" r="3" fill="hsl(180, 50%, 82%)"/><circle cx="56.0280829018" cy="20.482008378099994" r="3" fill="hsl(180, 50%, 82%)"/><circle cx="18.0750653482" cy="69.7057842472" r="3" fill="hsl(180, 50%, 82%)"/><circle cx="121.9504279234" cy="105.0669250804" r="3" fill="hsl(51, 90%, 71%)"/><circle cx="11.5476074659" cy="80.90547512110001" r="3" fill="hsl(180, 50%, 82%)"/><circle cx="13.6550653987" cy="84.9279670402" r="3" fill="hsl(180, 50%, 82%)"/><circle cx="125.2758193483" cy="114.44840010579999" r="3" fill="hsl(51, 90%, 71%)"/><circle cx="71.4430885093" cy="25.722202066600005" r="3" fill="hsl(180, 50%, 82%)"/><circle cx="85.2152886886" cy="39.26093457580001" r="3" fill="hsl(180, 50%, 82%)"/><circle cx="117.7304413258" cy="117.1924499089" r="3" fill="hsl(51, 90%, 71%)"/><circle cx="57.0350960017" cy="93.4170506644" r="3" fill="hsl(51, 90%, 71%)"/><circle cx="55.642773421" cy="75.95630996050001" r="3" fill="hsl(51, 90%, 71%)"/><circle cx="94.72529599869999" cy="122.4816297736" r="3" fill="hsl(51, 90%, 71%)"/><circle cx="35.0065552366" cy="21.1710620845" r="3" fill="hsl(180, 50%, 82%)"/><circle cx="46.1952504601" cy="16.915800424000004" r="3" fill="hsl(180, 50%, 82%)"/><circle cx="82.93223258889999" cy="38.00672810259999" r="3" fill="hsl(180, 50%, 82%)"/><circle cx="74.76040158010001" cy="15.7293979375" r="3" fill="hsl(180, 50%, 82%)"/><circle cx="91.21658907220001" cy="61.64726685130001" r="3" fill="hsl(180, 50%, 82%)"/><circle cx="61.8249719752" cy="19.387807093600003" r="3" fill="hsl(180, 50%, 82%)"/><circle cx="71.8156977853" cy="118.7447201701" r="3" fill="hsl(51, 90%, 71%)"/><circle cx="84.6134247793" cy="44.4946051342" r="3" fill="hsl(180, 50%, 82%)"/><circle cx="138.4709187421" cy="71.44610838640001" r="3" fill="hsl(51, 90%, 71%)"/><circle cx="56.9524502425" cy="77.40533142099999" r="3" fill="hsl(51, 90%, 71%)"/><circle cx="88.0841821762" cy="53.271245161" r="3" fill="hsl(180, 50%, 82%)"/><circle cx="119.77304149000001" cy="116.13213200950001" r="3" fill="hsl(51, 90%, 71%)"/><circle cx="58.05478411269999" cy="87.4313965618" r="3" fill="hsl(51, 90%, 71%)"/><circle cx="133.1373942889" cy="81.0049680352" r="3" fill="hsl(51, 90%, 71%)"/></g></svg>