<svg class="plot-09bf8320ce2c8" fill="currentColor" font-family="system-ui, sans-serif" font-size="10" text-anchor="middle" width="150" height="150" viewBox="0 0 150 150" xmlns="http://www.w3.org/2000/svg" xmlns:xlink="http://www.w3.org/1999/xlink"><style>
        .plot-09bf8320ce2c8 {
          display: block;
          background: white;
          height: auto;
          height: intrinsic;
          max-width: 100%;
        }
        .plot-09bf8320ce2c8 text,
        .plot-09bf8320ce2c8 tspan {
          white-space: pre;
        }
      </style><g aria-label="dot" fill-opacity="0.3" transform="translate(0.5,0.5)"><circle cx="68.4610664206" cy="20.264914187799995" r="3" fill="hsl(180, 50%, 82%)"/><circle cx="68.3108600461" cy="79.4755313803" r="3" fill="hsl(180, 50%, 82%)"/><circle cx="30.4538852113" cy="53.1199779163" r="3" fill="hsl(180, 50%, 82%)"/><circle cx="31.213386694900002" cy="99.06295950519998" r="3" fill="hsl(180, 50%, 82%)"/><circle cx="100.5107308525" cy="99.5258765083" r="3" fill="hsl(180, 50%, 82%)"/><circle cx="87.92653950639999" cy="12.797447405199994" r="3" fill="hsl(180, 50%, 82%)"/><circle cx="14.8390883383" cy="88.1263803724" r="3" fill="hsl(180, 50%, 82%)"/><circle cx="126.698220988" cy="62.823727436800006" r="3" fill="hsl(180, 50%, 82%)"/><circle cx="132.18793962159998" cy="16.1915738098" r="3" fill="hsl(180, 50%, 82%)"/><circle cx="117.2562439048" cy="94.11238543240002" r="3" fill="hsl(180, 50%, 82%)"/><circle cx="12.6979107859" cy="15.759538103799997" r="3" fill="hsl(180, 50%, 82%)"/><circle cx="35.857952024499994" cy="107.7345706087" r="3" fill="hsl(180, 50%, 82%)"/><circle cx="96.1640812705" cy="48.2993090365" r="3" fill="hsl(180, 50%, 82%)"/><circle cx="134.4396083959" cy="62.12560955829999" r="3" fill="hsl(180, 50%, 82%)"/><circle cx="66.7079833945" cy="123.0201740716" r="3" fill="hsl(180, 50%, 82%)"/><circle cx="121.17137936649999" cy="133.3807841875" r="3" fill="hsl(180, 50%, 82%)"/><circle cx="120.49480214020001" cy="95.6131854418" r="3" fill="hsl(180, 50%, 82%)"/><circle cx="127.7813347483" cy="29.103099417999996" r="3" fill="hsl(180, 50%, 82%)"/><circle cx="100.4759375143" cy="136.3452325675" r="3" fill="hsl(180, 50%, 82%)"/><circle cx="99.52801802440001" cy="66.4502529916" r="3" fill="hsl(180, 50%, 82%)"/><circle cx="42.1393199479" cy="64.5046638718" r="3" fill="hsl(180, 50%, 82%)"/><circle cx="120.1441465744" cy="111.8637563638" r="3" fill="hsl(180, 50%, 82%)"/><circle cx="53.5607280109" cy="127.68478867149999" r="3" fill="hsl(180, 50%, 82%)"/><circle cx="110.8506111457" cy="126.25810531539999" r="3" fill="hsl(180, 50%, 82%)"/><circle cx="128.2985889379" cy="73.0415802574" r="3" fill="hsl(180, 50%, 82%)"/><circle cx="44.890566209499994" cy="130.0493119864" r="3" fill="hsl(180, 50%, 82%)"/><circle cx="115.9977556249" cy="88.3745795845" r="3" fill="hsl(180, 50%, 82%)"/><circle cx="124.75179761230001" cy="45.9238290679" r="3" fill="hsl(180, 50%, 82%)"/><circle cx="20.1976802263" cy="39.254388561099994" r="3" fill="hsl(180, 50%, 82%)"/><circle cx="116.6297080747" cy="126.1492133968" r="3" fill="hsl(180, 50%, 82%)"/><circle cx="96.73130333920001" cy="110.5279638148" r="3" fill="hsl(180, 50%, 82%)"/><circle cx="52.9996648924" cy="120.9477649099" r="3" fill="hsl(180, 50%, 82%)"/><circle cx="14.9278216204" cy="28.212912755799998" r="3" fill="hsl(180, 50%, 82%)"/><circle cx="131.0267140393" cy="45.765926992" r="3" fill="hsl(180, 50%, 82%)"/><circle cx="30.673360186900002" cy="138.9870280954" r="3" fill="hsl(180, 50%, 82%)"/><circle cx="56.6710469077" cy="68.5854381586" r="3" fill="hsl(180, 50%, 82%)"/><circle cx="63.6567274444" cy="52.7767925212" r="3" fill="hsl(180, 50%, 82%)"/><circle cx="45.5579860225" cy="101.60860065189999" r="3" fill="hsl(180, 50%, 82%)"/><circle cx="10" cy="56.14449010239999" r="3" fill="hsl(180, 50%, 82%)"/><circle cx="119.6792829226" cy="20.617136639199998" r="3" fill="hsl(180, 50%, 82%)"/><circle cx="85.880961274" cy="114.3206285599" r="3" fill="hsl(180, 50%, 82%)"/><circle cx="62.789405284" cy="92.84958061900001" r="3" fill="hsl(180, 50%, 82%)"/><circle cx="16.6898646253" cy="137.2839221074" r="3" fill="hsl(180, 50%, 82%)"/><circle cx="49.7599120396" cy="47.3789416633" r="3" fill="hsl(180, 50%, 82%)"/><circle cx="94.2095110417" cy="40.141572154900004" r="3" fill="hsl(180, 50%, 82%)"/><circle cx="123.4990231681" cy="16.405694821000008" r="3" fill="hsl(180, 50%, 82%)"/><circle cx="113.4293633287" cy="133.85884437160001" r="3" fill="hsl(180, 50%, 82%)"/><circle cx="135.69062090650002" cy="98.4046937128" r="3" fill="hsl(180, 50%, 82%)"/><circle cx="124.6169918899" cy="121.7229458791" r="3" fill="hsl(180, 50%, 82%)"/><circle cx="94.83079624930001" cy="97.55934158109999" r="3" fill="hsl(180, 50%, 82%)"/><circle cx="112.90289628160001" cy="122.4822698845" r="3" fill="hsl(180, 50%, 82%)"/><circle cx="75.5374348216" cy="12.105876044500008" r="3" fill="hsl(180, 50%, 82%)"/><circle cx="103.9624608913" cy="122.66919924369999" r="3" fill="hsl(180, 50%, 82%)"/><circle cx="95.1602530774" cy="52.2805083394" r="3" fill="hsl(180, 50%, 82%)"/><circle cx="117.04118516679999" cy="100.73192346310002" r="3" fill="hsl(180, 50%, 82%)"/><circle cx="28.3807643953" cy="29.608519134700007" r="3" fill="hsl(180, 50%, 82%)"/><circle cx="56.8525776427" cy="82.2983347417" r="3" fill="hsl(180, 50%, 82%)"/><circle cx="134.5452215989" cy="79.8133098565" r="3" fill="hsl(180, 50%, 82%)"/><circle cx="19.865945335600003" cy="53.6213819146" r="3" fill="hsl(180, 50%, 82%)"/><circle cx="102.8073768055" cy="78.67681988230001" r="3" fill="hsl(180, 50%, 82%)"/><circle cx="101.0100710701" cy="87.88360682289999" r="3" fill="hsl(180, 50%, 82%)"/><circle cx="126.81731340099999" cy="39.4520416" r="3" fill="hsl(180, 50%, 82%)"/><circle cx="45.6815791552" cy="78.04673800990001" r="3" fill="hsl(180, 50%, 82%)"/><circle cx="103.5152413306" cy="70.02595791280001" r="3" fill="hsl(180, 50%, 82%)"/><circle cx="77.1036343867" cy="30.148553047300002" r="3" fill="hsl(180, 50%, 82%)"/><circle cx="94.44020201260001" cy="17.483984510200003" r="3" fill="hsl(180, 50%, 82%)"/><circle cx="44.6729970154" cy="126.20771074299999" r="3" fill="hsl(180, 50%, 82%)"/><circle cx="33.4947338929" cy="114.55669341279999" r="3" fill="hsl(180, 50%, 82%)"/><circle cx="81.5772552502" cy="72.9038488537" r="3" fill="hsl(180, 50%, 82%)"/><circle cx="86.77717691890001" cy="113.1045878332" r="3" fill="hsl(180, 50%, 82%)"/><circle cx="40.4548208167" cy="131.7395385499" r="3" fill="hsl(180, 50%, 82%)"/><circle cx="12.5151499585" cy="93.1384009249" r="3" fill="hsl(180, 50%, 82%)"/><circle cx="106.66421392929999" cy="48.56713599850001" r="3" fill="hsl(180, 50%, 82%)"/><circle cx="96.08653871260002" cy="136.3285473592" r="3" fill="hsl(180, 50%, 82%)"/><circle cx="133.06873384539998" cy="95.0851091584" r="3" fill="hsl(180, 50%, 82%)"/><circle cx="65.8954360789" cy="35.4875393347" r="3" fill="hsl(180, 50%, 82%)"/><circle cx="21.160763137300002" cy="116.23462576029999" r="3" fill="hsl(180, 50%, 82%)"/><circle cx="51.7278207007" cy="30.038979247600004" r="3" fill="hsl(180, 50%, 82%)"/><circle cx="98.75975867919999" cy="92.7577578514" r="3" fill="hsl(180, 50%, 82%)"/><circle cx="131.0898319849" cy="37.7573414197" r="3" fill="hsl(180, 50%, 82%)"/><circle cx="10.5728420182" cy="80.87381848240001" r="3" fill="hsl(180, 50%, 82%)"/><circle cx="64.7152586551" cy="108.6374578111" r="3" fill="hsl(180, 50%, 82%)"/><circle cx="46.0006698013" cy="50.7997779823" r="3" fill="hsl(180, 50%, 82%)"/><circle cx="40.6069675318" cy="43.36602514330001" r="3" fill="hsl(180, 50%, 82%)"/><circle cx="70.5049371316" cy="128.8043616889" r="3" fill="hsl(180, 50%, 82%)"/><circle cx="62.294719567" cy="36.74678983690001" r="3" fill="hsl(180, 50%, 82%)"/><circle cx="26.0873825035" cy="74.098115464" r="3" fill="hsl(180, 50%, 82%)"/><circle cx="33.538549542700004" cy="19.308980366500005" r="3" fill="hsl(180, 50%, 82%)"/><circle cx="80.8335334465" cy="117.73307086179999" r="3" fill="hsl(180, 50%, 82%)"/><circle cx="82.21049100489999" cy="15.140683540000003" r="3" fill="hsl(180, 50%, 82%)"/><circle cx="117.5615184316" cy="95.12269412109998" r="3" fill="hsl(180, 50%, 82%)"/><circle cx="106.3103454895" cy="50.334129688000004" r="3" fill="hsl(180, 50%, 82%)"/><circle cx="106.91902289500001" cy="76.58116065070001" r="3" fill="hsl(180, 50%, 82%)"/><circle cx="129.21623002510003" cy="90.9242844505" r="3" fill="hsl(180, 50%, 82%)"/><circle cx="134.89948490769999" cy="123.27295918210001" r="3" fill="hsl(180, 50%, 82%)"/><circle cx="130.9748396563" cy="40.525461423100005" r="3" fill="hsl(180, 50%, 82%)"/><circle cx="133.9413906202" cy="67.5095612854" r="3" fill="hsl(180, 50%, 82%)"/><circle cx="131.5230049033" cy="117.17120523429999" r="3" fill="hsl(180, 50%, 82%)"/><circle cx="13.112660079100001" cy="48.4954768597" r="3" fill="hsl(180, 50%, 82%)"/><circle cx="121.96542569559999" cy="23.119738496800004" r="3" fill="hsl(180, 50%, 82%)"/><circle cx="17.2357018093" cy="93.42529600900001" r="3" fill="hsl(180, 50%, 82%)"/><circle cx="67.22701117929999" cy="19.3263847498" r="3" fill="hsl(180, 50%, 82%)"/><circle cx="47.461219591900004" cy="50.08478988369999" r="3" fill="hsl(180, 50%, 82%)"/><circle cx="37.9222752469" cy="59.86766221209999" r="3" fill="hsl(180, 50%, 82%)"/><circle cx="23.980532070400002" cy="41.527607082100005" r="3" fill="hsl(180, 50%, 82%)"/><circle cx="15.0259759918" cy="10" r="3" fill="hsl(180, 50%, 82%)"/><circle cx="113.8580692351" cy="59.8715569156" r="3" fill="hsl(180, 50%, 82%)"/><circle cx="109.5613009474" cy="138.7137015538" r="3" fill="hsl(180, 50%, 82%)"/><circle cx="65.14950232509999" cy="62.33825935030001" r="3" fill="hsl(180, 50%, 82%)"/><circle cx="136.68340971819998" cy="91.7918615278" r="3" fill="hsl(180, 50%, 82%)"/><circle cx="135.9377339257" cy="72.43459308729999" r="3" fill="hsl(180, 50%, 82%)"/><circle cx="18.2686273714" cy="59.379585964899995" r="3" fill="hsl(180, 50%, 82%)"/><circle cx="116.5583017759" cy="24.381434568099998" r="3" fill="hsl(180, 50%, 82%)"/><circle cx="78.26525381889999" cy="81.58171623790001" r="3" fill="hsl(180, 50%, 82%)"/><circle cx="92.5322327242" cy="131.0343817735" r="3" fill="hsl(180, 50%, 82%)"/><circle cx="132.181974094" cy="108.0802927888" r="3" fill="hsl(180, 50%, 82%)"/><circle cx="91.13260597" cy="61.0550982208" r="3" fill="hsl(180, 50%, 82%)"/><circle cx="103.4492672734" cy="28.726905980200005" r="3" fill="hsl(180, 50%, 82%)"/><circle cx="42.204903044800005" cy="112.345834369" r="3" fill="hsl(180, 50%, 82%)"/><circle cx="106.6533598564" cy="114.98849006889999" r="3" fill="hsl(180, 50%, 82%)"/><circle cx="134.0510531461" cy="113.5960704028" r="3" fill="hsl(180, 50%, 82%)"/><circle cx="77.9563100419" cy="54.2364141181" r="3" fill="hsl(180, 50%, 82%)"/><circle cx="31.4953843327" cy="89.195216503" r="3" fill="hsl(180, 50%, 82%)"/><circle cx="110.94231919360001" cy="100.28918940010001" r="3" fill="hsl(180, 50%, 82%)"/><circle cx="54.154849624" cy="112.7082601399" r="3" fill="hsl(180, 50%, 82%)"/><circle cx="108.261833947" cy="108.13579385200002" r="3" fill="hsl(180, 50%, 82%)"/><circle cx="44.575586587000004" cy="75.62485203279999" r="3" fill="hsl(180, 50%, 82%)"/><circle cx="34.2531100321" cy="109.41015073150001" r="3" fill="hsl(180, 50%, 82%)"/><circle cx="130.1578048048" cy="35.380460240199994" r="3" fill="hsl(180, 50%, 82%)"/><circle cx="44.284590838" cy="48.69674556219999" r="3" fill="hsl(180, 50%, 82%)"/><circle cx="56.773757391400004" cy="84.1410516505" r="3" fill="hsl(180, 50%, 82%)"/><circle cx="101.381479756" cy="34.9438236202" r="3" fill="hsl(180, 50%, 82%)"/><circle cx="43.624000878400004" cy="116.6355168931" r="3" fill="hsl(180, 50%, 82%)"/><circle cx="66.651714433" cy="106.5684290815" r="3" fill="hsl(180, 50%, 82%)"/><circle cx="114.17673107229999" cy="117.26138357440001" r="3" fill="hsl(180, 50%, 82%)"/><circle cx="51.879769504" cy="114.1206359125" r="3" fill="hsl(180, 50%, 82%)"/><circle cx="13.536658569100002" cy="63.5878440373" r="3" fill="hsl(180, 50%, 82%)"/><circle cx="111.0673579132" cy="33.35700539170001" r="3" fill="hsl(180, 50%, 82%)"/><circle cx="99.1107122866" cy="40.4599297714" r="3" fill="hsl(180, 50%, 82%)"/><circle cx="67.1304529894" cy="124.3232323417" r="3" fill="hsl(180, 50%, 82%)"/><circle cx="44.7353796739" cy="66.5910974362" r="3" fill="hsl(180, 50%, 82%)"/><circle cx="130.63472956959998" cy="51.1728156544" r="3" fill="hsl(180, 50%, 82%)"/><circle cx="33.339927984700005" cy="79.0304436865" r="3" fill="hsl(180, 50%, 82%)"/><circle cx="118.55849156469999" cy="126.590799334" r="3" fill="hsl(180, 50%, 82%)"/><circle cx="19.5454645855" cy="17.869780566099998" r="3" fill="hsl(180, 50%, 82%)"/><circle cx="123.2631037885" cy="83.6730150244" r="3" fill="hsl(180, 50%, 82%)"/><circle cx="103.7558595352" cy="37.6731235375" r="3" fill="hsl(180, 50%, 82%)"/><circle cx="52.347651252700004" cy="82.69151799549999" r="3" fill="hsl(180, 50%, 82%)"/><circle cx="121.59605745430001" cy="137.37619831" r="3" fill="hsl(180, 50%, 82%)"/><circle cx="53.3857009141" cy="13.573371827200008" r="3" fill="hsl(180, 50%, 82%)"/><circle cx="69.0441005224" cy="86.6765949352" r="3" fill="hsl(180, 50%, 82%)"/><circle cx="13.4584362715" cy="44.8508057521" r="3" fill="hsl(180, 50%, 82%)"/><circle cx="132.0978781555" cy="48.873615785199995" r="3" fill="hsl(180, 50%, 82%)"/><circle cx="95.052747367" cy="18.573787500999998" r="3" fill="hsl(180, 50%, 82%)"/><circle cx="29.3227384558" cy="125.65032858789999" r="3" fill="hsl(180, 50%, 82%)"/><circle cx="98.7372001267" cy="129.5811507592" r="3" fill="hsl(180, 50%, 82%)"/><circle cx="127.8861998545" cy="50.539801096000005" r="3" fill="hsl(180, 50%, 82%)"/><circle cx="110.4864017176" cy="22.979907256900002" r="3" fill="hsl(180, 50%, 82%)"/><circle cx="20.000693730400002" cy="95.52832128249999" r="3" fill="hsl(180, 50%, 82%)"/><circle cx="81.5727918889" cy="28.6876189141" r="3" fill="hsl(180, 50%, 82%)"/><circle cx="81.8108969284" cy="64.8563448715" r="3" fill="hsl(180, 50%, 82%)"/><circle cx="84.0392374975" cy="53.0116820809" r="3" fill="hsl(180, 50%, 82%)"/><circle cx="103.7628976075" cy="50.38622605420001" r="3" fill="hsl(180, 50%, 82%)"/><circle cx="27.249746614" cy="10.996936742199994" r="3" fill="hsl(180, 50%, 82%)"/><circle cx="120.4680254167" cy="77.98560146560001" r="3" fill="hsl(180, 50%, 82%)"/><circle cx="93.23222355370001" cy="104.5390189609" r="3" fill="hsl(180, 50%, 82%)"/><circle cx="117.580246342" cy="61.38068872539999" r="3" fill="hsl(180, 50%, 82%)"/><circle cx="43.5009840274" cy="30.369022135599995" r="3" fill="hsl(180, 50%, 82%)"/><circle cx="22.0648182928" cy="106.10824589799999" r="3" fill="hsl(180, 50%, 82%)"/><circle cx="53.2694972368" cy="123.04383790899999" r="3" fill="hsl(180, 50%, 82%)"/><circle cx="69.8381516503" cy="40.0812035992" r="3" fill="hsl(180, 50%, 82%)"/><circle cx="62.3793907294" cy="49.243784458600004" r="3" fill="hsl(180, 50%, 82%)"/><circle cx="34.5458910121" cy="32.1541054951" r="3" fill="hsl(180, 50%, 82%)"/><circle cx="31.471240447599996" cy="48.42006469809999" r="3" fill="hsl(180, 50%, 82%)"/><circle cx="45.9792301819" cy="33.439960776700005" r="3" fill="hsl(180, 50%, 82%)"/><circle cx="135.1738103608" cy="38.620591204899995" r="3" fill="hsl(180, 50%, 82%)"/><circle cx="16.2551703454" cy="134.0114548288" r="3" fill="hsl(180, 50%, 82%)"/><circle cx="11.9528515102" cy="18.1677779578" r="3" fill="hsl(180, 50%, 82%)"/><circle cx="32.5718228074" cy="28.622061642999995" r="3" fill="hsl(180, 50%, 82%)"/><circle cx="104.97970075" cy="51.688392702099996" r="3" fill="hsl(180, 50%, 82%)"/><circle cx="15.3471252715" cy="65.4139253899" r="3" fill="hsl(180, 50%, 82%)"/><circle cx="136.2987326986" cy="55.5008236915" r="3" fill="hsl(180, 50%, 82%)"/><circle cx="46.966097080900006" cy="39.8385234973" r="3" fill="hsl(180, 50%, 82%)"/><circle cx="72.5723384875" cy="123.9834814297" r="3" fill="hsl(180, 50%, 82%)"/><circle cx="123.6222593449" cy="35.0644943224" r="3" fill="hsl(180, 50%, 82%)"/><circle cx="12.698044494400001" cy="133.84048599460002" r="3" fill="hsl(180, 50%, 82%)"/><circle cx="33.849731985700004" cy="27.497746482400004" r="3" fill="hsl(180, 50%, 82%)"/><circle cx="34.6153611499" cy="19.9083672049" r="3" fill="hsl(180, 50%, 82%)"/><circle cx="75.9185510671" cy="101.95780873449999" r="3" fill="hsl(180, 50%, 82%)"/><circle cx="25.536226855899997" cy="64.1060420683" r="3" fill="hsl(180, 50%, 82%)"/><circle cx="126.28000787709999" cy="58.880136742299996" r="3" fill="hsl(180, 50%, 82%)"/><circle cx="65.9214252832" cy="58.279325937399996" r="3" fill="hsl(180, 50%, 82%)"/><circle cx="105.15290467690001" cy="108.17718514030001" r="3" fill="hsl(180, 50%, 82%)"/><circle cx="44.465769931900006" cy="23.706641850400004" r="3" fill="hsl(180, 50%, 82%)"/><circle cx="111.1546558252" cy="45.158802088600005" r="3" fill="hsl(180, 50%, 82%)"/><circle cx="96.7769625538" cy="71.9441664343" r="3" fill="hsl(180, 50%, 82%)"/><circle cx="56.5333876279" cy="88.43870956089998" r="3" fill="hsl(180, 50%, 82%)"/><circle cx="19.5701229613" cy="24.503304931599995" r="3" fill="hsl(180, 50%, 82%)"/><circle cx="11.953423754200001" cy="29.866097394999997" r="3" fill="hsl(180, 50%, 82%)"/><circle cx="68.6955197539" cy="115.27349149749999" r="3" fill="hsl(180, 50%, 82%)"/><circle cx="90.5600367868" cy="72.7460746168" r="3" fill="hsl(180, 50%, 82%)"/><circle cx="92.8703490514" cy="91.8038604628" r="3" fill="hsl(180, 50%, 82%)"/><circle cx="113.4863269423" cy="83.7263785834" r="3" fill="hsl(180, 50%, 82%)"/><circle cx="59.938605388" cy="58.1019818587" r="3" fill="hsl(180, 50%, 82%)"/><circle cx="118.38654996730001" cy="127.7634334183" r="3" fill="hsl(180, 50%, 82%)"/><circle cx="66.331373119" cy="77.9396826385" r="3" fill="hsl(180, 50%, 82%)"/><circle cx="78.67073651319998" cy="96.9503996095" r="3" fill="hsl(180, 50%, 82%)"/><circle cx="33.1876762378" cy="109.5564359575" r="3" fill="hsl(180, 50%, 82%)"/><circle cx="41.4171704143" cy="85.5446882794" r="3" fill="hsl(180, 50%, 82%)"/><circle cx="81.52580790879999" cy="96.1947002461" r="3" fill="hsl(180, 50%, 82%)"/><circle cx="117.02312011000001" cy="77.5672868317" r="3" fill="hsl(180, 50%, 82%)"/><circle cx="49.1451071599" cy="94.40756044599999" r="3" fill="hsl(180, 50%, 82%)"/><circle cx="138.39091948240002" cy="53.556310457500004" r="3" fill="hsl(180, 50%, 82%)"/><circle cx="62.7052213417" cy="23.125255646200003" r="3" fill="hsl(180, 50%, 82%)"/><circle cx="109.0535624944" cy="27.293821876299994" r="3" fill="hsl(180, 50%, 82%)"/><circle cx="30.2476188811" cy="35.33692370770001" r="3" fill="hsl(180, 50%, 82%)"/><circle cx="71.9031155125" cy="130.2922365949" r="3" fill="hsl(180, 50%, 82%)"/><circle cx="21.2269801402" cy="64.9535784409" r="3" fill="hsl(180, 50%, 82%)"/><circle cx="59.9680306105" cy="129.94633678180003" r="3" fill="hsl(180, 50%, 82%)"/><circle cx="66.1905509914" cy="36.66486115" r="3" fill="hsl(180, 50%, 82%)"/><circle cx="37.285361328099995" cy="45.66610040649999" r="3" fill="hsl(180, 50%, 82%)"/><circle cx="64.8770327047" cy="96.59814840400001" r="3" fill="hsl(180, 50%, 82%)"/><circle cx="63.76012567869999" cy="56.87053759030001" r="3" fill="hsl(180, 50%, 82%)"/><circle cx="59.212284304" cy="70.118755843" r="3" fill="hsl(180, 50%, 82%)"/><circle cx="18.981213554500002" cy="53.2394761762" r="3" fill="hsl(180, 50%, 82%)"/><circle cx="28.088119110399997" cy="117.2607791449" r="3" fill="hsl(180, 50%, 82%)"/><circle cx="100.16983318209999" cy="10.952507916700004" r="3" fill="hsl(180, 50%, 82%)"/><circle cx="127.20380332209999" cy="79.95448628259999" r="3" fill="hsl(180, 50%, 82%)"/><circle cx="48.750847414" cy="81.5550213649" r="3" fill="hsl(180, 50%, 82%)"/><circle cx="82.29773958729999" cy="104.966287459" r="3" fill="hsl(180, 50%, 82%)"/><circle cx="103.4487615547" cy="135.99131882289998" r="3" fill="hsl(180, 50%, 82%)"/><circle cx="132.2960877907" cy="45.21837185049999" r="3" fill="hsl(180, 50%, 82%)"/><circle cx="123.21474453939999" cy="95.32497691840001" r="3" fill="hsl(180, 50%, 82%)"/><circle cx="130.9103110441" cy="11.063220322000003" r="3" fill="hsl(180, 50%, 82%)"/><circle cx="32.6410345711" cy="64.82837212449999" r="3" fill="hsl(180, 50%, 82%)"/><circle cx="122.3944987876" cy="132.81146149570003" r="3" fill="hsl(180, 50%, 82%)"/><circle cx="110.51726597380001" cy="134.5849393831" r="3" fill="hsl(180, 50%, 82%)"/><circle cx="94.7033064394" cy="126.7281581728" r="3" fill="hsl(180, 50%, 82%)"/><circle cx="22.3237828516" cy="101.92192984839998" r="3" fill="hsl(180, 50%, 82%)"/><circle cx="58.003134047799996" cy="73.6556313772" r="3" fill="hsl(180, 50%, 82%)"/><circle cx="18.0337274401" cy="88.45496559909999" r="3" fill="hsl(180, 50%, 82%)"/><circle cx="134.22756442659997" cy="77.312944072" r="3" fill="hsl(180, 50%, 82%)"/><circle cx="136.57998323290002" cy="16.77930131859999" r="3" fill="hsl(180, 50%, 82%)"/><circle cx="44.813730855399996" cy="33.7893392038" r="3" fill="hsl(180, 50%, 82%)"/><circle cx="54.4584589027" cy="55.627342260400006" r="3" fill="hsl(180, 50%, 82%)"/><circle cx="51.7667983861" cy="113.6710283554" r="3" fill="hsl(180, 50%, 82%)"/><circle cx="84.82468286769999" cy="29.093312420200007" r="3" fill="hsl(180, 50%, 82%)"/><circle cx="134.1816825064" cy="105.1556409217" r="3" fill="hsl(180, 50%, 82%)"/><circle cx="97.94487975310001" cy="32.36892822760001" r="3" fill="hsl(180, 50%, 82%)"/><circle cx="36.8488552045" cy="72.8891086687" r="3" fill="hsl(180, 50%, 82%)"/><circle cx="127.45317731140001" cy="27.258495136" r="3" fill="hsl(180, 50%, 82%)"/><circle cx="10.6828875322" cy="58.38858888579999" r="3" fill="hsl(180, 50%, 82%)"/><circle cx="92.1801282562" cy="10.938077099499992" r="3" fill="hsl(180, 50%, 82%)"/><circle cx="99.11617995159999" cy="69.3048392569" r="3" fill="hsl(180, 50%, 82%)"/><circle cx="32.988905917000004" cy="104.95935123219999" r="3" fill="hsl(180, 50%, 82%)"/><circle cx="116.2659698062" cy="130.1076946387" r="3" fill="hsl(180, 50%, 82%)"/><circle cx="11.0587879981" cy="60.044300557599996" r="3" fill="hsl(180, 50%, 82%)"/><circle cx="97.5003189727" cy="32.3210586367" r="3" fill="hsl(180, 50%, 82%)"/><circle cx="78.44664694960001" cy="30.170437497400002" r="3" fill="hsl(180, 50%, 82%)"/><circle cx="116.9666531206" cy="88.7187774232" r="3" fill="hsl(180, 50%, 82%)"/><circle cx="21.0667215955" cy="40.4403926698" r="3" fill="hsl(180, 50%, 82%)"/><circle cx="135.2393770747" cy="25.516131055300004" r="3" fill="hsl(180, 50%, 82%)"/><circle cx="91.90638941770001" cy="126.67969438210001" r="3" fill="hsl(180, 50%, 82%)"/><circle cx="86.5384009633" cy="137.0747036896" r="3" fill="hsl(180, 50%, 82%)"/><circle cx="86.5103643484" cy="31.290878194599998" r="3" fill="hsl(180, 50%, 82%)"/><circle cx="106.0295095999" cy="59.48341182129999" r="3" fill="hsl(180, 50%, 82%)"/><circle cx="24.950135866900002" cy="116.7577378657" r="3" fill="hsl(180, 50%, 82%)"/><circle cx="119.56577784790001" cy="62.615168750799995" r="3" fill="hsl(180, 50%, 82%)"/><circle cx="77.3585235388" cy="112.1907882112" r="3" fill="hsl(180, 50%, 82%)"/><circle cx="64.6283096365" cy="63.9859200934" r="3" fill="hsl(180, 50%, 82%)"/><circle cx="91.22675680060001" cy="48.1356675313" r="3" fill="hsl(180, 50%, 82%)"/><circle cx="106.9173076207" cy="58.81618515999999" r="3" fill="hsl(180, 50%, 82%)"/><circle cx="29.5251368887" cy="68.9723928151" r="3" fill="hsl(180, 50%, 82%)"/><circle cx="18.9780413929" cy="62.703238353699994" r="3" fill="hsl(180, 50%, 82%)"/><circle cx="137.1019626151" cy="104.5448649958" r="3" fill="hsl(180, 50%, 82%)"/><circle cx="60.3761374357" cy="103.85753823820001" r="3" fill="hsl(180, 50%, 82%)"/><circle cx="82.19249962" cy="133.44258782949998" r="3" fill="hsl(180, 50%, 82%)"/><circle cx="139" cy="36.0694125655" r="3" fill="hsl(180, 50%, 82%)"/><circle cx="89.82679749729999" cy="34.01680652920001" r="3" fill="hsl(180, 50%, 82%)"/><circle cx="38.120754234100005" cy="28.092970658500004" r="3" fill="hsl(180, 50%, 82%)"/><circle cx="137.6489563873" cy="56.918471255499995" r="3" fill="hsl(180, 50%, 82%)"/><circle cx="82.6951304341" cy="80.7350554915" r="3" fill="hsl(180, 50%, 82%)"/><circle cx="93.1277039095" cy="54.2349338818" r="3" fill="hsl(180, 50%, 82%)"/><circle cx="81.7227856843" cy="40.54465989970001" r="3" fill="hsl(180, 50%, 82%)"/><circle cx="55.4558306071" cy="34.201210558599996" r="3" fill="hsl(180, 50%, 82%)"/><circle cx="92.16789472180001" cy="94.4139084586" r="3" fill="hsl(180, 50%, 82%)"/><circle cx="32.6221844461" cy="76.8183070525" r="3" fill="hsl(180, 50%, 82%)"/><circle cx="68.5020406132" cy="101.00453017180001" r="3" fill="hsl(180, 50%, 82%)"/><circle cx="86.4373092619" cy="138.407072269" r="3" fill="hsl(180, 50%, 82%)"/><circle cx="51.8333728093" cy="55.1685240388" r="3" fill="hsl(180, 50%, 82%)"/><circle cx="12.5871423817" cy="64.5443319136" r="3" fill="hsl(180, 50%, 82%)"/><circle cx="58.3692800497" cy="41.115141372699995" r="3" fill="hsl(180, 50%, 82%)"/><circle cx="36.9450670165" cy="32.8591342519" r="3" fill="hsl(180, 50%, 82%)"/><circle cx="36.2149783327" cy="60.67659493479999" r="3" fill="hsl(180, 50%, 82%)"/><circle cx="35.0692873045" cy="68.3427628426" r="3" fill="hsl(180, 50%, 82%)"/><circle cx="71.0640557041" cy="110.1475363261" r="3" fill="hsl(180, 50%, 82%)"/><circle cx="85.42391568010001" cy="110.544513715" r="3" fill="hsl(180, 50%, 82%)"/><circle cx="75.656016214" cy="28.296636529300002" r="3" fill="hsl(180, 50%, 82%)"/><circle cx="122.0262416491" cy="55.3993721833" r="3" fill="hsl(180, 50%, 82%)"/><circle cx="69.9717774871" cy="52.5399889756" r="3" fill="hsl(180, 50%, 82%)"/><circle cx="115.01710540359998" cy="36.7503217408" r="3" fill="hsl(180, 50%, 82%)"/><circle cx="80.8204704679" cy="99.3522302146" r="3" fill="hsl(180, 50%, 82%)"/><circle cx="95.1089228293" cy="136.6493725006" r="3" fill="hsl(180, 50%, 82%)"/><circle cx="135.71329562350002" cy="96.4684214503" r="3" fill="hsl(180, 50%, 82%)"/><circle cx="63.7292788117" cy="68.2480495591" r="3" fill="hsl(180, 50%, 82%)"/><circle cx="102.9000145693" cy="118.18295776839999" r="3" fill="hsl(180, 50%, 82%)"/><circle cx="58.2899508547" cy="97.8650861194" r="3" fill="hsl(180, 50%, 82%)"/><circle cx="16.515082525300002" cy="80.410829149" r="3" fill="hsl(180, 50%, 82%)"/><circle cx="20.694741762099998" cy="25.025135628399998" r="3" fill="hsl(180, 50%, 82%)"/><circle cx="78.37510095670001" cy="33.3468042265" r="3" fill="hsl(180, 50%, 82%)"/><circle cx="86.97738622179999" cy="18.091876821699998" r="3" fill="hsl(180, 50%, 82%)"/><circle cx="19.880735250100003" cy="44.4412888279" r="3" fill="hsl(180, 50%, 82%)"/><circle cx="98.3603161777" cy="36.270014428299994" r="3" fill="hsl(180, 50%, 82%)"/><circle cx="84.01827399129999" cy="100.121428654" r="3" fill="hsl(180, 50%, 82%)"/><circle cx="50.0078481691" cy="24.318656847100005" r="3" fill="hsl(180, 50%, 82%)"/><circle cx="55.5000381847" cy="33.824406022" r="3" fill="hsl(180, 50%, 82%)"/><circle cx="109.2216652066" cy="73.1420374078" r="3" fill="hsl(180, 50%, 82%)"/><circle cx="128.3097226699" cy="100.21114219420001" r="3" fill="hsl(180, 50%, 82%)"/><circle cx="10.062489470500001" cy="41.1144843112" r="3" fill="hsl(180, 50%, 82%)"/><circle cx="109.0756736233" cy="113.7770297839" r="3" fill="hsl(180, 50%, 82%)"/><circle cx="115.72037222680001" cy="28.021513249900003" r="3" fill="hsl(180, 50%, 82%)"/><circle cx="95.01386312919999" cy="71.921082052" r="3" fill="hsl(180, 50%, 82%)"/><circle cx="91.2757960216" cy="56.749524406" r="3" fill="hsl(180, 50%, 82%)"/><circle cx="120.0669495559" cy="109.4474539324" r="3" fill="hsl(180, 50%, 82%)"/><circle cx="128.9534610757" cy="16.26705608289999" r="3" fill="hsl(180, 50%, 82%)"/><circle cx="37.9431625141" cy="125.4911919304" r="3" fill="hsl(180, 50%, 82%)"/><circle cx="97.1679305164" cy="124.5008654965" r="3" fill="hsl(180, 50%, 82%)"/><circle cx="41.732926719999995" cy="117.87669188950001" r="3" fill="hsl(180, 50%, 82%)"/><circle cx="121.2897362086" cy="21.564760254699994" r="3" fill="hsl(180, 50%, 82%)"/><circle cx="50.1207112624" cy="96.2094535246" r="3" fill="hsl(180, 50%, 82%)"/><circle cx="69.8305185526" cy="121.51300068819998" r="3" fill="hsl(180, 50%, 82%)"/><circle cx="111.1939264051" cy="70.1654957809" r="3" fill="hsl(180, 50%, 82%)"/><circle cx="47.9540729542" cy="76.7842500463" r="3" fill="hsl(180, 50%, 82%)"/><circle cx="86.6195335525" cy="94.6001140117" r="3" fill="hsl(180, 50%, 82%)"/><circle cx="44.2266326473" cy="120.2290128751" r="3" fill="hsl(180, 50%, 82%)"/><circle cx="98.1981972466" cy="81.91855976079998" r="3" fill="hsl(180, 50%, 82%)"/><circle cx="20.687999486800003" cy="60.4519971886" r="3" fill="hsl(180, 50%, 82%)"/><circle cx="24.4391352748" cy="121.8471716923" r="3" fill="hsl(180, 50%, 82%)"/><circle cx="93.6763710826" cy="27.837368291199997" r="3" fill="hsl(180, 50%, 82%)"/><circle cx="104.08500321580001" cy="11.548676966200002" r="3" fill="hsl(180, 50%, 82%)"/><circle cx="41.1999555316" cy="32.272609500399994" r="3" fill="hsl(180, 50%, 82%)"/><circle cx="87.1404244456" cy="41.591523434500004" r="3" fill="hsl(180, 50%, 82%)"/><circle cx="71.8951715764" cy="122.9798894872" r="3" fill="hsl(180, 50%, 82%)"/><circle cx="115.0227282556" cy="94.1897983582" r="3" fill="hsl(180, 50%, 82%)"/><circle cx="30.4118471686" cy="70.1325926281" r="3" fill="hsl(180, 50%, 82%)"/><circle cx="78.17820910809999" cy="105.36190224669998" r="3" fill="hsl(180, 50%, 82%)"/><circle cx="107.1314789935" cy="92.7754742341" r="3" fill="hsl(180, 50%, 82%)"/><circle cx="78.52267546030001" cy="68.54909173780001" r="3" fill="hsl(180, 50%, 82%)"/><circle cx="132.5685613327" cy="12.433445744499995" r="3" fill="hsl(180, 50%, 82%)"/><circle cx="99.2462225812" cy="139" r="3" fill="hsl(180, 50%, 82%)"/><circle cx="113.74098306879999" cy="24.25312842040001" r="3" fill="hsl(180, 50%, 82%)"/><circle cx="137.4767809645" cy="136.576660051" r="3" fill="hsl(180, 50%, 82%)"/><circle cx="121.45774591180002" cy="27.032098600900007" r="3" fill="hsl(180, 50%, 82%)"/><circle cx="34.37428566609999" cy="30.683499625600007" r="3" fill="hsl(180, 50%, 82%)"/><circle cx="15.313552531300001" cy="130.1398771975" r="3" fill="hsl(180, 50%, 82%)"/><circle cx="86.6652534616" cy="14.285235984400003" r="3" fill="hsl(180, 50%, 82%)"/><circle cx="70.65070920849999" cy="90.2535799363" r="3" fill="hsl(180, 50%, 82%)"/><circle cx="74.16749300560001" cy="11.312690829099994" r="3" fill="hsl(180, 50%, 82%)"/><circle cx="95.8979716984" cy="68.0429344507" r="3" fill="hsl(180, 50%, 82%)"/><circle cx="112.6500100867" cy="77.79395215119999" r="3" fill="hsl(180, 50%, 82%)"/><circle cx="74.59119335080001" cy="38.973864645099994" r="3" fill="hsl(180, 50%, 82%)"/><circle cx="71.51176389100002" cy="122.4054809317" r="3" fill="hsl(180, 50%, 82%)"/><circle cx="13.5732365707" cy="55.931570094099996" r="3" fill="hsl(180, 50%, 82%)"/><circle cx="23.0339822896" cy="24.254485100500006" r="3" fill="hsl(180, 50%, 82%)"/><circle cx="74.95659172030001" cy="137.0858289721" r="3" fill="hsl(180, 50%, 82%)"/><circle cx="44.609307303099996" cy="63.6901110319" r="3" fill="hsl(180, 50%, 82%)"/><circle cx="52.251355681" cy="89.86354012870001" r="3" fill="hsl(180, 50%, 82%)"/><circle cx="125.8737921403" cy="55.1788181743" r="3" fill="hsl(180, 50%, 82%)"/><circle cx="41.589408415" cy="26.120172652300006" r="3" fill="hsl(180, 50%, 82%)"/><circle cx="118.9844962498" cy="56.4220264171" r="3" fill="hsl(180, 50%, 82%)"/><circle cx="41.0662085896" cy="34.1954359768" r="3" fill="hsl(180, 50%, 82%)"/><circle cx="64.8195410554" cy="102.9001360486" r="3" fill="hsl(180, 50%, 82%)"/><circle cx="37.3871359297" cy="106.4748347311" r="3" fill="hsl(180, 50%, 82%)"/><circle cx="68.85980218270001" cy="59.3483492341" r="3" fill="hsl(180, 50%, 82%)"/><circle cx="127.06931840979999" cy="32.052843410499996" r="3" fill="hsl(180, 50%, 82%)"/><circle cx="35.9149529836" cy="23.5589581483" r="3" fill="hsl(180, 50%, 82%)"/><circle cx="54.2229256459" cy="72.10269841720002" r="3" fill="hsl(180, 50%, 82%)"/><circle cx="52.36405464759999" cy="33.713587101399995" r="3" fill="hsl(180, 50%, 82%)"/><circle cx="23.6166971809" cy="19.701120332800002" r="3" fill="hsl(180, 50%, 82%)"/><circle cx="37.6877742739" cy="105.761994031" r="3" fill="hsl(180, 50%, 82%)"/><circle cx="32.1531161038" cy="124.1482983829" r="3" fill="hsl(180, 50%, 82%)"/><circle cx="85.06094222680001" cy="82.316400637" r="3" fill="hsl(180, 50%, 82%)"/><circle cx="115.8814189744" cy="95.5036267351" r="3" fill="hsl(180, 50%, 82%)"/><circle cx="111.0833591377" cy="63.28161367210001" r="3" fill="hsl(180, 50%, 82%)"/><circle cx="99.0026696782" cy="78.2515541995" r="3" fill="hsl(180, 50%, 82%)"/><circle cx="45.3690028285" cy="138.15187501329999" r="3" fill="hsl(180, 50%, 82%)"/><circle cx="42.383058675399994" cy="65.22967875340001" r="3" fill="hsl(180, 50%, 82%)"/><circle cx="78.6698099062" cy="14.302771857399993" r="3" fill="hsl(180, 50%, 82%)"/><circle cx="102.0809494513" cy="118.4872342996" r="3" fill="hsl(180, 50%, 82%)"/><circle cx="138.689288149" cy="94.4374461598" r="3" fill="hsl(180, 50%, 82%)"/><circle cx="86.2444101826" cy="122.9903795221" r="3" fill="hsl(180, 50%, 82%)"/><circle cx="101.94141126070001" cy="18.796898225499994" r="3" fill="hsl(180, 50%, 82%)"/><circle cx="48.487172897499995" cy="34.420389337299994" r="3" fill="hsl(180, 50%, 82%)"/><circle cx="136.5174154594" cy="98.39044103169999" r="3" fill="hsl(180, 50%, 82%)"/><circle cx="28.931681625100005" cy="14.330455128400004" r="3" fill="hsl(180, 50%, 82%)"/><circle cx="90.7252953586" cy="118.0659240277" r="3" fill="hsl(180, 50%, 82%)"/><circle cx="85.1318365375" cy="83.6323179625" r="3" fill="hsl(180, 50%, 82%)"/><circle cx="17.4876930022" cy="23.6086486774" r="3" fill="hsl(180, 50%, 82%)"/><circle cx="118.299891547" cy="112.46378701539999" r="3" fill="hsl(180, 50%, 82%)"/><circle cx="118.1740708036" cy="37.1696216251" r="3" fill="hsl(180, 50%, 82%)"/><circle cx="106.0319474806" cy="108.14881303509999" r="3" fill="hsl(180, 50%, 82%)"/><circle cx="14.0995867051" cy="33.3129829936" r="3" fill="hsl(180, 50%, 82%)"/><circle cx="111.98241583990001" cy="113.94516625540001" r="3" fill="hsl(180, 50%, 82%)"/><circle cx="43.6826403439" cy="107.56006290459999" r="3" fill="hsl(180, 50%, 82%)"/><circle cx="77.5833345994" cy="45.007035304300004" r="3" fill="hsl(180, 50%, 82%)"/><circle cx="45.608600785" cy="115.65803275750001" r="3" fill="hsl(180, 50%, 82%)"/><circle cx="102.9813723538" cy="17.8440539284" r="3" fill="hsl(180, 50%, 82%)"/><circle cx="56.7781163659" cy="76.60638056350001" r="3" fill="hsl(180, 50%, 82%)"/><circle cx="128.5462908679" cy="39.197432016700006" r="3" fill="hsl(180, 50%, 82%)"/><circle cx="32.0553645607" cy="112.5751713301" r="3" fill="hsl(180, 50%, 82%)"/><circle cx="16.207786426600002" cy="104.1561515275" r="3" fill="hsl(180, 50%, 82%)"/><circle cx="71.0169759028" cy="99.7661828425" r="3" fill="hsl(180, 50%, 82%)"/><circle cx="70.75971118989999" cy="59.43933560440001" r="3" fill="hsl(180, 50%, 82%)"/><circle cx="130.7643778075" cy="19.679087365" r="3" fill="hsl(180, 50%, 82%)"/><circle cx="90.4659134074" cy="91.76228181489999" r="3" fill="hsl(180, 50%, 82%)"/><circle cx="42.882289372" cy="60.61564373769999" r="3" fill="hsl(180, 50%, 82%)"/><circle cx="93.7260792718" cy="104.449926517" r="3" fill="hsl(180, 50%, 82%)"/><circle cx="16.8615160372" cy="93.38781210490002" r="3" fill="hsl(180, 50%, 82%)"/><circle cx="133.8549514096" cy="110.066689717" r="3" fill="hsl(180, 50%, 82%)"/><circle cx="49.7169186487" cy="101.23441232559999" r="3" fill="hsl(180, 50%, 82%)"/><circle cx="100.794736672" cy="44.0538089479" r="3" fill="hsl(180, 50%, 82%)"/><circle cx="67.22879603620001" cy="21.059996902899996" r="3" fill="hsl(180, 50%, 82%)"/><circle cx="103.9130996218" cy="24.272194272099995" r="3" fill="hsl(180, 50%, 82%)"/><circle cx="120.4775548531" cy="39.19386440559999" r="3" fill="hsl(180, 50%, 82%)"/><circle cx="51.1165355731" cy="121.40760620470002" r="3" fill="hsl(180, 50%, 82%)"/><circle cx="97.1285029564" cy="48.55122142329999" r="3" fill="hsl(180, 50%, 82%)"/><circle cx="107.5293485851" cy="34.2737221939" r="3" fill="hsl(180, 50%, 82%)"/><circle cx="61.37979092409999" cy="90.842742067" r="3" fill="hsl(180, 50%, 82%)"/><circle cx="50.4456557866" cy="83.09901693400002" r="3" fill="hsl(180, 50%, 82%)"/><circle cx="123.0618987862" cy="138.8575069354" r="3" fill="hsl(180, 50%, 82%)"/><circle cx="81.03761291709999" cy="110.1773720782" r="3" fill="hsl(180, 50%, 82%)"/><circle cx="84.1175161939" cy="127.9550903566" r="3" fill="hsl(180, 50%, 82%)"/><circle cx="20.2700848948" cy="114.53615413600001" r="3" fill="hsl(180, 50%, 82%)"/><circle cx="137.83957884880002" cy="55.5868664206" r="3" fill="hsl(180, 50%, 82%)"/><circle cx="65.487462214" cy="100.1066945707" r="3" fill="hsl(180, 50%, 82%)"/><circle cx="85.05553067679999" cy="80.4977845531" r="3" fill="hsl(180, 50%, 82%)"/><circle cx="69.5727612274" cy="89.3390235874" r="3" fill="hsl(180, 50%, 82%)"/><circle cx="40.709832622" cy="128.1839172388" r="3" fill="hsl(180, 50%, 82%)"/><circle cx="98.8129552864" cy="116.1832504267" r="3" fill="hsl(180, 50%, 82%)"/><circle cx="64.7708237281" cy="63.1626156871" r="3" fill="hsl(180, 50%, 82%)"/><circle cx="28.3854409936" cy="61.854923001699994" r="3" fill="hsl(180, 50%, 82%)"/><circle cx="56.5022493112" cy="106.0507574221" r="3" fill="hsl(180, 50%, 82%)"/><circle cx="80.8460387839" cy="11.200533984999998" r="3" fill="hsl(180, 50%, 82%)"/><circle cx="109.5725212771" cy="102.21590766460001" r="3" fill="hsl(180, 50%, 82%)"/><circle cx="74.70039568210001" cy="86.59230508390002" r="3" fill="hsl(180, 50%, 82%)"/><circle cx="77.824563361" cy="49.674436936300005" r="3" fill="hsl(180, 50%, 82%)"/><circle cx="112.073868571" cy="15.503807652400006" r="3" fill="hsl(180, 50%, 82%)"/><circle cx="47.738022748" cy="97.1726092432" r="3" fill="hsl(180, 50%, 82%)"/><circle cx="12.1305380194" cy="100.3529950963" r="3" fill="hsl(180, 50%, 82%)"/><circle cx="132.1793184355" cy="31.33040413" r="3" fill="hsl(180, 50%, 82%)"/><circle cx="24.746147805699998" cy="14.358481655500004" r="3" fill="hsl(180, 50%, 82%)"/><circle cx="125.15419350430001" cy="28.136968946500005" r="3" fill="hsl(180, 50%, 82%)"/><circle cx="129.86447918680003" cy="70.050126037" r="3" fill="hsl(180, 50%, 82%)"/><circle cx="135.998549131" cy="135.717308749" r="3" fill="hsl(180, 50%, 82%)"/><circle cx="82.65209532460001" cy="90.8566891084" r="3" fill="hsl(180, 50%, 82%)"/><circle cx="82.8658828837" cy="22.929060229899996" r="3" fill="hsl(180, 50%, 82%)"/><circle cx="67.8878526502" cy="109.6911291145" r="3" fill="hsl(180, 50%, 82%)"/><circle cx="56.0537724391" cy="81.46333771089999" r="3" fill="hsl(180, 50%, 82%)"/><circle cx="68.61497672050001" cy="95.41675581309998" r="3" fill="hsl(180, 50%, 82%)"/><circle cx="69.62213475189999" cy="94.2933981679" r="3" fill="hsl(180, 50%, 82%)"/><circle cx="48.4596597646" cy="27.730718276500006" r="3" fill="hsl(180, 50%, 82%)"/><circle cx="119.57219305660001" cy="102.3759116536" r="3" fill="hsl(180, 50%, 82%)"/><circle cx="125.70193065190001" cy="84.31757236089999" r="3" fill="hsl(180, 50%, 82%)"/><circle cx="54.2670327712" cy="111.3797999509" r="3" fill="hsl(180, 50%, 82%)"/><circle cx="102.0533080537" cy="135.33610548009997" r="3" fill="hsl(180, 50%, 82%)"/><circle cx="87.6658058416" cy="135.4868266033" r="3" fill="hsl(180, 50%, 82%)"/><circle cx="47.381440561000005" cy="13.277030563300002" r="3" fill="hsl(180, 50%, 82%)"/><circle cx="86.4918740044" cy="101.2127665513" r="3" fill="hsl(180, 50%, 82%)"/><circle cx="46.85981887" cy="122.88915535059999" r="3" fill="hsl(180, 50%, 82%)"/><circle cx="52.406240821" cy="80.8694605399" r="3" fill="hsl(180, 50%, 82%)"/><circle cx="102.4079646061" cy="65.826467893" r="3" fill="hsl(180, 50%, 82%)"/><circle cx="14.667064774300002" cy="94.36191135790001" r="3" fill="hsl(180, 50%, 82%)"/><circle cx="15.8681331934" cy="17.705061872199998" r="3" fill="hsl(180, 50%, 82%)"/><circle cx="64.7694278449" cy="61.665617655999995" r="3" fill="hsl(180, 50%, 82%)"/><circle cx="104.5708042126" cy="138.6432973012" r="3" fill="hsl(180, 50%, 82%)"/><circle cx="23.0003158825" cy="69.7638130267" r="3" fill="hsl(180, 50%, 82%)"/><circle cx="87.7139446168" cy="45.4382224612" r="3" fill="hsl(180, 50%, 82%)"/><circle cx="24.193314861399998" cy="92.9049422203" r="3" fill="hsl(180, 50%, 82%)"/><circle cx="106.7251792906" cy="108.17379622" r="3" fill="hsl(180, 50%, 82%)"/><circle cx="135.54391440519998" cy="13.089648169000005" r="3" fill="hsl(180, 50%, 82%)"/><circle cx="72.6071957323" cy="122.2560936427" r="3" fill="hsl(180, 50%, 82%)"/><circle cx="11.6353606189" cy="123.8167740202" r="3" fill="hsl(180, 50%, 82%)"/><circle cx="58.3624107223" cy="95.3820717379" r="3" fill="hsl(180, 50%, 82%)"/><circle cx="110.1232381441" cy="65.4237699991" r="3" fill="hsl(180, 50%, 82%)"/><circle cx="66.5073973729" cy="120.85263730419999" r="3" fill="hsl(180, 50%, 82%)"/><circle cx="28.1272841812" cy="40.671699602800004" r="3" fill="hsl(180, 50%, 82%)"/><circle cx="131.7958282159" cy="105.8842361854" r="3" fill="hsl(180, 50%, 82%)"/><circle cx="78.24051496000001" cy="33.0783648886" r="3" fill="hsl(180, 50%, 82%)"/><circle cx="114.57566967400001" cy="55.971185736100004" r="3" fill="hsl(180, 50%, 82%)"/><circle cx="14.8144204681" cy="118.6794102307" r="3" fill="hsl(180, 50%, 82%)"/><circle cx="118.9589490511" cy="34.1003277082" r="3" fill="hsl(180, 50%, 82%)"/><circle cx="96.2549697814" cy="64.459510492" r="3" fill="hsl(180, 50%, 82%)"/><circle cx="44.0417174554" cy="53.3230034053" r="3" fill="hsl(180, 50%, 82%)"/><circle cx="23.2370807539" cy="15.776322771100002" r="3" fill="hsl(180, 50%, 82%)"/><circle cx="84.154909798" cy="129.60719011869998" r="3" fill="hsl(180, 50%, 82%)"/><circle cx="121.4854600009" cy="65.99329418890001" r="3" fill="hsl(180, 50%, 82%)"/><circle cx="38.6666614006" cy="133.2151036954" r="3" fill="hsl(180, 50%, 82%)"/><circle cx="137.7744678274" cy="75.06893575630001" r="3" fill="hsl(180, 50%, 82%)"/><circle cx="38.4625393213" cy="64.62242475970001" r="3" fill="hsl(180, 50%, 82%)"/><circle cx="34.4372136076" cy="105.11688207190001" r="3" fill="hsl(180, 50%, 82%)"/></g></svg>