<svg class="plot-ddf1f948fd9ed" fill="currentColor" font-family="system-ui, sans-serif" font-size="10" text-anchor="middle" width="150" height="150" viewBox="0 0 150 150" xmlns="http://www.w3.org/2000/svg" xmlns:xlink="http://www.w3.org/1999/xlink"><style>
        .plot-ddf1f948fd9ed {
          display: block;
          background: white;
          height: auto;
          height: intrinsic;
          max-width: 100%;
        }
        .plot-ddf1f948fd9ed text,
        .plot-ddf1f948fd9ed tspan {
          white-space: pre;
        }
      </style><g aria-label="dot" fill-opacity="0.3" transform="translate(0.5,0.5)"><circle cx="23.57030539344771" cy="124.4597317956327" r="3" fill="hsl(180, 50%, 82%)"/><circle cx="44.06317690449585" cy="107.12150152861128" r="3" fill="hsl(180, 50%, 82%)"/><circle cx="35.7868159605638" cy="86.68710120826005" r="3" fill="hsl(180, 50%, 82%)"/><circle cx="26.94486852541135" cy="93.3605830032098" r="3" fill="hsl(180, 50%, 82%)"/><circle cx="32.517395510542244" cy="95.45166740630266" r="3" fill="hsl(180, 50%, 82%)"/><circle cx="33.46896198110046" cy="130.99276573181427" r="3" fill="hsl(180, 50%, 82%)"/><circle cx="26.987425502370712" cy="92.5214706828194" r="3" fill="hsl(180, 50%, 82%)"/><circle cx="25.728449900023357" cy="100.47864724079686" r="3" fill="hsl(180, 50%, 82%)"/><circle cx="44.684816207734485" cy="102.86098293154959" r="3" fill="hsl(180, 50%, 82%)"/><circle cx="24.019794542483865" cy="104.0411601922065" r="3" fill="hsl(180, 50%, 82%)"/><circle cx="40.270141284888595" cy="111.77841446010287" r="3" fill="hsl(180, 50%, 82%)"/><circle cx="25.872610976076807" cy="118.98242885670459" r="3" fill="hsl(180, 50%, 82%)"/><circle cx="46.09744026452796" cy="129.44648378546125" r="3" fill="hsl(180, 50%, 82%)"/><circle cx="36.524157157530304" cy="105.33850498188706" r="3" fill="hsl(180, 50%, 82%)"/><circle cx="24.268191092236023" cy="126.80679688935321" r="3" fill="hsl(180, 50%, 82%)"/><circle cx="10.333575889601402" cy="91.94223107475074" r="3" fill="hsl(180, 50%, 82%)"/><circle cx="37.396197490542" cy="126.23205721503155" r="3" fill="hsl(180, 50%, 82%)"/><circle cx="25.235312555555176" cy="88.58445343375838" r="3" fill="hsl(180, 50%, 82%)"/><circle cx="36.819112020276265" cy="100.21774129012839" r="3" fill="hsl(180, 50%, 82%)"/><circle cx="31.389399099430335" cy="112.46886405881466" r="3" fill="hsl(180, 50%, 82%)"/><circle cx="37.298529823597946" cy="100.13289632813769" r="3" fill="hsl(180, 50%, 82%)"/><circle cx="35.93320931542533" cy="110.06176019607695" r="3" fill="hsl(180, 50%, 82%)"/><circle cx="29.926284374835365" cy="120.32573652882778" r="3" fill="hsl(180, 50%, 82%)"/><circle cx="43.66065515070997" cy="134.6304062744516" r="3" fill="hsl(180, 50%, 82%)"/><circle cx="24.42545065230282" cy="114.30675549579313" r="3" fill="hsl(180, 50%, 82%)"/><circle cx="20.15769406240733" cy="105.32773518179123" r="3" fill="hsl(180, 50%, 82%)"/><circle cx="28.724901281627883" cy="100.7381341362166" r="3" fill="hsl(180, 50%, 82%)"/><circle cx="15.905599435146712" cy="115.90858065238041" r="3" fill="hsl(180, 50%, 82%)"/><circle cx="32.017692793439046" cy="112.17541202949403" r="3" fill="hsl(180, 50%, 82%)"/><circle cx="24.180741984894397" cy="85.93952708979103" r="3" fill="hsl(180, 50%, 82%)"/><circle cx="37.407294798896636" cy="115.45315017037885" r="3" fill="hsl(180, 50%, 82%)"/><circle cx="32.02499449963169" cy="109.43557537636772" r="3" fill="hsl(180, 50%, 82%)"/><circle cx="23.506068840039237" cy="114.64671166320551" r="3" fill="hsl(180, 50%, 82%)"/><circle cx="27.011756313724703" cy="83.09712437323708" r="3" fill="hsl(180, 50%, 82%)"/><circle cx="34.10245970768794" cy="120.93004011923482" r="3" fill="hsl(180, 50%, 82%)"/><circle cx="49.18069032394827" cy="118.17176212394374" r="3" fill="hsl(180, 50%, 82%)"/><circle cx="26.173817077783433" cy="117.60645385206604" r="3" fill="hsl(180, 50%, 82%)"/><circle cx="31.351170644964952" cy="120.10389279113235" r="3" fill="hsl(180, 50%, 82%)"/><circle cx="14.574012401167312" cy="90.8990587382907" r="3" fill="hsl(180, 50%, 82%)"/><circle cx="27.025520161308727" cy="101.5902782387057" r="3" fill="hsl(180, 50%, 82%)"/><circle cx="28.52632537689614" cy="139" r="3" fill="hsl(180, 50%, 82%)"/><circle cx="14.19387060527922" cy="99.67804186476613" r="3" fill="hsl(180, 50%, 82%)"/><circle cx="32.282666918735565" cy="102.96035374877002" r="3" fill="hsl(180, 50%, 82%)"/><circle cx="42.49222751522592" cy="123.34872738675364" r="3" fill="hsl(180, 50%, 82%)"/><circle cx="24.508586561951258" cy="96.17338365320659" r="3" fill="hsl(180, 50%, 82%)"/><circle cx="25.55639100184437" cy="122.8526176278782" r="3" fill="hsl(180, 50%, 82%)"/><circle cx="27.71147165909769" cy="123.97623100375236" r="3" fill="hsl(180, 50%, 82%)"/><circle cx="33.429468442231155" cy="110.5591270763652" r="3" fill="hsl(180, 50%, 82%)"/><circle cx="35.67904304983648" cy="92.16071239421727" r="3" fill="hsl(180, 50%, 82%)"/><circle cx="30.045009557756917" cy="119.74020229302899" r="3" fill="hsl(180, 50%, 82%)"/><circle cx="27.38608921238471" cy="86.46729513919854" r="3" fill="hsl(180, 50%, 82%)"/><circle cx="34.836036152591134" cy="117.27072918525167" r="3" fill="hsl(180, 50%, 82%)"/><circle cx="49.94790666893387" cy="112.92099339955101" r="3" fill="hsl(180, 50%, 82%)"/><circle cx="31.175651255409868" cy="101.70359287482488" r="3" fill="hsl(180, 50%, 82%)"/><circle cx="44.48196401041945" cy="103.19599466232211" r="3" fill="hsl(180, 50%, 82%)"/><circle cx="17.063491107972126" cy="98.83407573423453" r="3" fill="hsl(180, 50%, 82%)"/><circle cx="19.143346303264245" cy="109.02175137327434" r="3" fill="hsl(180, 50%, 82%)"/><circle cx="46.14707240135951" cy="89.63660200767463" r="3" fill="hsl(180, 50%, 82%)"/><circle cx="30.77697407284662" cy="104.36745931994434" r="3" fill="hsl(180, 50%, 82%)"/><circle cx="14.909872639089823" cy="95.47752512091834" r="3" fill="hsl(180, 50%, 82%)"/><circle cx="28.823547749622897" cy="106.20692929236542" r="3" fill="hsl(180, 50%, 82%)"/><circle cx="16.9008850105482" cy="100.82739516212669" r="3" fill="hsl(180, 50%, 82%)"/><circle cx="37.190230022807654" cy="120.27012912237127" r="3" fill="hsl(180, 50%, 82%)"/><circle cx="16.840491073729307" cy="104.53287396098885" r="3" fill="hsl(180, 50%, 82%)"/><circle cx="12.838700578145652" cy="94.16221053826862" r="3" fill="hsl(180, 50%, 82%)"/><circle cx="39.478344682904776" cy="113.02686612232269" r="3" fill="hsl(180, 50%, 82%)"/><circle cx="39.95319159776741" cy="119.46562618694901" r="3" fill="hsl(180, 50%, 82%)"/><circle cx="26.225863712829685" cy="106.41384374166856" r="3" fill="hsl(180, 50%, 82%)"/><circle cx="27.703818566876986" cy="121.42915565109614" r="3" fill="hsl(180, 50%, 82%)"/><circle cx="36.746611039488386" cy="90.7767591056317" r="3" fill="hsl(180, 50%, 82%)"/><circle cx="33.36053814941621" cy="117.53119409114542" r="3" fill="hsl(180, 50%, 82%)"/><circle cx="43.39158762368864" cy="119.99561276169055" r="3" fill="hsl(180, 50%, 82%)"/><circle cx="40.38646628337915" cy="88.11115088332221" r="3" fill="hsl(180, 50%, 82%)"/><circle cx="44.57562790294356" cy="100.22046209796339" r="3" fill="hsl(180, 50%, 82%)"/><circle cx="22.57751833732672" cy="105.06447416243962" r="3" fill="hsl(180, 50%, 82%)"/><circle cx="28.156176247825137" cy="98.07035655035213" r="3" fill="hsl(180, 50%, 82%)"/><circle cx="34.94318263371728" cy="94.5040721366106" r="3" fill="hsl(180, 50%, 82%)"/><circle cx="24.240062711289312" cy="119.28776165757446" r="3" fill="hsl(180, 50%, 82%)"/><circle cx="33.44785990955718" cy="122.39612555723929" r="3" fill="hsl(180, 50%, 82%)"/><circle cx="34.60498936678751" cy="113.50197228800657" r="3" fill="hsl(180, 50%, 82%)"/><circle cx="26.02187097049937" cy="111.29543024488876" r="3" fill="hsl(180, 50%, 82%)"/><circle cx="40.76999774399048" cy="112.99147032938185" r="3" fill="hsl(180, 50%, 82%)"/><circle cx="35.70773647586324" cy="111.07698608057328" r="3" fill="hsl(180, 50%, 82%)"/><circle cx="39.16931547514926" cy="123.42308478157217" r="3" fill="hsl(180, 50%, 82%)"/><circle cx="22.961549378595112" cy="104.73540461385822" r="3" fill="hsl(180, 50%, 82%)"/><circle cx="31.522906454503037" cy="89.08819730750609" r="3" fill="hsl(180, 50%, 82%)"/><circle cx="41.1363443712411" cy="119.00986062716582" r="3" fill="hsl(180, 50%, 82%)"/><circle cx="55.976983755836756" cy="90.77715560293933" r="3" fill="hsl(180, 50%, 82%)"/><circle cx="35.21913398583996" cy="109.17744845129283" r="3" fill="hsl(180, 50%, 82%)"/><circle cx="36.94115421546517" cy="109.9784524931485" r="3" fill="hsl(180, 50%, 82%)"/><circle cx="41.6337937018883" cy="120.32214205700943" r="3" fill="hsl(180, 50%, 82%)"/><circle cx="26.2743946046292" cy="124.15408817089285" r="3" fill="hsl(180, 50%, 82%)"/><circle cx="38.766916672985936" cy="106.13394028953412" r="3" fill="hsl(180, 50%, 82%)"/><circle cx="10" cy="77.6749099098584" r="3" fill="hsl(180, 50%, 82%)"/><circle cx="35.33633008348" cy="133.98176145758015" r="3" fill="hsl(180, 50%, 82%)"/><circle cx="30.89035862838181" cy="106.3894480995122" r="3" fill="hsl(180, 50%, 82%)"/><circle cx="46.00992957643405" cy="95.05664515609433" r="3" fill="hsl(180, 50%, 82%)"/><circle cx="33.285180406320315" cy="127.02756711679758" r="3" fill="hsl(180, 50%, 82%)"/><circle cx="20.18224674210143" cy="118.65248451148848" r="3" fill="hsl(180, 50%, 82%)"/><circle cx="23.588487590474436" cy="116.65235104757146" r="3" fill="hsl(180, 50%, 82%)"/><circle cx="31.755131318371568" cy="104.79628688641857" r="3" fill="hsl(180, 50%, 82%)"/><circle cx="16.67506464729926" cy="90.60849106591175" r="3" fill="hsl(180, 50%, 82%)"/><circle cx="33.856129907224414" cy="104.36378973215035" r="3" fill="hsl(180, 50%, 82%)"/><circle cx="38.2344055392903" cy="109.41937724898312" r="3" fill="hsl(180, 50%, 82%)"/><circle cx="44.900574080851925" cy="100.29561288238645" r="3" fill="hsl(180, 50%, 82%)"/><circle cx="44.176779804741955" cy="132.559481164489" r="3" fill="hsl(180, 50%, 82%)"/><circle cx="36.65976154291993" cy="107.11143388867411" r="3" fill="hsl(180, 50%, 82%)"/><circle cx="23.75086216498495" cy="88.08722434718271" r="3" fill="hsl(180, 50%, 82%)"/><circle cx="43.8170685346916" cy="107.35555545761224" r="3" fill="hsl(180, 50%, 82%)"/><circle cx="21.936629230316917" cy="91.9816647646836" r="3" fill="hsl(180, 50%, 82%)"/><circle cx="35.23442253165919" cy="137.6734386951582" r="3" fill="hsl(180, 50%, 82%)"/><circle cx="28.808471275089573" cy="131.42972792344167" r="3" fill="hsl(180, 50%, 82%)"/><circle cx="45.44002094193887" cy="125.09584223701225" r="3" fill="hsl(180, 50%, 82%)"/><circle cx="30.608501314565054" cy="104.84948126147611" r="3" fill="hsl(180, 50%, 82%)"/><circle cx="45.668062502054134" cy="101.20812305744818" r="3" fill="hsl(180, 50%, 82%)"/><circle cx="29.89382640748049" cy="108.9701421085307" r="3" fill="hsl(180, 50%, 82%)"/><circle cx="35.44996883601315" cy="89.65457300261453" r="3" fill="hsl(180, 50%, 82%)"/><circle cx="26.506771149216025" cy="101.82538551388546" r="3" fill="hsl(180, 50%, 82%)"/><circle cx="36.06838135578046" cy="124.50250541425548" r="3" fill="hsl(180, 50%, 82%)"/><circle cx="33.72345369607645" cy="115.26320639780229" r="3" fill="hsl(180, 50%, 82%)"/><circle cx="19.730450194407716" cy="113.8917922036535" r="3" fill="hsl(180, 50%, 82%)"/><circle cx="32.953330576284316" cy="111.47056702403384" r="3" fill="hsl(180, 50%, 82%)"/><circle cx="21.412308089253905" cy="105.44334264962282" r="3" fill="hsl(180, 50%, 82%)"/><circle cx="30.893384236515963" cy="128.8612015907561" r="3" fill="hsl(180, 50%, 82%)"/><circle cx="28.385769398377008" cy="113.01951291022803" r="3" fill="hsl(180, 50%, 82%)"/><circle cx="33.70316392514701" cy="100.77907627846001" r="3" fill="hsl(180, 50%, 82%)"/><circle cx="34.47597535814923" cy="77.75911058416034" r="3" fill="hsl(180, 50%, 82%)"/><circle cx="10.295186637347177" cy="125.05961336327536" r="3" fill="hsl(180, 50%, 82%)"/><circle cx="26.78425709218417" cy="117.00988385366732" r="3" fill="hsl(180, 50%, 82%)"/><circle cx="31.990637570872394" cy="116.52147288719785" r="3" fill="hsl(180, 50%, 82%)"/><circle cx="30.54963155895491" cy="123.0644035101227" r="3" fill="hsl(180, 50%, 82%)"/><circle cx="35.279170019196556" cy="116.9205674102373" r="3" fill="hsl(180, 50%, 82%)"/><circle cx="33.31008336632253" cy="97.38854637048468" r="3" fill="hsl(180, 50%, 82%)"/><circle cx="33.76402882955956" cy="95.76863383444896" r="3" fill="hsl(180, 50%, 82%)"/><circle cx="46.052298245701586" cy="101.46068261115828" r="3" fill="hsl(180, 50%, 82%)"/><circle cx="41.55684084769612" cy="99.75466150840151" r="3" fill="hsl(180, 50%, 82%)"/><circle cx="39.81041747932222" cy="98.53188856263962" r="3" fill="hsl(180, 50%, 82%)"/><circle cx="35.37755943204407" cy="103.64870693269306" r="3" fill="hsl(180, 50%, 82%)"/><circle cx="16.436500815488433" cy="106.82408932624989" r="3" fill="hsl(180, 50%, 82%)"/><circle cx="45.59669242279956" cy="122.38255237038953" r="3" fill="hsl(180, 50%, 82%)"/><circle cx="32.45172768199667" cy="92.91654585897618" r="3" fill="hsl(180, 50%, 82%)"/><circle cx="35.404058715509905" cy="91.16664908609994" r="3" fill="hsl(180, 50%, 82%)"/><circle cx="30.093559200724023" cy="114.56162934665988" r="3" fill="hsl(180, 50%, 82%)"/><circle cx="26.90620639409911" cy="115.95580878229029" r="3" fill="hsl(180, 50%, 82%)"/><circle cx="20.78411207741277" cy="123.06319905961557" r="3" fill="hsl(180, 50%, 82%)"/><circle cx="43.125460814346326" cy="106.81651232395087" r="3" fill="hsl(180, 50%, 82%)"/><circle cx="27.000293751770883" cy="105.10856584461352" r="3" fill="hsl(180, 50%, 82%)"/><circle cx="39.03916810952856" cy="129.06536109050137" r="3" fill="hsl(180, 50%, 82%)"/><circle cx="28.382694728185715" cy="94.9677214117968" r="3" fill="hsl(180, 50%, 82%)"/><circle cx="20.20556229947943" cy="124.06217065238987" r="3" fill="hsl(180, 50%, 82%)"/><circle cx="25.401162125484436" cy="117.05971614401345" r="3" fill="hsl(180, 50%, 82%)"/><circle cx="38.376038030889255" cy="112.95894655716104" r="3" fill="hsl(180, 50%, 82%)"/><circle cx="24.66384594116603" cy="120.72894158241883" r="3" fill="hsl(180, 50%, 82%)"/><circle cx="36.98511990353718" cy="94.09091115442298" r="3" fill="hsl(180, 50%, 82%)"/><circle cx="39.72968381111928" cy="97.78444710563826" r="3" fill="hsl(180, 50%, 82%)"/><circle cx="35.25758191633159" cy="96.30433656595648" r="3" fill="hsl(180, 50%, 82%)"/><circle cx="17.466694545789345" cy="103.46387268135122" r="3" fill="hsl(180, 50%, 82%)"/><circle cx="40.84278813673864" cy="105.40790902534066" r="3" fill="hsl(180, 50%, 82%)"/><circle cx="40.818157119857126" cy="96.54098274293536" r="3" fill="hsl(180, 50%, 82%)"/><circle cx="41.67010343532412" cy="103.28217303620586" r="3" fill="hsl(180, 50%, 82%)"/><circle cx="31.810625896237532" cy="100.2661231955127" r="3" fill="hsl(180, 50%, 82%)"/><circle cx="39.02119125647151" cy="101.30659080229428" r="3" fill="hsl(180, 50%, 82%)"/><circle cx="30.659821573505553" cy="99.60316004450416" r="3" fill="hsl(180, 50%, 82%)"/><circle cx="20.64830036953144" cy="116.77082595581687" r="3" fill="hsl(180, 50%, 82%)"/><circle cx="29.899035828737674" cy="97.62221047775853" r="3" fill="hsl(180, 50%, 82%)"/><circle cx="36.7413865357332" cy="120.67577515873884" r="3" fill="hsl(180, 50%, 82%)"/><circle cx="26.077061977046718" cy="83.49944473845846" r="3" fill="hsl(180, 50%, 82%)"/><circle cx="67.55425072858745" cy="34.25064449317534" r="3" fill="hsl(51, 90%, 71%)"/><circle cx="65.95878126215172" cy="42.109972748907786" r="3" fill="hsl(51, 90%, 71%)"/><circle cx="75.92323148129674" cy="70.18136033502282" r="3" fill="hsl(51, 90%, 71%)"/><circle cx="73.79663101163544" cy="66.23974426363891" r="3" fill="hsl(51, 90%, 71%)"/><circle cx="51.767497784292566" cy="34.69440948325161" r="3" fill="hsl(51, 90%, 71%)"/><circle cx="71.24795737114427" cy="25.424510232234596" r="3" fill="hsl(51, 90%, 71%)"/><circle cx="68.43412810944571" cy="42.13649738069772" r="3" fill="hsl(51, 90%, 71%)"/><circle cx="81.37706688937283" cy="32.552390538205415" r="3" fill="hsl(51, 90%, 71%)"/><circle cx="71.42588774808256" cy="44.11298939656985" r="3" fill="hsl(51, 90%, 71%)"/><circle cx="71.28860795721666" cy="42.38053846468332" r="3" fill="hsl(51, 90%, 71%)"/><circle cx="72.71340708108588" cy="27.639952657862928" r="3" fill="hsl(51, 90%, 71%)"/><circle cx="76.96562595168204" cy="55.994421634726194" r="3" fill="hsl(51, 90%, 71%)"/><circle cx="61.551091392386596" cy="34.64013706210579" r="3" fill="hsl(51, 90%, 71%)"/><circle cx="80.0630516523456" cy="17.321113865832473" r="3" fill="hsl(51, 90%, 71%)"/><circle cx="74.36575407817371" cy="39.13697982701691" r="3" fill="hsl(51, 90%, 71%)"/><circle cx="73.4388880587618" cy="54.795995358988804" r="3" fill="hsl(51, 90%, 71%)"/><circle cx="68.9357584095485" cy="59.065270493141774" r="3" fill="hsl(51, 90%, 71%)"/><circle cx="64.28349363718787" cy="46.62306183120427" r="3" fill="hsl(51, 90%, 71%)"/><circle cx="58.092558325664356" cy="32.8963271748299" r="3" fill="hsl(51, 90%, 71%)"/><circle cx="66.40009868682353" cy="18.964048491018367" r="3" fill="hsl(51, 90%, 71%)"/><circle cx="70.8314013478718" cy="24.707526975835325" r="3" fill="hsl(51, 90%, 71%)"/><circle cx="72.2097474017869" cy="32.59663724321065" r="3" fill="hsl(51, 90%, 71%)"/><circle cx="74.99097817925923" cy="18.554800020267017" r="3" fill="hsl(51, 90%, 71%)"/><circle cx="51.00921794818831" cy="47.78203730560209" r="3" fill="hsl(51, 90%, 71%)"/><circle cx="72.67141677963161" cy="43.9408212535704" r="3" fill="hsl(51, 90%, 71%)"/><circle cx="74.70295504078882" cy="42.164552781692855" r="3" fill="hsl(51, 90%, 71%)"/><circle cx="78.48200728474188" cy="55.636498666846244" r="3" fill="hsl(51, 90%, 71%)"/><circle cx="76.42863472227468" cy="21.130757558428257" r="3" fill="hsl(51, 90%, 71%)"/><circle cx="71.37596282240835" cy="40.69728166171184" r="3" fill="hsl(51, 90%, 71%)"/><circle cx="56.51298068107791" cy="36.931726459985796" r="3" fill="hsl(51, 90%, 71%)"/><circle cx="83.21354329292524" cy="42.637321619205736" r="3" fill="hsl(51, 90%, 71%)"/><circle cx="72.96327711444556" cy="52.86846396927627" r="3" fill="hsl(51, 90%, 71%)"/><circle cx="77.27768127691954" cy="45.46759283364415" r="3" fill="hsl(51, 90%, 71%)"/><circle cx="79.51665722344949" cy="39.169520808737765" r="3" fill="hsl(51, 90%, 71%)"/><circle cx="87.62431593978832" cy="25.32062055317131" r="3" fill="hsl(51, 90%, 71%)"/><circle cx="74.08494021333863" cy="50.81463397205227" r="3" fill="hsl(51, 90%, 71%)"/><circle cx="68.53355366635648" cy="33.32793814709345" r="3" fill="hsl(51, 90%, 71%)"/><circle cx="66.7479662431838" cy="53.092841200947355" r="3" fill="hsl(51, 90%, 71%)"/><circle cx="61.137891119972984" cy="33.34393147253347" r="3" fill="hsl(51, 90%, 71%)"/><circle cx="66.01549778342657" cy="36.816361819011036" r="3" fill="hsl(51, 90%, 71%)"/><circle cx="72.8022797610648" cy="74.02745231397991" r="3" fill="hsl(51, 90%, 71%)"/><circle cx="57.27828978796984" cy="14.5031454703029" r="3" fill="hsl(51, 90%, 71%)"/><circle cx="60.905197749932135" cy="29.7539076900257" r="3" fill="hsl(51, 90%, 71%)"/><circle cx="72.66604957572008" cy="29.747111115927826" r="3" fill="hsl(51, 90%, 71%)"/><circle cx="59.93274305799471" cy="35.99008278290841" r="3" fill="hsl(51, 90%, 71%)"/><circle cx="60.401629520328285" cy="23.521820262785027" r="3" fill="hsl(51, 90%, 71%)"/><circle cx="77.54336234461105" cy="34.82261731594406" r="3" fill="hsl(51, 90%, 71%)"/><circle cx="63.318134577152236" cy="63.54719675711176" r="3" fill="hsl(51, 90%, 71%)"/><circle cx="73.91258225374511" cy="18.12521454652051" r="3" fill="hsl(51, 90%, 71%)"/><circle cx="73.48836041308748" cy="29.31921626825885" r="3" fill="hsl(51, 90%, 71%)"/><circle cx="66.745150577654" cy="42.78849900747336" r="3" fill="hsl(51, 90%, 71%)"/><circle cx="78.02801651258206" cy="48.10661643680084" r="3" fill="hsl(51, 90%, 71%)"/><circle cx="72.7985802242962" cy="15.721292111904612" r="3" fill="hsl(51, 90%, 71%)"/><circle cx="69.11262959805933" cy="41.78902730333121" r="3" fill="hsl(51, 90%, 71%)"/><circle cx="75.20483940905955" cy="26.34348787553666" r="3" fill="hsl(51, 90%, 71%)"/><circle cx="66.4492043030186" cy="39.198821473619695" r="3" fill="hsl(51, 90%, 71%)"/><circle cx="77.69455026586434" cy="53.04686426107149" r="3" fill="hsl(51, 90%, 71%)"/><circle cx="58.68201447390971" cy="50.233663237117256" r="3" fill="hsl(51, 90%, 71%)"/><circle cx="65.40466901119898" cy="26.408792765961138" r="3" fill="hsl(51, 90%, 71%)"/><circle cx="69.20553357601204" cy="31.838083637651593" r="3" fill="hsl(51, 90%, 71%)"/><circle cx="65.9223288660994" cy="24.197885144309424" r="3" fill="hsl(51, 90%, 71%)"/><circle cx="74.9297070012554" cy="44.19716135436596" r="3" fill="hsl(51, 90%, 71%)"/><circle cx="64.33828456337017" cy="29.822765509074202" r="3" fill="hsl(51, 90%, 71%)"/><circle cx="86.96603597546451" cy="39.755623908890435" r="3" fill="hsl(51, 90%, 71%)"/><circle cx="62.092783068893546" cy="47.36862430455532" r="3" fill="hsl(51, 90%, 71%)"/><circle cx="63.59687197243059" cy="53.07517040963574" r="3" fill="hsl(51, 90%, 71%)"/><circle cx="68.41566154530601" cy="19.39410243644461" r="3" fill="hsl(51, 90%, 71%)"/><circle cx="70.13026537844807" cy="44.202242615555946" r="3" fill="hsl(51, 90%, 71%)"/><circle cx="70.46080802140393" cy="42.98494638457822" r="3" fill="hsl(51, 90%, 71%)"/><circle cx="81.15108574881137" cy="38.31679291993201" r="3" fill="hsl(51, 90%, 71%)"/><circle cx="75.97517724243286" cy="31.409537409489566" r="3" fill="hsl(51, 90%, 71%)"/><circle cx="72.78458676065378" cy="27.673653528236812" r="3" fill="hsl(51, 90%, 71%)"/><circle cx="65.08109078633713" cy="51.65390236814277" r="3" fill="hsl(51, 90%, 71%)"/><circle cx="65.08854658006595" cy="42.38426136033593" r="3" fill="hsl(51, 90%, 71%)"/><circle cx="82.94645278379988" cy="22.62064138993895" r="3" fill="hsl(51, 90%, 71%)"/><circle cx="68.73575341637739" cy="21.98634462818642" r="3" fill="hsl(51, 90%, 71%)"/><circle cx="68.45111937611938" cy="31.801782560658054" r="3" fill="hsl(51, 90%, 71%)"/><circle cx="82.18943442571202" cy="29.340017782577625" r="3" fill="hsl(51, 90%, 71%)"/><circle cx="69.15892201185231" cy="23.46749866939689" r="3" fill="hsl(51, 90%, 71%)"/><circle cx="88.34348056217758" cy="46.6999164738459" r="3" fill="hsl(51, 90%, 71%)"/><circle cx="66.73363179803094" cy="39.78501683385252" r="3" fill="hsl(51, 90%, 71%)"/><circle cx="82.90684938022036" cy="27.520498860226972" r="3" fill="hsl(51, 90%, 71%)"/><circle cx="72.4971149711813" cy="59.35159015646322" r="3" fill="hsl(51, 90%, 71%)"/><circle cx="74.4497042891407" cy="45.14837024893296" r="3" fill="hsl(51, 90%, 71%)"/><circle cx="69.84221348187386" cy="19.24639941447845" r="3" fill="hsl(51, 90%, 71%)"/><circle cx="64.78588335189919" cy="29.975948201704654" r="3" fill="hsl(51, 90%, 71%)"/><circle cx="62.0332190303581" cy="16.38763957688912" r="3" fill="hsl(51, 90%, 71%)"/><circle cx="90.12707647535618" cy="35.13654075971317" r="3" fill="hsl(51, 90%, 71%)"/><circle cx="72.72217612287832" cy="30.74503249758728" r="3" fill="hsl(51, 90%, 71%)"/><circle cx="72.15958442638009" cy="10" r="3" fill="hsl(51, 90%, 71%)"/><circle cx="68.29690214820107" cy="34.695501478216485" r="3" fill="hsl(51, 90%, 71%)"/><circle cx="64.22020635459957" cy="35.66745159761183" r="3" fill="hsl(51, 90%, 71%)"/><circle cx="82.73305104974867" cy="38.576004307709226" r="3" fill="hsl(51, 90%, 71%)"/><circle cx="67.48253475948378" cy="16.32701214827688" r="3" fill="hsl(51, 90%, 71%)"/><circle cx="58.56493033382791" cy="51.35808597350375" r="3" fill="hsl(51, 90%, 71%)"/><circle cx="84.69632681748759" cy="43.54053575151267" r="3" fill="hsl(51, 90%, 71%)"/><circle cx="76.95833647836957" cy="37.66201669876712" r="3" fill="hsl(51, 90%, 71%)"/><circle cx="76.33165602551044" cy="38.04083280278517" r="3" fill="hsl(51, 90%, 71%)"/><circle cx="71.5847617599599" cy="39.662280022605316" r="3" fill="hsl(51, 90%, 71%)"/><circle cx="74.17845989302003" cy="39.44157670922333" r="3" fill="hsl(51, 90%, 71%)"/><circle cx="131.45510196846644" cy="41.36898540636995" r="3" fill="hsl(262, 48%, 85%)"/><circle cx="113.96793109089678" cy="36.77073111732597" r="3" fill="hsl(262, 48%, 85%)"/><circle cx="135.99060891696223" cy="52.410658989565604" r="3" fill="hsl(262, 48%, 85%)"/><circle cx="131.45179199151295" cy="36.4449135652336" r="3" fill="hsl(262, 48%, 85%)"/><circle cx="138.25023336120162" cy="20.877380563928288" r="3" fill="hsl(262, 48%, 85%)"/><circle cx="124.06754149376867" cy="38.660728141396206" r="3" fill="hsl(262, 48%, 85%)"/><circle cx="139" cy="26.29612040334695" r="3" fill="hsl(262, 48%, 85%)"/><circle cx="130.30376765607224" cy="40.49380904048681" r="3" fill="hsl(262, 48%, 85%)"/><circle cx="112.56913070574412" cy="22.488395749192424" r="3" fill="hsl(262, 48%, 85%)"/><circle cx="117.20631516341281" cy="33.17003732968091" r="3" fill="hsl(262, 48%, 85%)"/></g></svg>