<svg class="plot-86b0c783261ea" fill="currentColor" font-family="system-ui, sans-serif" font-size="10" text-anchor="middle" width="150" height="150" viewBox="0 0 150 150" xmlns="http://www.w3.org/2000/svg" xmlns:xlink="http://www.w3.org/1999/xlink"><style>
        .plot-86b0c783261ea {
          display: block;
          background: white;
          height: auto;
          height: intrinsic;
          max-width: 100%;
        }
        .plot-86b0c783261ea text,
        .plot-86b0c783261ea tspan {
          white-space: pre;
        }
      </style><g aria-label="dot" fill-opacity="0.3" transform="translate(0.5,0.5)"><circle cx="131.24419834529297" cy="68.69794967319623" r="3" fill="hsl(262, 48%, 85%)"/><circle cx="122.28045438667067" cy="67.12672463953632" r="3" fill="hsl(262, 48%, 85%)"/><circle cx="66.19464910627838" cy="65.27754662805465" r="3" fill="hsl(51, 90%, 71%)"/><circle cx="133.5690525646444" cy="72.47089324196638" r="3" fill="hsl(262, 48%, 85%)"/><circle cx="23.911997982162713" cy="129.0631709502169" r="3" fill="hsl(180, 50%, 82%)"/><circle cx="62.10554290039534" cy="78.7052221397909" r="3" fill="hsl(51, 90%, 71%)"/><circle cx="131.24250168470826" cy="67.01539267309462" r="3" fill="hsl(262, 48%, 85%)"/><circle cx="87.643916451718" cy="126.66523493155067" r="3" fill="hsl(51, 90%, 71%)"/><circle cx="44.92086836823946" cy="117.21421274892188" r="3" fill="hsl(180, 50%, 82%)"/><circle cx="36.43611335253972" cy="103.24932985514042" r="3" fill="hsl(180, 50%, 82%)"/><circle cx="82.19354879509194" cy="119.93097726124559" r="3" fill="hsl(51, 90%, 71%)"/><circle cx="27.371530698738617" cy="107.80999179281619" r="3" fill="hsl(180, 50%, 82%)"/><circle cx="134.72731281691597" cy="61.695961422357286" r="3" fill="hsl(262, 48%, 85%)"/><circle cx="33.08437075096916" cy="109.23904027735243" r="3" fill="hsl(180, 50%, 82%)"/><circle cx="25.734013045427112" cy="66.0357198573049" r="3" fill="hsl(51, 90%, 71%)"/><circle cx="127.45741081733527" cy="67.77253725691102" r="3" fill="hsl(262, 48%, 85%)"/><circle cx="75.66142930497402" cy="50.19808143286348" r="3" fill="hsl(51, 90%, 71%)"/><circle cx="135.1116354855529" cy="63.54754664392079" r="3" fill="hsl(262, 48%, 85%)"/><circle cx="130.65403621635423" cy="68.39890161528011" r="3" fill="hsl(262, 48%, 85%)"/><circle cx="68.4497295907948" cy="78.75053951771004" r="3" fill="hsl(51, 90%, 71%)"/><circle cx="121.56344369371463" cy="62.24644585134358" r="3" fill="hsl(262, 48%, 85%)"/><circle cx="101.62181617327423" cy="62.37607689512645" r="3" fill="hsl(51, 90%, 71%)"/><circle cx="34.05989712524601" cy="133.52785072694684" r="3" fill="hsl(180, 50%, 82%)"/><circle cx="76.11745571123652" cy="82.12737944320799" r="3" fill="hsl(51, 90%, 71%)"/><circle cx="75.76561466600103" cy="79.16748412051972" r="3" fill="hsl(51, 90%, 71%)"/><circle cx="79.41730156041467" cy="53.983168533920896" r="3" fill="hsl(51, 90%, 71%)"/><circle cx="123.9404167595169" cy="65.89636636441519" r="3" fill="hsl(262, 48%, 85%)"/><circle cx="90.31551988201763" cy="102.42682635810056" r="3" fill="hsl(51, 90%, 71%)"/><circle cx="50.808860401607774" cy="65.94299533426597" r="3" fill="hsl(51, 90%, 71%)"/><circle cx="118.98947071230775" cy="65.70189088833328" r="3" fill="hsl(262, 48%, 85%)"/><circle cx="27.415159236226906" cy="107.23654186987862" r="3" fill="hsl(180, 50%, 82%)"/><circle cx="126.3995085672516" cy="61.99800134032357" r="3" fill="hsl(262, 48%, 85%)"/><circle cx="127.2410860850424" cy="64.22073682516158" r="3" fill="hsl(262, 48%, 85%)"/><circle cx="98.2540626857808" cy="36.35341514407626" r="3" fill="hsl(51, 90%, 71%)"/><circle cx="83.65218195147607" cy="73.62585874342481" r="3" fill="hsl(51, 90%, 71%)"/><circle cx="26.124483342675877" cy="112.67448167017848" r="3" fill="hsl(180, 50%, 82%)"/><circle cx="81.2766720020059" cy="100.3793130555958" r="3" fill="hsl(51, 90%, 71%)"/><circle cx="69.73538225676046" cy="107.67337678487199" r="3" fill="hsl(51, 90%, 71%)"/><circle cx="57.81186685966587" cy="86.41584241035639" r="3" fill="hsl(51, 90%, 71%)"/><circle cx="45.55816019635593" cy="114.30257148017913" r="3" fill="hsl(180, 50%, 82%)"/><circle cx="41.94481798544725" cy="62.963693216341824" r="3" fill="hsl(51, 90%, 71%)"/><circle cx="63.23661676696875" cy="39.160371708353644" r="3" fill="hsl(51, 90%, 71%)"/><circle cx="125.43437656226654" cy="60.329139936249916" r="3" fill="hsl(262, 48%, 85%)"/><circle cx="24.372805012888367" cy="115.1091054122057" r="3" fill="hsl(180, 50%, 82%)"/><circle cx="41.03232626426249" cy="120.39675017186" r="3" fill="hsl(180, 50%, 82%)"/><circle cx="136.19236580008206" cy="72.17641374530578" r="3" fill="hsl(262, 48%, 85%)"/><circle cx="26.272274312813536" cy="125.31997844557962" r="3" fill="hsl(180, 50%, 82%)"/><circle cx="125.6729716389454" cy="63.59159482772786" r="3" fill="hsl(262, 48%, 85%)"/><circle cx="129.91112258105838" cy="70.60325741293259" r="3" fill="hsl(262, 48%, 85%)"/><circle cx="127.68443893771693" cy="65.84323462071754" r="3" fill="hsl(262, 48%, 85%)"/><circle cx="124.91909785166818" cy="68.74783082681778" r="3" fill="hsl(262, 48%, 85%)"/><circle cx="74.59381763654973" cy="48.973114337164034" r="3" fill="hsl(51, 90%, 71%)"/><circle cx="47.00635332524117" cy="132.47112060699894" r="3" fill="hsl(180, 50%, 82%)"/><circle cx="78.12644770035462" cy="62.45167246486995" r="3" fill="hsl(51, 90%, 71%)"/><circle cx="123.43274240445987" cy="58.495254358150305" r="3" fill="hsl(262, 48%, 85%)"/><circle cx="37.19202038240777" cy="115.99571171220575" r="3" fill="hsl(180, 50%, 82%)"/><circle cx="131.99947383979014" cy="69.41225461485644" r="3" fill="hsl(262, 48%, 85%)"/><circle cx="126.18900474599727" cy="65.8471378399282" r="3" fill="hsl(262, 48%, 85%)"/><circle cx="24.62745604679927" cy="130.66715681053333" r="3" fill="hsl(180, 50%, 82%)"/><circle cx="125.50373830352672" cy="68.04037889910265" r="3" fill="hsl(262, 48%, 85%)"/><circle cx="10.341975141198631" cy="106.84068913295917" r="3" fill="hsl(180, 50%, 82%)"/><circle cx="132.63417038530292" cy="68.91915444588852" r="3" fill="hsl(262, 48%, 85%)"/><circle cx="133.31201894744865" cy="66.92164396750319" r="3" fill="hsl(262, 48%, 85%)"/><circle cx="85.25459917388565" cy="38.46117000983881" r="3" fill="hsl(51, 90%, 71%)"/><circle cx="23.79058081528538" cy="88.39595395302436" r="3" fill="hsl(51, 90%, 71%)"/><circle cx="38.08601819612542" cy="130.27437933135678" r="3" fill="hsl(180, 50%, 82%)"/><circle cx="126.3652348813072" cy="70.5813333416811" r="3" fill="hsl(262, 48%, 85%)"/><circle cx="128.00812041296294" cy="61.75065011813891" r="3" fill="hsl(262, 48%, 85%)"/><circle cx="79.3096825764384" cy="81.83322988156343" r="3" fill="hsl(51, 90%, 71%)"/><circle cx="84.51641068064744" cy="78.79847221738468" r="3" fill="hsl(51, 90%, 71%)"/><circle cx="94.20192726692112" cy="101.81531436780807" r="3" fill="hsl(51, 90%, 71%)"/><circle cx="25.61892907972738" cy="104.5459816394823" r="3" fill="hsl(180, 50%, 82%)"/><circle cx="127.12919717573271" cy="63.38349632458906" r="3" fill="hsl(262, 48%, 85%)"/><circle cx="37.49440204121201" cy="112.4961783683807" r="3" fill="hsl(180, 50%, 82%)"/><circle cx="122.97027269112638" cy="77.01000302827795" r="3" fill="hsl(262, 48%, 85%)"/><circle cx="88.93923897158415" cy="42.86219778467762" r="3" fill="hsl(51, 90%, 71%)"/><circle cx="121.13626942144687" cy="64.74915363328591" r="3" fill="hsl(262, 48%, 85%)"/><circle cx="130.50915723239353" cy="57.219791426252776" r="3" fill="hsl(262, 48%, 85%)"/><circle cx="75.98950069512226" cy="76.29163704694474" r="3" fill="hsl(51, 90%, 71%)"/><circle cx="126.44336083529004" cy="67.99835615819116" r="3" fill="hsl(262, 48%, 85%)"/><circle cx="31.92797203035873" cy="120.86860389102519" r="3" fill="hsl(180, 50%, 82%)"/><circle cx="37.89644170270116" cy="69.85817966741789" r="3" fill="hsl(51, 90%, 71%)"/><circle cx="127.90155187125723" cy="60.879580264675006" r="3" fill="hsl(262, 48%, 85%)"/><circle cx="106.32861076715167" cy="79.6061985699871" r="3" fill="hsl(51, 90%, 71%)"/><circle cx="129.93853479649442" cy="65.01580905359629" r="3" fill="hsl(262, 48%, 85%)"/><circle cx="128.1723955921162" cy="69.53599304281356" r="3" fill="hsl(262, 48%, 85%)"/><circle cx="125.98583901057009" cy="68.67919168330032" r="3" fill="hsl(262, 48%, 85%)"/><circle cx="134.77525175557517" cy="67.69207624642918" r="3" fill="hsl(262, 48%, 85%)"/><circle cx="125.07809628258853" cy="66.03145180804769" r="3" fill="hsl(262, 48%, 85%)"/><circle cx="80.05770560660132" cy="97.08612244249005" r="3" fill="hsl(51, 90%, 71%)"/><circle cx="37.985891312753715" cy="112.4381952644113" r="3" fill="hsl(180, 50%, 82%)"/><circle cx="91.11530163510984" cy="84.44172168746152" r="3" fill="hsl(51, 90%, 71%)"/><circle cx="36.58619280899904" cy="119.2235874956665" r="3" fill="hsl(180, 50%, 82%)"/><circle cx="30.428016907309996" cy="126.23799581028965" r="3" fill="hsl(180, 50%, 82%)"/><circle cx="44.50821134512269" cy="136.01381671524203" r="3" fill="hsl(180, 50%, 82%)"/><circle cx="96.85368185943287" cy="73.68145506753044" r="3" fill="hsl(51, 90%, 71%)"/><circle cx="24.7886753133444" cy="122.12462013258461" r="3" fill="hsl(180, 50%, 82%)"/><circle cx="20.41345903444951" cy="115.98835162359195" r="3" fill="hsl(180, 50%, 82%)"/><circle cx="29.19638366959547" cy="112.85181518866683" r="3" fill="hsl(180, 50%, 82%)"/><circle cx="117.63319426469144" cy="50.020585742759906" r="3" fill="hsl(51, 90%, 71%)"/><circle cx="16.05429907752053" cy="123.21930851968528" r="3" fill="hsl(180, 50%, 82%)"/><circle cx="133.1591807761274" cy="64.44741213218597" r="3" fill="hsl(262, 48%, 85%)"/><circle cx="124.20749977949282" cy="71.73249499163983" r="3" fill="hsl(262, 48%, 85%)"/><circle cx="125.24632223619895" cy="75.44961308303454" r="3" fill="hsl(262, 48%, 85%)"/><circle cx="124.36617449730227" cy="66.14424707578392" r="3" fill="hsl(262, 48%, 85%)"/><circle cx="32.57208580302852" cy="120.66805857723276" r="3" fill="hsl(180, 50%, 82%)"/><circle cx="130.78001601754826" cy="63.27378501779534" r="3" fill="hsl(262, 48%, 85%)"/><circle cx="82.93247045587341" cy="93.57715044608605" r="3" fill="hsl(51, 90%, 71%)"/><circle cx="68.70455218169496" cy="63.70110128800021" r="3" fill="hsl(51, 90%, 71%)"/><circle cx="64.12818342744619" cy="97.46947131928543" r="3" fill="hsl(51, 90%, 71%)"/><circle cx="49.74984935008624" cy="63.728425911349916" r="3" fill="hsl(51, 90%, 71%)"/><circle cx="131.77894722470907" cy="72.28174753487917" r="3" fill="hsl(262, 48%, 85%)"/><circle cx="121.46977889902118" cy="62.86763115346305" r="3" fill="hsl(262, 48%, 85%)"/><circle cx="131.93552456012222" cy="67.28871290300526" r="3" fill="hsl(262, 48%, 85%)"/><circle cx="62.25090442900542" cy="69.66107898384692" r="3" fill="hsl(51, 90%, 71%)"/><circle cx="24.53780502056179" cy="102.73843720083315" r="3" fill="hsl(180, 50%, 82%)"/><circle cx="135.64034577166487" cy="59.21010107644295" r="3" fill="hsl(262, 48%, 85%)"/><circle cx="79.64507766773009" cy="133.23628953100427" r="3" fill="hsl(51, 90%, 71%)"/><circle cx="38.09739492840675" cy="122.90806702261642" r="3" fill="hsl(180, 50%, 82%)"/><circle cx="32.5795713620394" cy="118.7956523696039" r="3" fill="hsl(180, 50%, 82%)"/><circle cx="23.846143988793386" cy="122.3569464055609" r="3" fill="hsl(180, 50%, 82%)"/><circle cx="39.85788959287279" cy="31.53891141200989" r="3" fill="hsl(51, 90%, 71%)"/><circle cx="49.153468207908695" cy="57.59486425384923" r="3" fill="hsl(51, 90%, 71%)"/><circle cx="79.29592670791337" cy="57.58325229693973" r="3" fill="hsl(51, 90%, 71%)"/><circle cx="27.440102683603158" cy="100.79593727661907" r="3" fill="hsl(180, 50%, 82%)"/><circle cx="34.70934596508163" cy="126.65097728956121" r="3" fill="hsl(180, 50%, 82%)"/><circle cx="46.661116833555695" cy="68.24937986513558" r="3" fill="hsl(51, 90%, 71%)"/><circle cx="128.79089464441574" cy="65.76697044645834" r="3" fill="hsl(262, 48%, 85%)"/><circle cx="132.06770178353491" cy="65.47710164787516" r="3" fill="hsl(262, 48%, 85%)"/><circle cx="47.86284872827771" cy="46.94733242885257" r="3" fill="hsl(51, 90%, 71%)"/><circle cx="50.16723787142607" cy="124.76596825631977" r="3" fill="hsl(180, 50%, 82%)"/><circle cx="91.79622855105488" cy="66.25476315458145" r="3" fill="hsl(51, 90%, 71%)"/><circle cx="128.7595129385149" cy="62.35401803109372" r="3" fill="hsl(262, 48%, 85%)"/><circle cx="55.337701226777995" cy="115.33075532803817" r="3" fill="hsl(51, 90%, 71%)"/><circle cx="125.06321215490496" cy="67.14840903091006" r="3" fill="hsl(262, 48%, 85%)"/><circle cx="26.581064613227923" cy="124.37963620390343" r="3" fill="hsl(180, 50%, 82%)"/><circle cx="31.888781005104402" cy="126.08638765105485" r="3" fill="hsl(180, 50%, 82%)"/><circle cx="121.23733974711885" cy="62.70516316913222" r="3" fill="hsl(262, 48%, 85%)"/><circle cx="14.689183437695643" cy="106.12778445808165" r="3" fill="hsl(180, 50%, 82%)"/><circle cx="121.67218041729504" cy="67.34891262172277" r="3" fill="hsl(262, 48%, 85%)"/><circle cx="82.49072586786431" cy="37.72722250713611" r="3" fill="hsl(51, 90%, 71%)"/><circle cx="125.71261478812072" cy="69.93425250267879" r="3" fill="hsl(262, 48%, 85%)"/><circle cx="27.454213097058418" cy="113.43417104023716" r="3" fill="hsl(180, 50%, 82%)"/><circle cx="81.40346710321116" cy="56.85219323038648" r="3" fill="hsl(51, 90%, 71%)"/><circle cx="64.12096702103393" cy="79.86448539061091" r="3" fill="hsl(51, 90%, 71%)"/><circle cx="93.03837226150877" cy="88.95049794239895" r="3" fill="hsl(51, 90%, 71%)"/><circle cx="127.56334176663893" cy="66.40232359038723" r="3" fill="hsl(262, 48%, 85%)"/><circle cx="28.992807736273587" cy="139" r="3" fill="hsl(180, 50%, 82%)"/><circle cx="14.299469887115983" cy="112.1273474188608" r="3" fill="hsl(180, 50%, 82%)"/><circle cx="79.63559594565506" cy="33.620116994470514" r="3" fill="hsl(51, 90%, 71%)"/><circle cx="125.80050000303204" cy="64.64830336620776" r="3" fill="hsl(262, 48%, 85%)"/><circle cx="70.1886940179828" cy="78.15688630705807" r="3" fill="hsl(51, 90%, 71%)"/><circle cx="32.84373182642829" cy="114.37048156336178" r="3" fill="hsl(180, 50%, 82%)"/><circle cx="43.31036336485499" cy="128.3039097915217" r="3" fill="hsl(180, 50%, 82%)"/><circle cx="124.25578817954931" cy="70.23452423027837" r="3" fill="hsl(262, 48%, 85%)"/><circle cx="24.873904538018508" cy="109.73226164487723" r="3" fill="hsl(180, 50%, 82%)"/><circle cx="25.948092099083453" cy="127.96486804933477" r="3" fill="hsl(180, 50%, 82%)"/><circle cx="28.157436464287077" cy="128.7327461845371" r="3" fill="hsl(180, 50%, 82%)"/><circle cx="119.37050243978324" cy="69.53727621549587" r="3" fill="hsl(262, 48%, 85%)"/><circle cx="126.51465672698579" cy="70.18951856669915" r="3" fill="hsl(262, 48%, 85%)"/><circle cx="85.80271451026363" cy="51.76815627840904" r="3" fill="hsl(51, 90%, 71%)"/><circle cx="34.01940916148039" cy="119.56348835547071" r="3" fill="hsl(180, 50%, 82%)"/><circle cx="63.362471936765175" cy="73.7315153013044" r="3" fill="hsl(51, 90%, 71%)"/><circle cx="36.32562678108097" cy="106.98999941331961" r="3" fill="hsl(180, 50%, 82%)"/><circle cx="133.8008507575724" cy="70.14649523313385" r="3" fill="hsl(262, 48%, 85%)"/><circle cx="126.61733993203751" cy="67.95831008578939" r="3" fill="hsl(262, 48%, 85%)"/><circle cx="30.549731522961466" cy="125.83784132055469" r="3" fill="hsl(180, 50%, 82%)"/><circle cx="92.18371541802267" cy="97.3909196390215" r="3" fill="hsl(51, 90%, 71%)"/><circle cx="123.4197447222968" cy="80.08629198280639" r="3" fill="hsl(262, 48%, 85%)"/><circle cx="27.823861072219053" cy="103.09911424001766" r="3" fill="hsl(180, 50%, 82%)"/><circle cx="43.455563784307905" cy="92.58456097018467" r="3" fill="hsl(51, 90%, 71%)"/><circle cx="131.31956908218544" cy="64.32653903850952" r="3" fill="hsl(262, 48%, 85%)"/><circle cx="60.6853816925197" cy="51.879729793722085" r="3" fill="hsl(51, 90%, 71%)"/><circle cx="123.31950125878696" cy="63.97598357375058" r="3" fill="hsl(262, 48%, 85%)"/><circle cx="122.50217627572819" cy="67.8119796005938" r="3" fill="hsl(262, 48%, 85%)"/><circle cx="35.4613934485659" cy="124.15020174127586" r="3" fill="hsl(180, 50%, 82%)"/><circle cx="50.95377228858631" cy="121.1775893859378" r="3" fill="hsl(180, 50%, 82%)"/><circle cx="31.70884213692685" cy="113.5116103386138" r="3" fill="hsl(180, 50%, 82%)"/><circle cx="129.77962663676772" cy="62.00938472763269" r="3" fill="hsl(262, 48%, 85%)"/><circle cx="70.42680213647012" cy="61.15568235698583" r="3" fill="hsl(51, 90%, 71%)"/><circle cx="45.35020029583029" cy="114.5315187218372" r="3" fill="hsl(180, 50%, 82%)"/><circle cx="17.241345805568965" cy="111.550580398815" r="3" fill="hsl(180, 50%, 82%)"/><circle cx="129.05638010208483" cy="60.21589724164389" r="3" fill="hsl(262, 48%, 85%)"/><circle cx="62.01211728364952" cy="48.10239041286774" r="3" fill="hsl(51, 90%, 71%)"/><circle cx="85.09756429602325" cy="82.27118737522967" r="3" fill="hsl(51, 90%, 71%)"/><circle cx="57.952293184878705" cy="57.71250795457176" r="3" fill="hsl(51, 90%, 71%)"/><circle cx="115.94605656361821" cy="74.68281319533635" r="3" fill="hsl(51, 90%, 71%)"/><circle cx="52.197188314954474" cy="87.68963714527749" r="3" fill="hsl(51, 90%, 71%)"/><circle cx="122.22163444502763" cy="72.87775295393004" r="3" fill="hsl(262, 48%, 85%)"/><circle cx="19.373570574369346" cy="118.51284476814573" r="3" fill="hsl(180, 50%, 82%)"/><circle cx="56.05209083636423" cy="97.43928074312639" r="3" fill="hsl(51, 90%, 71%)"/><circle cx="47.057235171112104" cy="105.26502068106193" r="3" fill="hsl(180, 50%, 82%)"/><circle cx="31.300126489154305" cy="115.33209845510227" r="3" fill="hsl(180, 50%, 82%)"/><circle cx="68.40240073643223" cy="39.89511959526032" r="3" fill="hsl(51, 90%, 71%)"/><circle cx="15.033500445809752" cy="109.2567114568756" r="3" fill="hsl(180, 50%, 82%)"/><circle cx="72.79684219669528" cy="82.27986871805174" r="3" fill="hsl(51, 90%, 71%)"/><circle cx="29.297513999673143" cy="116.5891934688426" r="3" fill="hsl(180, 50%, 82%)"/><circle cx="17.07464537889019" cy="112.91281623368266" r="3" fill="hsl(180, 50%, 82%)"/><circle cx="73.64400599494235" cy="80.20011606490986" r="3" fill="hsl(51, 90%, 71%)"/><circle cx="101.04263812968058" cy="72.22456803825618" r="3" fill="hsl(51, 90%, 71%)"/><circle cx="37.87486458443921" cy="126.19999367139553" r="3" fill="hsl(180, 50%, 82%)"/><circle cx="17.012730757015504" cy="115.4451429318126" r="3" fill="hsl(180, 50%, 82%)"/><circle cx="12.910177447752558" cy="108.3578245882997" r="3" fill="hsl(180, 50%, 82%)"/><circle cx="40.220592673182004" cy="121.24994287573801" r="3" fill="hsl(180, 50%, 82%)"/><circle cx="119.75027023934865" cy="60.46771339739065" r="3" fill="hsl(262, 48%, 85%)"/><circle cx="40.707395963887215" cy="125.65019582537379" r="3" fill="hsl(180, 50%, 82%)"/><circle cx="26.634421753008397" cy="116.73059894237011" r="3" fill="hsl(180, 50%, 82%)"/><circle cx="122.00637979902886" cy="63.772399498091" r="3" fill="hsl(262, 48%, 85%)"/><circle cx="87.77705076739898" cy="60.423510408001825" r="3" fill="hsl(51, 90%, 71%)"/><circle cx="79.59973141830314" cy="54.04074652839562" r="3" fill="hsl(51, 90%, 71%)"/><circle cx="28.149590671547355" cy="126.99207317902409" r="3" fill="hsl(180, 50%, 82%)"/><circle cx="59.856067339745934" cy="95.01104190857858" r="3" fill="hsl(51, 90%, 71%)"/><circle cx="59.87517615526805" cy="79.17384469264815" r="3" fill="hsl(51, 90%, 71%)"/><circle cx="132.78132565405676" cy="67.9314558812375" r="3" fill="hsl(262, 48%, 85%)"/><circle cx="126.47112704112085" cy="68.00965426987568" r="3" fill="hsl(262, 48%, 85%)"/><circle cx="37.4200755268719" cy="106.04420480703928" r="3" fill="hsl(180, 50%, 82%)"/><circle cx="33.94874324301002" cy="124.32820363277857" r="3" fill="hsl(180, 50%, 82%)"/><circle cx="44.232368850465676" cy="126.01238900626056" r="3" fill="hsl(180, 50%, 82%)"/><circle cx="41.15158026020108" cy="104.22252635885015" r="3" fill="hsl(180, 50%, 82%)"/><circle cx="105.64407152528335" cy="45.40766681294274" r="3" fill="hsl(51, 90%, 71%)"/><circle cx="69.22277974283026" cy="44.32396973030033" r="3" fill="hsl(51, 90%, 71%)"/><circle cx="68.49327733404725" cy="61.09366190692613" r="3" fill="hsl(51, 90%, 71%)"/><circle cx="45.44622259201427" cy="112.49803777028129" r="3" fill="hsl(180, 50%, 82%)"/><circle cx="123.03609243974707" cy="64.83615916651534" r="3" fill="hsl(262, 48%, 85%)"/><circle cx="103.70387240018333" cy="56.8877326525032" r="3" fill="hsl(51, 90%, 71%)"/><circle cx="70.30733909554866" cy="46.854523894061295" r="3" fill="hsl(51, 90%, 71%)"/><circle cx="22.894213111371126" cy="115.80843886627548" r="3" fill="hsl(180, 50%, 82%)"/><circle cx="119.47637621246199" cy="86.54714869537116" r="3" fill="hsl(51, 90%, 71%)"/><circle cx="128.0899330391" cy="71.83644186463992" r="3" fill="hsl(262, 48%, 85%)"/><circle cx="64.09144498201586" cy="74.73303105829352" r="3" fill="hsl(51, 90%, 71%)"/><circle cx="125.34774829546619" cy="62.76050708704234" r="3" fill="hsl(262, 48%, 85%)"/><circle cx="28.61333846219068" cy="111.02865419596824" r="3" fill="hsl(180, 50%, 82%)"/><circle cx="35.57123781728161" cy="108.59145303405214" r="3" fill="hsl(180, 50%, 82%)"/><circle cx="24.59861940918306" cy="125.5286430866228" r="3" fill="hsl(180, 50%, 82%)"/><circle cx="34.03826371551661" cy="127.65290106187865" r="3" fill="hsl(180, 50%, 82%)"/><circle cx="131.6646586770891" cy="67.84556021198294" r="3" fill="hsl(262, 48%, 85%)"/><circle cx="119.34134074032805" cy="66.53441724547578" r="3" fill="hsl(262, 48%, 85%)"/><circle cx="35.22452903581382" cy="121.574630748241" r="3" fill="hsl(180, 50%, 82%)"/><circle cx="26.425292589191237" cy="120.06667843502059" r="3" fill="hsl(180, 50%, 82%)"/><circle cx="105.54257003782884" cy="53.77908152112069" r="3" fill="hsl(51, 90%, 71%)"/><circle cx="78.86295600375958" cy="108.16255441007603" r="3" fill="hsl(51, 90%, 71%)"/><circle cx="125.45979217031038" cy="57.4615011230929" r="3" fill="hsl(262, 48%, 85%)"/><circle cx="83.86734202557041" cy="83.89632936764258" r="3" fill="hsl(51, 90%, 71%)"/><circle cx="41.544768825338096" cy="121.22575336708584" r="3" fill="hsl(180, 50%, 82%)"/><circle cx="133.2456531834892" cy="62.084674765641935" r="3" fill="hsl(262, 48%, 85%)"/><circle cx="36.35504269129168" cy="119.91739354651533" r="3" fill="hsl(180, 50%, 82%)"/><circle cx="125.11108393705103" cy="61.33247623866509" r="3" fill="hsl(262, 48%, 85%)"/><circle cx="130.6415700301483" cy="63.0703822586449" r="3" fill="hsl(262, 48%, 85%)"/><circle cx="132.93001793054967" cy="62.824934200161344" r="3" fill="hsl(262, 48%, 85%)"/><circle cx="72.05857999922767" cy="39.64276873484529" r="3" fill="hsl(51, 90%, 71%)"/><circle cx="59.09946586447568" cy="57.97422084151111" r="3" fill="hsl(51, 90%, 71%)"/><circle cx="39.903782285347994" cy="128.3547256850468" r="3" fill="hsl(180, 50%, 82%)"/><circle cx="52.04452874864522" cy="34.75857275602231" r="3" fill="hsl(51, 90%, 71%)"/><circle cx="130.1411418025027" cy="63.33543568332194" r="3" fill="hsl(262, 48%, 85%)"/><circle cx="23.287913836322637" cy="115.583552515915" r="3" fill="hsl(180, 50%, 82%)"/><circle cx="32.06484102486729" cy="104.89024054089673" r="3" fill="hsl(180, 50%, 82%)"/><circle cx="124.04764082943423" cy="66.79110188633777" r="3" fill="hsl(51, 90%, 71%)"/><circle cx="126.08938378347928" cy="57.08290316537136" r="3" fill="hsl(262, 48%, 85%)"/><circle cx="41.92033985276269" cy="125.3387253359241" r="3" fill="hsl(180, 50%, 82%)"/><circle cx="57.13465811506117" cy="106.04447577356541" r="3" fill="hsl(180, 50%, 82%)"/><circle cx="79.43977616451026" cy="59.2882026501419" r="3" fill="hsl(51, 90%, 71%)"/><circle cx="125.95633788645878" cy="64.7107922114395" r="3" fill="hsl(262, 48%, 85%)"/><circle cx="35.8541374678495" cy="118.61924825576197" r="3" fill="hsl(180, 50%, 82%)"/><circle cx="131.64603548939832" cy="65.8587870766003" r="3" fill="hsl(262, 48%, 85%)"/><circle cx="77.9978825737039" cy="23.845279820113788" r="3" fill="hsl(51, 90%, 71%)"/><circle cx="130.589369987992" cy="65.01894211249028" r="3" fill="hsl(262, 48%, 85%)"/><circle cx="131.98468890659723" cy="65.25641677627802" r="3" fill="hsl(262, 48%, 85%)"/><circle cx="128.18263610494435" cy="67.44221470310164" r="3" fill="hsl(262, 48%, 85%)"/><circle cx="37.619517189617326" cy="119.16665495557197" r="3" fill="hsl(180, 50%, 82%)"/><circle cx="132.0035618197792" cy="59.0643735771956" r="3" fill="hsl(262, 48%, 85%)"/><circle cx="42.43031467525515" cy="126.23553934583651" r="3" fill="hsl(180, 50%, 82%)"/><circle cx="124.51004721114954" cy="64.33658041603907" r="3" fill="hsl(262, 48%, 85%)"/><circle cx="68.09802650767345" cy="66.03758553298158" r="3" fill="hsl(51, 90%, 71%)"/><circle cx="57.64966480679503" cy="67.69816394281567" r="3" fill="hsl(51, 90%, 71%)"/><circle cx="105.09713385332103" cy="72.66743112876064" r="3" fill="hsl(51, 90%, 71%)"/><circle cx="26.684174625122346" cy="128.85429389193237" r="3" fill="hsl(180, 50%, 82%)"/><circle cx="66.01084476501042" cy="34.65499069161693" r="3" fill="hsl(51, 90%, 71%)"/><circle cx="43.155483152722496" cy="94.50563910064308" r="3" fill="hsl(51, 90%, 71%)"/><circle cx="39.491251309705845" cy="116.53931273532005" r="3" fill="hsl(180, 50%, 82%)"/><circle cx="110.12890869774499" cy="81.14934142920696" r="3" fill="hsl(51, 90%, 71%)"/><circle cx="90.29683733717067" cy="71.105881764845" r="3" fill="hsl(51, 90%, 71%)"/><circle cx="88.69068755873707" cy="71.7530897150739" r="3" fill="hsl(51, 90%, 71%)"/><circle cx="10" cy="97.09039227314574" r="3" fill="hsl(180, 50%, 82%)"/><circle cx="118.97302716630713" cy="66.46533896265828" r="3" fill="hsl(262, 48%, 85%)"/><circle cx="76.5246416345767" cy="74.52333500988915" r="3" fill="hsl(51, 90%, 71%)"/><circle cx="130.60802667434515" cy="62.1231634640731" r="3" fill="hsl(262, 48%, 85%)"/><circle cx="83.1721565862328" cy="74.14626302865524" r="3" fill="hsl(51, 90%, 71%)"/><circle cx="35.974284496719804" cy="135.5705324120444" r="3" fill="hsl(180, 50%, 82%)"/><circle cx="31.416366003452605" cy="116.71392694414695" r="3" fill="hsl(180, 50%, 82%)"/><circle cx="78.5374605522004" cy="78.12566795426564" r="3" fill="hsl(51, 90%, 71%)"/><circle cx="92.38247810462994" cy="68.93348459159964" r="3" fill="hsl(51, 90%, 71%)"/><circle cx="46.91663916768301" cy="108.96908180643497" r="3" fill="hsl(180, 50%, 82%)"/><circle cx="120.38888916080768" cy="66.29467425454264" r="3" fill="hsl(262, 48%, 85%)"/><circle cx="131.41486448040004" cy="61.95991669220135" r="3" fill="hsl(262, 48%, 85%)"/><circle cx="33.87148803470818" cy="130.81803133214206" r="3" fill="hsl(180, 50%, 82%)"/><circle cx="20.43862993668476" cy="125.09449425861186" r="3" fill="hsl(180, 50%, 82%)"/><circle cx="125.96546744880565" cy="62.483385071267634" r="3" fill="hsl(51, 90%, 71%)"/><circle cx="124.02266689835395" cy="65.66790259948269" r="3" fill="hsl(262, 48%, 85%)"/><circle cx="23.930637996592246" cy="123.72760170695148" r="3" fill="hsl(180, 50%, 82%)"/><circle cx="32.30291317902139" cy="115.62515950184478" r="3" fill="hsl(180, 50%, 82%)"/><circle cx="16.843138987046757" cy="105.92921031575905" r="3" fill="hsl(180, 50%, 82%)"/><circle cx="45.8667791138387" cy="68.9899603285726" r="3" fill="hsl(51, 90%, 71%)"/><circle cx="34.45681372003357" cy="115.32959065634095" r="3" fill="hsl(180, 50%, 82%)"/><circle cx="122.2744841735311" cy="68.01246991538478" r="3" fill="hsl(262, 48%, 85%)"/><circle cx="38.94533184786162" cy="118.78458255847765" r="3" fill="hsl(180, 50%, 82%)"/><circle cx="126.33885783567656" cy="60.05494894572334" r="3" fill="hsl(262, 48%, 85%)"/><circle cx="82.45135622010483" cy="85.97381796524127" r="3" fill="hsl(51, 90%, 71%)"/><circle cx="126.90827112896585" cy="59.08221649497106" r="3" fill="hsl(262, 48%, 85%)"/><circle cx="131.29240920835318" cy="67.5700761004726" r="3" fill="hsl(262, 48%, 85%)"/><circle cx="45.77935073027677" cy="112.54939586679457" r="3" fill="hsl(180, 50%, 82%)"/><circle cx="51.77731498601152" cy="26.882971261635934" r="3" fill="hsl(51, 90%, 71%)"/><circle cx="81.25929079959108" cy="62.009701878232235" r="3" fill="hsl(51, 90%, 71%)"/><circle cx="45.0373317250446" cy="134.59854510516124" r="3" fill="hsl(180, 50%, 82%)"/><circle cx="38.43128366359843" cy="86.07434769500702" r="3" fill="hsl(51, 90%, 71%)"/><circle cx="37.33103920926658" cy="117.20733251703176" r="3" fill="hsl(180, 50%, 82%)"/><circle cx="24.097101070742035" cy="104.20617494799374" r="3" fill="hsl(180, 50%, 82%)"/><circle cx="131.41386546735342" cy="59.11127489632387" r="3" fill="hsl(262, 48%, 85%)"/><circle cx="44.66856312934903" cy="117.37416536108992" r="3" fill="hsl(180, 50%, 82%)"/><circle cx="124.48268315370326" cy="70.57527815827447" r="3" fill="hsl(262, 48%, 85%)"/><circle cx="61.164875950155505" cy="102.6678423267181" r="3" fill="hsl(51, 90%, 71%)"/><circle cx="22.23718678034873" cy="106.8676381431258" r="3" fill="hsl(180, 50%, 82%)"/><circle cx="131.03804520862147" cy="65.1958278885877" r="3" fill="hsl(262, 48%, 85%)"/><circle cx="123.19831954904707" cy="64.8341518441872" r="3" fill="hsl(262, 48%, 85%)"/><circle cx="35.86981097057626" cy="138.09342711392966" r="3" fill="hsl(180, 50%, 82%)"/><circle cx="31.967672511848715" cy="61.74201893781698" r="3" fill="hsl(51, 90%, 71%)"/><circle cx="29.28205790806691" cy="133.82647098197867" r="3" fill="hsl(180, 50%, 82%)"/><circle cx="92.22427758282544" cy="58.07846772775367" r="3" fill="hsl(51, 90%, 71%)"/><circle cx="130.350768164174" cy="61.05765206601161" r="3" fill="hsl(262, 48%, 85%)"/><circle cx="46.332380557192025" cy="129.4978892527907" r="3" fill="hsl(180, 50%, 82%)"/><circle cx="129.91885277677957" cy="61.299991374137285" r="3" fill="hsl(262, 48%, 85%)"/><circle cx="31.127411682426796" cy="115.66151257346131" r="3" fill="hsl(180, 50%, 82%)"/><circle cx="126.15746020785603" cy="65.00154744301217" r="3" fill="hsl(262, 48%, 85%)"/><circle cx="102.04824803020225" cy="81.87014229799439" r="3" fill="hsl(51, 90%, 71%)"/><circle cx="127.38989540436935" cy="70.43035609067573" r="3" fill="hsl(262, 48%, 85%)"/><circle cx="130.03581285737232" cy="65.21407741033762" r="3" fill="hsl(262, 48%, 85%)"/><circle cx="123.94788412644239" cy="61.80200567707556" r="3" fill="hsl(262, 48%, 85%)"/><circle cx="123.38930854214004" cy="67.3201462883787" r="3" fill="hsl(262, 48%, 85%)"/><circle cx="132.92192619960326" cy="66.63424570847675" r="3" fill="hsl(262, 48%, 85%)"/><circle cx="46.56616407437835" cy="113.17300593287659" r="3" fill="hsl(180, 50%, 82%)"/><circle cx="30.394741666756886" cy="118.47757496198156" r="3" fill="hsl(180, 50%, 82%)"/><circle cx="24.175700930342213" cy="97.8292058029377" r="3" fill="hsl(51, 90%, 71%)"/><circle cx="36.09078460855223" cy="105.27730207106535" r="3" fill="hsl(180, 50%, 82%)"/><circle cx="131.3340803547741" cy="72.30387320805775" r="3" fill="hsl(262, 48%, 85%)"/><circle cx="62.6426939721334" cy="67.33133069714481" r="3" fill="hsl(51, 90%, 71%)"/><circle cx="125.49853581143459" cy="65.71669854357675" r="3" fill="hsl(262, 48%, 85%)"/><circle cx="26.92240227922913" cy="113.59484350989078" r="3" fill="hsl(180, 50%, 82%)"/><circle cx="36.72476840462073" cy="129.09240246989185" r="3" fill="hsl(180, 50%, 82%)"/><circle cx="34.3207967971821" cy="122.77825932095402" r="3" fill="hsl(180, 50%, 82%)"/><circle cx="19.975457408312785" cy="121.84103394022759" r="3" fill="hsl(180, 50%, 82%)"/><circle cx="63.97825538889414" cy="60.109434768554976" r="3" fill="hsl(51, 90%, 71%)"/><circle cx="135.23619651575495" cy="63.84230044734137" r="3" fill="hsl(262, 48%, 85%)"/><circle cx="63.322950936698" cy="72.79930315660798" r="3" fill="hsl(51, 90%, 71%)"/><circle cx="76.32654023845127" cy="67.10152090557139" r="3" fill="hsl(51, 90%, 71%)"/><circle cx="130.97648880263145" cy="59.0171104384322" r="3" fill="hsl(262, 48%, 85%)"/><circle cx="33.531282414275275" cy="120.186367027434" r="3" fill="hsl(180, 50%, 82%)"/><circle cx="127.8465846273981" cy="59.501173905529" r="3" fill="hsl(262, 48%, 85%)"/><circle cx="134.8771255540851" cy="59.82596606358252" r="3" fill="hsl(262, 48%, 85%)"/><circle cx="70.98758214424814" cy="58.9649901947669" r="3" fill="hsl(51, 90%, 71%)"/><circle cx="133.6276469581906" cy="66.1062194922988" r="3" fill="hsl(262, 48%, 85%)"/><circle cx="125.9387125476401" cy="63.934401711527684" r="3" fill="hsl(262, 48%, 85%)"/><circle cx="130.91179407954556" cy="66.8601708223998" r="3" fill="hsl(262, 48%, 85%)"/><circle cx="21.69966353050382" cy="116.06735784469974" r="3" fill="hsl(180, 50%, 82%)"/><circle cx="31.41946779468256" cy="132.07113836231653" r="3" fill="hsl(180, 50%, 82%)"/><circle cx="125.74914957385926" cy="59.79186007640403" r="3" fill="hsl(262, 48%, 85%)"/><circle cx="121.57021757386698" cy="67.75201317178036" r="3" fill="hsl(262, 48%, 85%)"/><circle cx="82.98080304208163" cy="83.06981111689949" r="3" fill="hsl(51, 90%, 71%)"/><circle cx="76.69303645996546" cy="85.1058025236724" r="3" fill="hsl(51, 90%, 71%)"/><circle cx="130.12234500411734" cy="64.36675962002923" r="3" fill="hsl(262, 48%, 85%)"/><circle cx="28.84871263798028" cy="121.24491768565733" r="3" fill="hsl(180, 50%, 82%)"/><circle cx="135.51985985343126" cy="67.92380550243813" r="3" fill="hsl(262, 48%, 85%)"/><circle cx="84.86731396800802" cy="38.06169378957767" r="3" fill="hsl(51, 90%, 71%)"/><circle cx="124.64113225169363" cy="68.10827351012912" r="3" fill="hsl(262, 48%, 85%)"/><circle cx="77.2436227772969" cy="51.71216195341984" r="3" fill="hsl(51, 90%, 71%)"/><circle cx="128.21102846522825" cy="64.51246705552786" r="3" fill="hsl(262, 48%, 85%)"/><circle cx="34.29999614133502" cy="112.87979507615493" r="3" fill="hsl(180, 50%, 82%)"/><circle cx="128.80476058734638" cy="64.64256913484958" r="3" fill="hsl(262, 48%, 85%)"/><circle cx="100.04307255849346" cy="71.69621821268028" r="3" fill="hsl(51, 90%, 71%)"/><circle cx="125.53594132623557" cy="76.86067157850403" r="3" fill="hsl(262, 48%, 85%)"/><circle cx="91.49741612359982" cy="48.147714652701566" r="3" fill="hsl(51, 90%, 71%)"/><circle cx="35.09226652765295" cy="97.14793507047621" r="3" fill="hsl(180, 50%, 82%)"/><circle cx="41.20642765181327" cy="31.121671586873813" r="3" fill="hsl(51, 90%, 71%)"/><circle cx="10.302619269358386" cy="129.47313041616337" r="3" fill="hsl(180, 50%, 82%)"/><circle cx="122.98412376481082" cy="63.101574475023746" r="3" fill="hsl(262, 48%, 85%)"/><circle cx="51.79818874257154" cy="37.388543445340304" r="3" fill="hsl(51, 90%, 71%)"/><circle cx="127.87204267489453" cy="56.58881949999058" r="3" fill="hsl(262, 48%, 85%)"/><circle cx="27.2068751607691" cy="123.97193986660088" r="3" fill="hsl(180, 50%, 82%)"/><circle cx="32.544349345311375" cy="123.63815948431132" r="3" fill="hsl(180, 50%, 82%)"/><circle cx="133.45878354162804" cy="63.7730397977673" r="3" fill="hsl(262, 48%, 85%)"/><circle cx="48.75793728954437" cy="81.03923642709731" r="3" fill="hsl(51, 90%, 71%)"/><circle cx="60.782729926618345" cy="74.28893008088343" r="3" fill="hsl(51, 90%, 71%)"/><circle cx="75.59299987594605" cy="49.26841017553325" r="3" fill="hsl(51, 90%, 71%)"/><circle cx="31.067059619778735" cy="128.1096026634039" r="3" fill="hsl(180, 50%, 82%)"/><circle cx="35.91568517445581" cy="123.91090094921472" r="3" fill="hsl(180, 50%, 82%)"/><circle cx="75.77072726825196" cy="53.036850241185434" r="3" fill="hsl(51, 90%, 71%)"/><circle cx="133.55144835502455" cy="61.90481945105165" r="3" fill="hsl(262, 48%, 85%)"/><circle cx="69.73357690286073" cy="61.94510056794112" r="3" fill="hsl(51, 90%, 71%)"/><circle cx="33.897018037110925" cy="110.56270466143974" r="3" fill="hsl(180, 50%, 82%)"/><circle cx="126.90802364960552" cy="59.32663428393596" r="3" fill="hsl(262, 48%, 85%)"/><circle cx="122.03893751710967" cy="59.999964385847086" r="3" fill="hsl(262, 48%, 85%)"/><circle cx="34.362393589500094" cy="109.45565534708439" r="3" fill="hsl(180, 50%, 82%)"/><circle cx="126.92628204308221" cy="68.26091316968319" r="3" fill="hsl(262, 48%, 85%)"/><circle cx="75.9086097252158" cy="60.76981124432534" r="3" fill="hsl(51, 90%, 71%)"/><circle cx="127.31640703445063" cy="69.31983704920682" r="3" fill="hsl(262, 48%, 85%)"/><circle cx="65.53098153402763" cy="74.98085982486982" r="3" fill="hsl(51, 90%, 71%)"/><circle cx="131.66722690903532" cy="65.5143565245287" r="3" fill="hsl(262, 48%, 85%)"/><circle cx="36.939580256713185" cy="71.58371395466087" r="3" fill="hsl(51, 90%, 71%)"/><circle cx="29.377493594120722" cy="115.55810906810683" r="3" fill="hsl(51, 90%, 71%)"/><circle cx="59.43924714636074" cy="94.8950710455855" r="3" fill="hsl(51, 90%, 71%)"/><circle cx="77.76902820375831" cy="51.921282665539756" r="3" fill="hsl(51, 90%, 71%)"/><circle cx="134.25347896117938" cy="67.52026188828341" r="3" fill="hsl(262, 48%, 85%)"/><circle cx="46.96007465599865" cy="113.3456053013912" r="3" fill="hsl(180, 50%, 82%)"/><circle cx="42.351424191864844" cy="112.17970933474565" r="3" fill="hsl(180, 50%, 82%)"/><circle cx="40.561026874163296" cy="111.34406548292962" r="3" fill="hsl(180, 50%, 82%)"/><circle cx="116.39196072528748" cy="62.132881179468875" r="3" fill="hsl(262, 48%, 85%)"/><circle cx="79.23450266532898" cy="64.04580552025863" r="3" fill="hsl(51, 90%, 71%)"/><circle cx="128.98337912418972" cy="68.55566883047757" r="3" fill="hsl(262, 48%, 85%)"/><circle cx="131.76481857106202" cy="70.68410811617024" r="3" fill="hsl(262, 48%, 85%)"/><circle cx="126.21168129282405" cy="68.14809086187363" r="3" fill="hsl(262, 48%, 85%)"/><circle cx="36.01655197688324" cy="114.84090259125334" r="3" fill="hsl(180, 50%, 82%)"/><circle cx="16.59856825333492" cy="117.01096105021544" r="3" fill="hsl(180, 50%, 82%)"/><circle cx="46.49299693703037" cy="127.64362513687566" r="3" fill="hsl(180, 50%, 82%)"/><circle cx="40.43715578573118" cy="94.3502150187665" r="3" fill="hsl(51, 90%, 71%)"/><circle cx="71.14686355441674" cy="48.70529346842026" r="3" fill="hsl(51, 90%, 71%)"/><circle cx="33.01704944376702" cy="107.50653651042478" r="3" fill="hsl(180, 50%, 82%)"/><circle cx="66.61226604547956" cy="57.86621497212796" r="3" fill="hsl(51, 90%, 71%)"/><circle cx="131.99877517239668" cy="69.38006284266383" r="3" fill="hsl(262, 48%, 85%)"/><circle cx="36.043718497268515" cy="106.31065588137176" r="3" fill="hsl(180, 50%, 82%)"/><circle cx="126.23440705510636" cy="56.429711040977715" r="3" fill="hsl(262, 48%, 85%)"/><circle cx="44.43795170431399" cy="102.22597595323089" r="3" fill="hsl(51, 90%, 71%)"/><circle cx="30.599503618386763" cy="122.29880109332936" r="3" fill="hsl(180, 50%, 82%)"/><circle cx="27.331895076900533" cy="123.25158425536355" r="3" fill="hsl(180, 50%, 82%)"/><circle cx="77.87793003282445" cy="90.75954689762828" r="3" fill="hsl(51, 90%, 71%)"/><circle cx="21.05564989958316" cy="128.10877954111893" r="3" fill="hsl(180, 50%, 82%)"/><circle cx="114.14178213005955" cy="55.361476214497074" r="3" fill="hsl(51, 90%, 71%)"/><circle cx="27.671220003252063" cy="40.97511383696915" r="3" fill="hsl(51, 90%, 71%)"/><circle cx="127.0544881045519" cy="63.813340754948555" r="3" fill="hsl(262, 48%, 85%)"/><circle cx="87.40686110822354" cy="77.71271940002849" r="3" fill="hsl(51, 90%, 71%)"/><circle cx="79.62691829905975" cy="76.23671400207334" r="3" fill="hsl(51, 90%, 71%)"/><circle cx="43.95954111908998" cy="117.00578292175888" r="3" fill="hsl(180, 50%, 82%)"/><circle cx="47.255157984092094" cy="76.8269010886309" r="3" fill="hsl(51, 90%, 71%)"/><circle cx="27.428351500844293" cy="115.83857115146591" r="3" fill="hsl(180, 50%, 82%)"/><circle cx="98.27850970675435" cy="96.40040618593336" r="3" fill="hsl(51, 90%, 71%)"/><circle cx="131.39341175650242" cy="50.792227361524866" r="3" fill="hsl(51, 90%, 71%)"/><circle cx="99.63650199978161" cy="62.021239988891" r="3" fill="hsl(51, 90%, 71%)"/><circle cx="30.06183082765825" cy="59.60455789594492" r="3" fill="hsl(51, 90%, 71%)"/><circle cx="39.770357882919065" cy="132.2106611014671" r="3" fill="hsl(180, 50%, 82%)"/><circle cx="120.38970395701391" cy="60.063904828594396" r="3" fill="hsl(262, 48%, 85%)"/><circle cx="106.52574003732622" cy="38.72062588817198" r="3" fill="hsl(51, 90%, 71%)"/><circle cx="136.83242964403846" cy="68.22822202314684" r="3" fill="hsl(262, 48%, 85%)"/><circle cx="28.845560549338437" cy="108.90831125989952" r="3" fill="hsl(180, 50%, 82%)"/><circle cx="20.46253256656605" cy="128.79147739809562" r="3" fill="hsl(180, 50%, 82%)"/><circle cx="131.0398835363866" cy="69.17819514933413" r="3" fill="hsl(262, 48%, 85%)"/><circle cx="25.78895464770852" cy="124.00599528726912" r="3" fill="hsl(180, 50%, 82%)"/><circle cx="39.090530565223176" cy="121.20352659932134" r="3" fill="hsl(180, 50%, 82%)"/><circle cx="25.033073260292852" cy="126.51354641453086" r="3" fill="hsl(180, 50%, 82%)"/><circle cx="124.60552321122843" cy="65.64166575273342" r="3" fill="hsl(262, 48%, 85%)"/><circle cx="70.89453483611189" cy="101.28054626548605" r="3" fill="hsl(51, 90%, 71%)"/><circle cx="134.29590462563178" cy="61.73539779080239" r="3" fill="hsl(262, 48%, 85%)"/><circle cx="37.664589908764654" cy="108.30909854152597" r="3" fill="hsl(180, 50%, 82%)"/><circle cx="99.75688084020008" cy="14.567557948304966" r="3" fill="hsl(51, 90%, 71%)"/><circle cx="73.92134771195984" cy="91.35376801685717" r="3" fill="hsl(51, 90%, 71%)"/><circle cx="136.3360409252633" cy="61.417158906962726" r="3" fill="hsl(262, 48%, 85%)"/><circle cx="131.15753961490583" cy="63.428223505445644" r="3" fill="hsl(262, 48%, 85%)"/><circle cx="40.478260378011036" cy="110.83326348955838" r="3" fill="hsl(180, 50%, 82%)"/><circle cx="35.89355349541186" cy="109.8217549533415" r="3" fill="hsl(180, 50%, 82%)"/><circle cx="17.65470167713414" cy="114.71458673983201" r="3" fill="hsl(180, 50%, 82%)"/><circle cx="139" cy="59.19591753723278" r="3" fill="hsl(262, 48%, 85%)"/><circle cx="41.6193920388674" cy="116.04314248208348" r="3" fill="hsl(180, 50%, 82%)"/><circle cx="125.22903263009002" cy="69.45778548439776" r="3" fill="hsl(262, 48%, 85%)"/><circle cx="134.35273849168223" cy="69.21431399789054" r="3" fill="hsl(262, 48%, 85%)"/><circle cx="32.35585015501357" cy="45.67181163591752" r="3" fill="hsl(51, 90%, 71%)"/><circle cx="41.59414082695881" cy="109.9834791095175" r="3" fill="hsl(180, 50%, 82%)"/><circle cx="132.38351337961166" cy="68.70967397440617" r="3" fill="hsl(262, 48%, 85%)"/><circle cx="42.46753866717327" cy="114.59041308038927" r="3" fill="hsl(180, 50%, 82%)"/><circle cx="75.0406924284986" cy="46.05730583845109" r="3" fill="hsl(51, 90%, 71%)"/><circle cx="126.5087750759512" cy="64.14136924563371" r="3" fill="hsl(262, 48%, 85%)"/><circle cx="120.93825687781408" cy="67.42150236446565" r="3" fill="hsl(262, 48%, 85%)"/><circle cx="126.8953202613124" cy="70.2940198872321" r="3" fill="hsl(262, 48%, 85%)"/><circle cx="126.40678534280339" cy="63.28952355250082" r="3" fill="hsl(262, 48%, 85%)"/><circle cx="32.35980507886508" cy="112.52924259499261" r="3" fill="hsl(180, 50%, 82%)"/><circle cx="63.69781908960713" cy="121.77364795734225" r="3" fill="hsl(51, 90%, 71%)"/><circle cx="59.69325337803452" cy="47.821100168717386" r="3" fill="hsl(51, 90%, 71%)"/><circle cx="39.75192838290383" cy="113.24029885579252" r="3" fill="hsl(180, 50%, 82%)"/><circle cx="75.20033113178395" cy="95.66755585127794" r="3" fill="hsl(51, 90%, 71%)"/><circle cx="31.180024156363388" cy="112.07617313263573" r="3" fill="hsl(180, 50%, 82%)"/><circle cx="95.5314780052008" cy="10" r="3" fill="hsl(51, 90%, 71%)"/><circle cx="125.2429755965906" cy="65.0320476678755" r="3" fill="hsl(262, 48%, 85%)"/><circle cx="33.91317715717308" cy="33.65658451356385" r="3" fill="hsl(51, 90%, 71%)"/><circle cx="37.000556981641736" cy="91.83423327180073" r="3" fill="hsl(51, 90%, 71%)"/><circle cx="97.37458136113325" cy="75.19849341743776" r="3" fill="hsl(51, 90%, 71%)"/><circle cx="20.916418529969956" cy="123.80856753876259" r="3" fill="hsl(180, 50%, 82%)"/><circle cx="120.75572584520123" cy="70.63892019041226" r="3" fill="hsl(262, 48%, 85%)"/><circle cx="124.45687720782968" cy="63.956194576928226" r="3" fill="hsl(262, 48%, 85%)"/><circle cx="30.400082258285007" cy="110.72239086917784" r="3" fill="hsl(180, 50%, 82%)"/><circle cx="70.1322184185474" cy="75.18249094705423" r="3" fill="hsl(51, 90%, 71%)"/><circle cx="37.41471947307704" cy="126.47721244490452" r="3" fill="hsl(180, 50%, 82%)"/><circle cx="133.55235056927845" cy="66.42560564679945" r="3" fill="hsl(262, 48%, 85%)"/><circle cx="72.71556800520536" cy="86.51708984080165" r="3" fill="hsl(51, 90%, 71%)"/><circle cx="26.481873273962776" cy="101.07088328423468" r="3" fill="hsl(180, 50%, 82%)"/><circle cx="128.00757031120546" cy="64.75079976523357" r="3" fill="hsl(262, 48%, 85%)"/></g></svg>